<svg xmlns="http://www.w3.org/2000/svg" viewBox="0 0 219.56 219.56"><defs><style>.cls-3{fill:#4f4f4f}.cls-4{fill:#bdbdbd}</style></defs><g id="Layer_2" data-name="Layer 2"><g id="Layer_1-2" data-name="Layer 1"><circle cx="109.78" cy="109.78" r="109.78" fill="#e0e0e0"/><path d="M129 65.88a39.61 39.61 0 01-19 0c-.94-.23-1.88-.5-2.81-.8a39.1 39.1 0 00-24.18 0l-.31.1c-.82.27-1.66.51-2.5.72a39.43 39.43 0 01-10.15 1.2 5.85 5.85 0 01.81-.52 39.5 39.5 0 0011.68-1.89l.31-.1a39.67 39.67 0 0124.5 0 37.34 37.34 0 005.1 1.29 38.69 38.69 0 0014.07 0z"/><path d="M160.52 67.91a35.13 35.13 0 01-4-1.06l-.53-.17c-.94-.3-1.89-.57-2.85-.8a39.27 39.27 0 00-18.23 0c-1 .24-2 .52-3 .85a39.75 39.75 0 01-24.64 0q-1.52-.5-3.06-.87a39.07 39.07 0 00-18.12 0q-1.52.36-3 .84l-.31.1a39.46 39.46 0 01-14.2 1.9 3.91 3.91 0 01.34-.49 39 39 0 0013.65-1.88l.31-.1c.38-.13.77-.24 1.15-.35a39.62 39.62 0 0122.12 0c.41.12.82.24 1.23.38a39.16 39.16 0 0024.27 0c.41-.14.83-.27 1.24-.38a39.52 39.52 0 0122.22 0l1 .31.53.17c1 .34 2.11.63 3.18.88a5.46 5.46 0 01.7.67z"/><path d="M161.65 69.79a36.69 36.69 0 01-5.16-1.28l-.53-.17a39.14 39.14 0 00-24.1 0 39.6 39.6 0 01-24.64 0 39.17 39.17 0 00-24.18 0l-.31.1a39.61 39.61 0 01-14.86 1.84 3.33 3.33 0 01.16-.51A38.74 38.74 0 0082.57 68l.31-.1a39.6 39.6 0 0124.5 0 39.16 39.16 0 0024.27 0 39.72 39.72 0 0124.47-.07l.53.17a35.66 35.66 0 004.76 1.2 4.87 4.87 0 01.24.59z"/><path d="M162 71.52a37.66 37.66 0 01-5.52-1.35L156 70a39.14 39.14 0 00-24.1.06 39.68 39.68 0 01-24.64 0 39.1 39.1 0 00-24.18 0l-.31.1A39.48 39.48 0 0167.66 72v-.09-.43a38.94 38.94 0 0014.89-1.8l.31-.1a39.67 39.67 0 0124.5 0 39.16 39.16 0 0024.27 0 39.72 39.72 0 0124.47-.07l.53.17A37.06 37.06 0 00162 71a3.19 3.19 0 010 .52z"/><path d="M162 72.65v.53a39.21 39.21 0 01-5.54-1.34l-.53-.17a39.14 39.14 0 00-24.1 0 39.75 39.75 0 01-24.64 0 39 39 0 00-24.18 0l-.31.1a39.51 39.51 0 01-15.07 1.82v-.52a39 39 0 0014.91-1.79l.31-.1a39.67 39.67 0 0124.5 0 39 39 0 0024.27 0 39.72 39.72 0 0124.47-.07l.53.17a37 37 0 005.38 1.37z"/><path d="M162 74.33v.52a37.92 37.92 0 01-5.54-1.35l-.53-.17a39.14 39.14 0 00-24.1 0 39.75 39.75 0 01-24.64 0 39.1 39.1 0 00-24.18 0l-.31.1a39.51 39.51 0 01-15.07 1.82v-.51A38.85 38.85 0 0082.57 73l.31-.1a39.6 39.6 0 0124.5 0 39.16 39.16 0 0024.27 0 39.58 39.58 0 0124.47-.07l.53.17a38.39 38.39 0 005.35 1.33z"/><path d="M162 76v.52a37.92 37.92 0 01-5.54-1.35L156 75a39.14 39.14 0 00-24.1.05 39.6 39.6 0 01-24.64 0A39.17 39.17 0 0083 75l-.31.11A39.68 39.68 0 0167.66 77v-.51a38.85 38.85 0 0014.91-1.8l.31-.1a39.6 39.6 0 0124.5 0 39.16 39.16 0 0024.27 0 39.72 39.72 0 0124.47-.07l.53.17A38.39 38.39 0 00162 76z"/><path d="M162 77.64v.53a37.92 37.92 0 01-5.54-1.35l-.53-.17a39.21 39.21 0 00-24.1.06 39.68 39.68 0 01-24.64 0A39.1 39.1 0 0083 76.7l-.31.1a39.48 39.48 0 01-15.07 1.82v-.52a39 39 0 0014.91-1.79l.31-.11a39.74 39.74 0 0124.5 0 39.16 39.16 0 0024.27 0 39.72 39.72 0 0124.47-.07l.53.17a37 37 0 005.39 1.34z"/><path d="M162 79.31v.52a39.21 39.21 0 01-5.54-1.34l-.53-.17a39.14 39.14 0 00-24.1.05 39.75 39.75 0 01-24.64 0 39 39 0 00-24.18 0l-.31.1a39.51 39.51 0 01-15.07 1.82v-.52A39 39 0 0082.57 78l.31-.1a39.6 39.6 0 0124.5 0 39.16 39.16 0 0024.27 0 39.65 39.65 0 0124.47-.08l.53.18a37 37 0 005.35 1.31z"/><path d="M162 81v.52a37.92 37.92 0 01-5.54-1.35L156 80a39.14 39.14 0 00-24.1 0 39.6 39.6 0 01-24.64 0A39.17 39.17 0 0083 80l-.31.1a39.51 39.51 0 01-15.07 1.82v-.51a38.85 38.85 0 0014.91-1.8l.31-.1a39.6 39.6 0 0124.5 0 39.16 39.16 0 0024.27 0 39.58 39.58 0 0124.47-.07l.53.17A38.39 38.39 0 00162 81z"/><path d="M162 82.64v.52a37.92 37.92 0 01-5.54-1.35l-.53-.17a39.06 39.06 0 00-24.1.06 39.68 39.68 0 01-24.64 0 39.17 39.17 0 00-24.18 0l-.31.11a39.48 39.48 0 01-15.07 1.82v-.52a38.85 38.85 0 0014.91-1.8l.31-.1a39.6 39.6 0 0124.5 0 39.16 39.16 0 0024.27 0 39.72 39.72 0 0124.47-.07l.53.17a38.39 38.39 0 005.38 1.33z"/><path d="M162 84.29v.53a39.21 39.21 0 01-5.54-1.34l-.46-.18a39.21 39.21 0 00-24.1.06 39.68 39.68 0 01-24.64 0 39.1 39.1 0 00-24.18 0l-.31.1a39.51 39.51 0 01-15.07 1.82v-.52A39 39 0 0082.57 83l.31-.1a39.67 39.67 0 0124.5 0 39 39 0 0024.27 0 39.72 39.72 0 0124.47-.07l.53.17a37 37 0 005.35 1.29z"/><path d="M162 86v.53a37.92 37.92 0 01-5.54-1.35L156 85a39.14 39.14 0 00-24.1 0 39.75 39.75 0 01-24.64 0A39 39 0 0083 85l-.31.1a39.51 39.51 0 01-15.07 1.82v-.52a38.84 38.84 0 0014.91-1.79l.31-.1a39.6 39.6 0 0124.5 0 39.16 39.16 0 0024.27 0 39.58 39.58 0 0124.47-.07l.53.17A37 37 0 00162 86z"/><path d="M162 87.63v.52a37.92 37.92 0 01-5.54-1.35l-.53-.17a39.14 39.14 0 00-24.1.05 39.6 39.6 0 01-24.64 0 39.17 39.17 0 00-24.18 0l-.31.1a39.51 39.51 0 01-15.07 1.82v-.51a38.85 38.85 0 0014.91-1.8l.31-.1a39.6 39.6 0 0124.5 0 39.16 39.16 0 0024.27 0 39.72 39.72 0 0124.47-.07l.53.17a38.39 38.39 0 005.38 1.34z"/><path d="M162 89.29v.52a37.92 37.92 0 01-5.54-1.35l-.53-.17a39.14 39.14 0 00-24.1.06 39.68 39.68 0 01-24.64 0 39.1 39.1 0 00-24.18 0l-.31.1a39.48 39.48 0 01-15.07 1.82v-.52a38.85 38.85 0 0014.91-1.8l.31-.1a39.6 39.6 0 0124.5 0 39.16 39.16 0 0024.27 0 39.72 39.72 0 0124.47-.07l.53.17a38.39 38.39 0 005.38 1.34z"/><path d="M162 90.94v.53a39.21 39.21 0 01-5.54-1.34L156 90a39.14 39.14 0 00-24.1.05 39.68 39.68 0 01-24.64 0A39.1 39.1 0 0083 90l-.31.1a39.51 39.51 0 01-15.07 1.82v-.52a39 39 0 0014.91-1.79l.31-.1a39.67 39.67 0 0124.5 0 39 39 0 0024.27 0 39.72 39.72 0 0124.47-.07l.53.17a37 37 0 005.39 1.33z"/><path d="M162 92.62v.52a37.92 37.92 0 01-5.54-1.35l-.53-.17a39.14 39.14 0 00-24.1 0 39.6 39.6 0 01-24.64 0 39.17 39.17 0 00-24.18 0l-.31.1a39.51 39.51 0 01-15.07 1.82v-.51a38.85 38.85 0 0014.91-1.8l.31-.1a39.6 39.6 0 0124.5 0 39.16 39.16 0 0024.27 0 39.58 39.58 0 0124.47-.07l.53.17a38.39 38.39 0 005.38 1.39z"/><path d="M162 94.28v.52a37.92 37.92 0 01-5.54-1.35l-.53-.17a39.06 39.06 0 00-24.1.06 39.68 39.68 0 01-24.64 0 39.17 39.17 0 00-24.18 0l-.31.11a39.68 39.68 0 01-15.07 1.81v-.51a38.85 38.85 0 0014.91-1.8l.31-.1a39.6 39.6 0 0124.5 0 39.16 39.16 0 0024.27 0 39.72 39.72 0 0124.47-.07l.53.17a38.39 38.39 0 005.38 1.33z"/><path d="M162 95.93v.53a37.92 37.92 0 01-5.54-1.35l-.53-.17a39.14 39.14 0 00-24.1.06 39.68 39.68 0 01-24.64 0A39.1 39.1 0 0083 95l-.31.1a39.48 39.48 0 01-15.07 1.82v-.52a39 39 0 0014.95-1.8l.31-.11a39.67 39.67 0 0124.5 0 39.09 39.09 0 0024.27 0 39.72 39.72 0 0124.47-.07l.53.17a37 37 0 005.35 1.34z"/><path d="M162 97.6v.52a39.21 39.21 0 01-5.54-1.34l-.53-.17a39.14 39.14 0 00-24.1 0 39.75 39.75 0 01-24.64 0 39 39 0 00-24.18 0l-.31.1a39.51 39.51 0 01-15.07 1.82v-.52a39 39 0 0014.91-1.79l.31-.1a39.67 39.67 0 0124.5 0 39 39 0 0024.27 0 39.72 39.72 0 0124.47-.07l.53.18A37 37 0 00162 97.6z"/><path d="M162 99.27v.52a37.92 37.92 0 01-5.54-1.35l-.53-.17a39.14 39.14 0 00-24.1 0 39.6 39.6 0 01-24.64 0 39.17 39.17 0 00-24.18 0l-.31.1a39.51 39.51 0 01-15.07 1.82v-.51a38.85 38.85 0 0014.91-1.8l.31-.1a39.6 39.6 0 0124.5 0 39.16 39.16 0 0024.27 0 39.58 39.58 0 0124.47-.07l.53.17a38.39 38.39 0 005.38 1.39z"/><path d="M162 100.93v.52a37.92 37.92 0 01-5.54-1.35l-.53-.17a39.06 39.06 0 00-24.1.06 39.68 39.68 0 01-24.64 0A39.17 39.17 0 0083 100l-.31.11a39.48 39.48 0 01-15.07 1.82v-.52a38.85 38.85 0 0014.91-1.8l.31-.1a39.6 39.6 0 0124.5 0 39.16 39.16 0 0024.27 0 39.72 39.72 0 0124.47-.07l.53.17a38.39 38.39 0 005.39 1.32z"/><path d="M162 102.58v.53a39.21 39.21 0 01-5.54-1.34l-.53-.18a39.21 39.21 0 00-24.1.06 39.68 39.68 0 01-24.64 0 39.1 39.1 0 00-24.18 0l-.31.1a39.51 39.51 0 01-15.07 1.82V103a39 39 0 0014.91-1.79l.31-.1a39.67 39.67 0 0124.5 0 39 39 0 0024.27 0 39.72 39.72 0 0124.47-.07l.53.17a37 37 0 005.38 1.37z"/><path d="M162 104.25v.52a39.21 39.21 0 01-5.54-1.34l-.53-.17a39.14 39.14 0 00-24.1 0 39.75 39.75 0 01-24.64 0 39 39 0 00-24.18 0l-.31.1a39.51 39.51 0 01-15.07 1.82v-.52a38.84 38.84 0 0014.91-1.79l.31-.1a39.6 39.6 0 0124.5 0 39.16 39.16 0 0024.27 0 39.58 39.58 0 0124.47-.07l.53.17a37 37 0 005.38 1.38z"/><path d="M162 105.92v.52a37.92 37.92 0 01-5.54-1.35l-.53-.17a39.14 39.14 0 00-24.1 0 39.6 39.6 0 01-24.64 0A39.17 39.17 0 0083 105l-.31.1a39.51 39.51 0 01-15.07 1.82v-.51a38.85 38.85 0 0014.91-1.8l.31-.1a39.6 39.6 0 0124.5 0 39.16 39.16 0 0024.27 0 39.72 39.72 0 0124.47-.07l.53.17a38.39 38.39 0 005.39 1.31z"/><path d="M162 107.58v.52a37.92 37.92 0 01-5.54-1.35l-.53-.17a39.14 39.14 0 00-24.1.06 39.68 39.68 0 01-24.64 0 39.1 39.1 0 00-24.18 0l-.31.1a39.48 39.48 0 01-15.07 1.82V108a38.85 38.85 0 0014.91-1.8l.31-.1a39.6 39.6 0 0124.5 0 39.16 39.16 0 0024.27 0 39.72 39.72 0 0124.47-.07l.53.17a38.39 38.39 0 005.38 1.38z"/><path d="M162 109.23v.53a39.21 39.21 0 01-5.54-1.34l-.53-.17a39.14 39.14 0 00-24.1 0 39.75 39.75 0 01-24.64 0 39 39 0 00-24.18 0l-.31.1a39.51 39.51 0 01-15.07 1.82v-.52a39 39 0 0014.91-1.79l.31-.1a39.67 39.67 0 0124.5 0 39 39 0 0024.27 0 39.72 39.72 0 0124.47-.07l.53.17a37 37 0 005.38 1.37z"/><path d="M162 110.9v.53a37.92 37.92 0 01-5.54-1.35l-.53-.17a39.14 39.14 0 00-24.1 0 39.68 39.68 0 01-24.64 0A39.1 39.1 0 0083 110l-.31.1a39.51 39.51 0 01-15.07 1.82v-.52a38.84 38.84 0 0014.91-1.79l.31-.1a39.6 39.6 0 0124.5 0 39.16 39.16 0 0024.27 0 39.58 39.58 0 0124.47-.07l.53.17a37 37 0 005.39 1.29z"/><path d="M162 112.57v.52a37.92 37.92 0 01-5.54-1.35l-.53-.17a39.06 39.06 0 00-24.1.06 39.68 39.68 0 01-24.64 0 39.17 39.17 0 00-24.18 0l-.31.1a39.51 39.51 0 01-15.07 1.82V113a38.85 38.85 0 0014.91-1.8l.31-.1a39.6 39.6 0 0124.5 0 39.16 39.16 0 0024.27 0 39.72 39.72 0 0124.47-.07l.53.17a38.39 38.39 0 005.38 1.37z"/><path d="M162 114.22v.53a37.92 37.92 0 01-5.54-1.35l-.53-.17a39.21 39.21 0 00-24.1.06 39.68 39.68 0 01-24.64 0 39.1 39.1 0 00-24.18 0l-.31.1a39.48 39.48 0 01-15.07 1.82v-.52a39 39 0 0014.91-1.79l.31-.11a39.6 39.6 0 0124.5 0 39.16 39.16 0 0024.27 0 39.72 39.72 0 0124.47-.07l.53.17a37 37 0 005.38 1.33z"/><path d="M162 115.89v.52a39.21 39.21 0 01-5.54-1.34l-.53-.17a39.14 39.14 0 00-24.1 0 39.75 39.75 0 01-24.64 0 39 39 0 00-24.18 0l-.31.1a39.51 39.51 0 01-15.07 1.82v-.52a39 39 0 0014.91-1.79l.31-.1a39.67 39.67 0 0124.5 0 39 39 0 0024.27 0 39.72 39.72 0 0124.47-.07l.53.18a37 37 0 005.38 1.37z"/><path d="M162 117.56v.52a37.92 37.92 0 01-5.54-1.35l-.53-.17a39.14 39.14 0 00-24.1 0 39.6 39.6 0 01-24.64 0 39.17 39.17 0 00-24.18 0l-.31.1a39.51 39.51 0 01-15.07 1.82V118a38.85 38.85 0 0014.91-1.8l.31-.1a39.6 39.6 0 0124.5 0 39.16 39.16 0 0024.27 0 39.58 39.58 0 0124.47-.07l.53.17a38.39 38.39 0 005.38 1.36z"/><path d="M162 119.22v.52a37.92 37.92 0 01-5.54-1.35l-.53-.17a39.06 39.06 0 00-24.1.06 39.68 39.68 0 01-24.64 0 39.17 39.17 0 00-24.18 0l-.31.11a39.28 39.28 0 01-15.07 1.81v-.51a38.85 38.85 0 0014.91-1.8l.31-.1a39.6 39.6 0 0124.5 0 39.16 39.16 0 0024.27 0 39.72 39.72 0 0124.47-.07l.53.17a38.39 38.39 0 005.38 1.33z"/><path d="M162 120.87v.53a38.88 38.88 0 01-5.54-1.34l-.53-.18a39.21 39.21 0 00-24.1.06 39.68 39.68 0 01-24.64 0 39.1 39.1 0 00-24.18 0l-.31.1a39.51 39.51 0 01-15.07 1.82v-.52a39 39 0 0014.91-1.79l.31-.11a39.74 39.74 0 0124.5 0 39 39 0 0024.27 0 39.72 39.72 0 0124.47-.07l.53.17a37 37 0 005.38 1.33z"/><path d="M162 122.54v.52a39.21 39.21 0 01-5.54-1.34l-.53-.17a39.14 39.14 0 00-24.1 0 39.75 39.75 0 01-24.64 0 39 39 0 00-24.18 0l-.31.1a39.51 39.51 0 01-15.07 1.82V123a38.84 38.84 0 0014.91-1.79l.31-.1a39.6 39.6 0 0124.5 0 39.16 39.16 0 0024.27 0 39.65 39.65 0 0124.47-.08l.53.18a37 37 0 005.38 1.33z"/><path d="M162 124.21v.52a37.92 37.92 0 01-5.54-1.35l-.53-.17a39.14 39.14 0 00-24.1.05 39.6 39.6 0 01-24.64 0 39.17 39.17 0 00-24.18 0l-.31.1a39.51 39.51 0 01-15.07 1.82v-.51a38.85 38.85 0 0014.91-1.8l.31-.1a39.6 39.6 0 0124.5 0 39.16 39.16 0 0024.27 0 39.72 39.72 0 0124.47-.07l.53.17a38.39 38.39 0 005.38 1.34z"/><path d="M162 125.87v.52a37.92 37.92 0 01-5.54-1.35l-.53-.17a39.06 39.06 0 00-24.1.06 39.68 39.68 0 01-24.64 0 39.1 39.1 0 00-24.18 0l-.31.1a39.48 39.48 0 01-15.07 1.82v-.52a38.85 38.85 0 0014.91-1.8l.31-.1a39.6 39.6 0 0124.5 0 39.16 39.16 0 0024.27 0 39.72 39.72 0 0124.47-.07l.53.17a38.39 38.39 0 005.38 1.34z"/><path d="M162 127.52v.53a39.21 39.21 0 01-5.54-1.34l-.53-.17a39.14 39.14 0 00-24.1 0 39.68 39.68 0 01-24.64 0 39.1 39.1 0 00-24.18 0l-.31.1a39.51 39.51 0 01-15.07 1.82V128a39 39 0 0014.91-1.79l.31-.1a39.67 39.67 0 0124.5 0 39 39 0 0024.27 0 39.72 39.72 0 0124.47-.07l.53.17a37 37 0 005.38 1.31z"/><path d="M162 129.2v.52a37.92 37.92 0 01-5.54-1.35l-.53-.17a39.14 39.14 0 00-24.1.05 39.68 39.68 0 01-24.64 0 39 39 0 00-24.18 0l-.31.1a39.51 39.51 0 01-15.07 1.82v-.51a38.85 38.85 0 0014.91-1.8l.31-.1a39.6 39.6 0 0124.5 0 39.16 39.16 0 0024.27 0 39.58 39.58 0 0124.47-.07l.53.17a38.39 38.39 0 005.38 1.34z"/><path d="M162 130.86v.52a37.92 37.92 0 01-5.54-1.35l-.53-.17a39.14 39.14 0 00-24.1 0 39.6 39.6 0 01-24.64 0 39.17 39.17 0 00-24.18 0l-.31.1a39.51 39.51 0 01-15.07 1.82v-.51a38.85 38.85 0 0014.91-1.8l.31-.1a39.6 39.6 0 0124.5 0 39.16 39.16 0 0024.27 0 39.72 39.72 0 0124.47-.07l.53.17a38.39 38.39 0 005.38 1.39z"/><path d="M162 132.51v.49a37.92 37.92 0 01-5.54-1.35l-.53-.17a39.14 39.14 0 00-24.1.06 39.68 39.68 0 01-24.64 0 39.1 39.1 0 00-24.18 0l-.31.1a39.48 39.48 0 01-15.07 1.82V133a39 39 0 0014.91-1.79l.31-.11a39.6 39.6 0 0124.5 0 39.16 39.16 0 0024.27 0 39.72 39.72 0 0124.47-.07l.53.17a37 37 0 005.38 1.31z"/><path d="M162 134.18v.52a39.21 39.21 0 01-5.54-1.34l-.53-.17a39.14 39.14 0 00-24.1.05 39.75 39.75 0 01-24.64 0 39 39 0 00-24.18 0l-.31.1a39.51 39.51 0 01-15.07 1.82v-.52a39 39 0 0014.91-1.79l.31-.1a39.67 39.67 0 0124.5 0 39 39 0 0024.27 0 39.72 39.72 0 0124.47-.07l.53.18a37 37 0 005.38 1.32z"/><path d="M162 135.85v.52a37.92 37.92 0 01-5.54-1.35l-.53-.17a39.14 39.14 0 00-24.1.05 39.68 39.68 0 01-24.64 0 39.17 39.17 0 00-24.18 0l-.31.1a39.51 39.51 0 01-15.07 1.82v-.51a38.85 38.85 0 0014.91-1.8l.31-.1a39.6 39.6 0 0124.5 0 39.16 39.16 0 0024.27 0 39.58 39.58 0 0124.47-.07l.53.17a38.39 38.39 0 005.38 1.34z"/><path d="M162 137.51v.49a37.92 37.92 0 01-5.54-1.35l-.53-.17a39.06 39.06 0 00-24.1.06 39.68 39.68 0 01-24.64 0 39.17 39.17 0 00-24.18 0l-.31.11a39.7 39.7 0 01-15.07 1.81V138a38.85 38.85 0 0014.91-1.8l.31-.1a39.6 39.6 0 0124.5 0 39.16 39.16 0 0024.27 0 39.72 39.72 0 0124.47-.07l.53.17a38.39 38.39 0 005.38 1.31z"/><path d="M162 139.16v.53a39.21 39.21 0 01-5.54-1.34l-.53-.18a39.14 39.14 0 00-24.1.06 39.68 39.68 0 01-24.64 0 39.1 39.1 0 00-24.18 0l-.31.1a39.51 39.51 0 01-15.07 1.82v-.52a39 39 0 0014.91-1.79l.31-.11a39.67 39.67 0 0124.5 0 39 39 0 0024.27 0 39.72 39.72 0 0124.47-.07l.53.17a37 37 0 005.38 1.33z"/><path d="M162 140.83v.52a39.21 39.21 0 01-5.54-1.34l-.53-.17a39.14 39.14 0 00-24.1 0 39.75 39.75 0 01-24.64 0 39.1 39.1 0 00-24.18 0l-.31.1a39.51 39.51 0 01-15.07 1.82v-.52a39 39 0 0014.91-1.79l.31-.1a39.6 39.6 0 0124.5 0 39.16 39.16 0 0024.27 0 39.65 39.65 0 0124.47-.08l.53.18a37 37 0 005.38 1.38z"/><path d="M162 142.5v.5a37.92 37.92 0 01-5.54-1.35l-.53-.17a39.14 39.14 0 00-24.1.05 39.6 39.6 0 01-24.64 0 39.17 39.17 0 00-24.18 0l-.31.1a39.51 39.51 0 01-15.07 1.82V143a38.85 38.85 0 0014.91-1.8l.31-.1a39.6 39.6 0 0124.5 0 39.16 39.16 0 0024.27 0 39.58 39.58 0 0124.47-.07l.53.17a38.39 38.39 0 005.38 1.3z"/><path d="M162 144.16v.52a37.92 37.92 0 01-5.54-1.35l-.53-.17a39.14 39.14 0 00-24.1.06 39.68 39.68 0 01-24.64 0 39.17 39.17 0 00-24.18 0l-.31.11a39.48 39.48 0 01-15.07 1.82v-.52a38.85 38.85 0 0014.91-1.8l.31-.1a39.6 39.6 0 0124.5 0 39.16 39.16 0 0024.27 0 39.72 39.72 0 0124.47-.07l.53.17a38.39 38.39 0 005.38 1.33z"/><path d="M162 145.81v.53a39.21 39.21 0 01-5.54-1.34l-.53-.17a39.14 39.14 0 00-24.1 0 39.68 39.68 0 01-24.64 0 39.1 39.1 0 00-24.18 0l-.31.1a39.51 39.51 0 01-15.07 1.82v-.52a39 39 0 0014.91-1.79l.31-.1a39.67 39.67 0 0124.5 0 39 39 0 0024.27 0 39.72 39.72 0 0124.47-.07l.53.17a37 37 0 005.38 1.37z"/><path d="M162 147.48v.52a37.92 37.92 0 01-5.54-1.35l-.53-.17a39.14 39.14 0 00-24.1 0 39.6 39.6 0 01-24.64 0 39 39 0 00-24.18 0l-.31.1a39.51 39.51 0 01-15.07 1.82v-.52a38.84 38.84 0 0014.91-1.79l.31-.1a39.6 39.6 0 0124.5 0 39.16 39.16 0 0024.27 0 39.58 39.58 0 0124.47-.07l.53.17a37 37 0 005.38 1.39z"/><path d="M162 149.15v.52a37.92 37.92 0 01-5.54-1.35l-.53-.17a39.14 39.14 0 00-24.1 0 39.6 39.6 0 01-24.64 0 39.17 39.17 0 00-24.18 0l-.31.1a39.51 39.51 0 01-15.07 1.82v-.51a38.85 38.85 0 0014.91-1.8l.31-.1a39.6 39.6 0 0124.5 0 39.16 39.16 0 0024.27 0 39.72 39.72 0 0124.47-.07l.53.17a38.39 38.39 0 005.38 1.39z"/><path d="M162 150.8v.53a37.92 37.92 0 01-5.54-1.35l-.53-.17a39.14 39.14 0 00-24.1.06 39.68 39.68 0 01-24.64 0 39.1 39.1 0 00-24.18 0l-.31.1a39.48 39.48 0 01-15.07 1.82v-.52a39 39 0 0014.91-1.79l.31-.11a39.6 39.6 0 0124.5 0 39.16 39.16 0 0024.27 0 39.72 39.72 0 0124.47-.07l.53.17a37 37 0 005.38 1.33z"/><path d="M162 152.46v.54a39.21 39.21 0 01-5.54-1.34l-.53-.17a39.14 39.14 0 00-24.1.05 39.75 39.75 0 01-24.64 0 39 39 0 00-24.18 0l-.31.1a39.51 39.51 0 01-15.07 1.82v-.52a39 39 0 0014.91-1.79l.31-.1a39.67 39.67 0 0124.5 0 39 39 0 0024.27 0 39.72 39.72 0 0124.47-.07l.53.17a37 37 0 005.38 1.31z"/><path d="M162 154.14v.1a3 3 0 010 .42 37.66 37.66 0 01-5.52-1.35l-.53-.17a39.14 39.14 0 00-24.1.05 39.6 39.6 0 01-24.64 0 39.17 39.17 0 00-24.18 0l-.31.1a39.75 39.75 0 01-15 1.83 3 3 0 010-.52 38.94 38.94 0 0014.89-1.8l.31-.1a39.6 39.6 0 0124.5 0 39.16 39.16 0 0024.27 0 39.58 39.58 0 0124.47-.07l.53.17a38.39 38.39 0 005.31 1.34z"/><path d="M161.83 155.76a4.13 4.13 0 01-.15.5 38.58 38.58 0 01-5.19-1.29l-.53-.17a39.06 39.06 0 00-24.1.06 39.68 39.68 0 01-24.64 0 39.17 39.17 0 00-24.18 0l-.31.11a39.59 39.59 0 01-14.5 1.85 4.87 4.87 0 01-.21-.53 38.8 38.8 0 0014.55-1.82l.31-.1a39.6 39.6 0 0124.5 0 39.16 39.16 0 0024.27 0 39.72 39.72 0 0124.47-.07l.53.17a37 37 0 005.18 1.29z"/><path d="M161.18 157.3a2.72 2.72 0 01-.31.47 39.1 39.1 0 01-4.38-1.13l-.53-.18a39.21 39.21 0 00-24.1.06 39.68 39.68 0 01-24.64 0 39.1 39.1 0 00-24.18 0l-.31.1a39.55 39.55 0 01-13.27 1.91A4.88 4.88 0 0169 158a39.14 39.14 0 0013.59-1.87l.31-.11a39.67 39.67 0 0124.5 0 39.09 39.09 0 0024.27 0 39.72 39.72 0 0124.47-.07l.53.17a37.61 37.61 0 004.51 1.18z"/><path d="M160 158.72a5.3 5.3 0 01-.52.42q-1.52-.36-3-.84l-.53-.17a39.14 39.14 0 00-24.1.05 39.75 39.75 0 01-24.64 0 39 39 0 00-24.18 0l-.31.1a38.94 38.94 0 01-10.15 1.87 5.66 5.66 0 01-1.46-.47 38.46 38.46 0 0011.45-1.89l.31-.1a39.6 39.6 0 0124.5 0 39.16 39.16 0 0024.27 0 39.65 39.65 0 0124.47-.08l.53.18a32.68 32.68 0 003.36.93z"/><path d="M107.38 159.37q1.52.49 3.06.87h-2l-1.23-.38a39.17 39.17 0 00-24.18 0l-.31.1c-.34.11-.68.22-1 .31h-2c1-.23 1.9-.5 2.83-.8l.31-.1a39.6 39.6 0 0124.52 0zM158 159.89a4.91 4.91 0 01-.95.25c-.2 0-.4-.12-.6-.18l-.53-.17a39.14 39.14 0 00-24.1.05c-.43.14-.87.28-1.31.4h-2q1.54-.37 3.06-.87a39.58 39.58 0 0124.47-.07l.53.17c.54.15 1.01.29 1.43.42z"/><path d="M104.64 160.24h-2.45a39.46 39.46 0 00-14.21 0h-2.46a39.64 39.64 0 0119.12 0zM153.57 160.24h-2.41a39.17 39.17 0 00-14.32 0h-2.43a39.56 39.56 0 0119.16 0z"/><path d="M162 71.88v82.36a3 3 0 010 .42 5 5 0 01-.18 1.1 4.13 4.13 0 01-.15.5 5 5 0 01-.5 1 2.72 2.72 0 01-.31.47 5.17 5.17 0 01-.86.95 5.3 5.3 0 01-.52.42 5.54 5.54 0 01-1.45.75 4.91 4.91 0 01-.95.25 5.29 5.29 0 01-1.06.1H73.66a5.49 5.49 0 01-1.08-.1 5.66 5.66 0 01-1.46-.47 6 6 0 01-1.66-1.15A4.88 4.88 0 0169 158a5.43 5.43 0 01-.75-1.19 4.87 4.87 0 01-.21-.53 5.06 5.06 0 01-.29-1.16 3 3 0 010-.52 2 2 0 010-.35V71.88v-.43a5.23 5.23 0 01.19-1.13 3.33 3.33 0 01.16-.51 5.22 5.22 0 01.55-1.11 3.91 3.91 0 01.34-.49 5.65 5.65 0 011.16-1.13 5.83 5.83 0 013.58-1.2H156a6 6 0 013.8 1.36 5.46 5.46 0 01.69.67 5.93 5.93 0 01.89 1.31 4.87 4.87 0 01.24.57A5.34 5.34 0 01162 71a3.19 3.19 0 010 .54 2.17 2.17 0 010 .34z" fill="none"/><rect class="cls-3" x="62.6" y="61.25" width="94.36" height="94.36" rx="6"/><path class="cls-4" d="M143.62 93.82a5.53 5.53 0 00-3.71-1.5l-10.81.12a25.8 25.8 0 10.6 33.48H140a5.2 5.2 0 005.19-5.19V97.51a5.13 5.13 0 00-1.57-3.69zm-46.47-4.29l2.79 4.83a18.22 18.22 0 00-5.11 5L90 96.55a23.7 23.7 0 017.15-7.02zm-8.25 8.86l4.89 2.83a17.87 17.87 0 00-2 6.89h-5.61a23.52 23.52 0 012.72-9.72zm-2.75 11.87h5.62a18 18 0 001.75 7l-4.87 2.81a23.39 23.39 0 01-2.5-9.81zM89.7 122l4.84-2.8a18.22 18.22 0 005.11 5.31l-2.79 4.83A23.77 23.77 0 0189.7 122zm19 11.14a23.38 23.38 0 01-10-2.71l2.82-4.89a17.9 17.9 0 007.13 2zm0-41.6a18.05 18.05 0 00-6.84 1.81L99 88.46a23.69 23.69 0 019.66-2.57zm19.07 16.58a17.81 17.81 0 00-2-6.93l4.9-2.83a23.37 23.37 0 012.73 9.76zm5.69 2.15a23.55 23.55 0 01-2.52 9.9l-4.94-2.82a18 18 0 001.78-7.09zm-3.88-13.75l-4.88 2.78a18.1 18.1 0 00-5.15-5l2.79-4.84a23.78 23.78 0 017.2 7.05zm-18.77-10.63a23.5 23.5 0 019.67 2.53l-2.81 4.88a18 18 0 00-6.86-1.78zm0 47.25v-5.64a17.71 17.71 0 007.14-1.93l2.83 4.89a23.63 23.63 0 01-9.97 2.68zm11.82-3.77l-2.79-4.82a18.26 18.26 0 005.16-5.31l4.84 2.79a23.93 23.93 0 01-7.21 7.34zm20.37-8.64a3 3 0 01-3 3h-8.7a25.67 25.67 0 00-.48-29.2l9.14-.1a3 3 0 012.18.87 3 3 0 01.9 2.17z"/><circle class="cls-4" cx="138.73" cy="99.04" r="1.07"/><circle class="cls-4" cx="138.73" cy="108.44" r="1.07"/><circle class="cls-4" cx="138.73" cy="119.33" r="1.07"/><path class="cls-3" d="M124.41 108.2h-7a7.64 7.64 0 00-1.61-3.67l5-5a1 1 0 000-1.4 1 1 0 00-1.4 0l-5 5a7.6 7.6 0 00-3.65-1.47v-7.15a1 1 0 00-2 0v7.17a7.6 7.6 0 00-3.65 1.47l-5-5a1 1 0 00-1.39 0 1 1 0 000 1.4l5 5a7.73 7.73 0 00-1.61 3.67h-7a1 1 0 100 2h7a7.66 7.66 0 001.48 3.83l-4.86 4.86a1 1 0 101.39 1.4l4.85-4.85a7.75 7.75 0 003.84 1.63v6.82a1 1 0 002 0V117a7.67 7.67 0 003.84-1.63l4.85 4.85a1 1 0 00.7.29 1 1 0 00.7-.29 1 1 0 000-1.4l-4.95-4.82a7.67 7.67 0 001.49-3.83h7a1 1 0 000-2z"/><path class="cls-4" d="M74.89 124a1.08 1.08 0 01-1.08-1V95.41a1.08 1.08 0 012.15 0V123a1.08 1.08 0 01-1.07 1z"/></g></g></svg>