<svg width="47" height="47" fill="none" xmlns="http://www.w3.org/2000/svg"><g clip-path="url(#clip0)"><path d="M23.45 46.899c12.95 0 23.449-10.499 23.449-23.45C46.899 10.5 36.4 0 23.449 0 10.5 0 0 10.499 0 23.45 0 36.4 10.499 46.898 23.45 46.898z" fill="#FDC500"/><path d="M25.389 9.171a10.327 10.327 0 01-3.858.179c.166-.03.334-.057.504-.078.951.09 1.91.046 2.85-.133.167.009.337.02.503.032z" fill="#000"/><path d="M26.473 9.295a5.2 5.2 0 00-.257.078c-1.855.61-3.846.683-5.742.21.097-.025.196-.049.292-.07 1.785.396 3.643.303 5.379-.268l.328.05z" fill="#000"/><path d="M27.48 9.482c-.432.08-.857.189-1.274.325a10.339 10.339 0 01-6.427 0l-.082-.025.233-.07a10.21 10.21 0 006.221-.033c.327-.108.66-.198.996-.27.112.024.22.045.332.073z" fill="#000"/><path d="M28.574 9.77a9.951 9.951 0 00-2.374.47c-2.088.683-4.34.683-6.427 0a9.292 9.292 0 00-.786-.222c.076-.03.151-.055.227-.08.21.05.403.11.6.174 2.057.673 4.274.673 6.331 0a10.222 10.222 0 012.082-.447l.347.105z" fill="#000"/><path d="M29.767 10.18c-1.21-.049-2.42.119-3.572.495a10.34 10.34 0 01-6.427 0 10.017 10.017 0 00-1.525-.372l.246-.09c.452.082.897.195 1.334.338 2.057.67 4.273.67 6.33 0a10.293 10.293 0 013.236-.514l.378.142z" fill="#000"/><path d="M31.02 10.74a10.188 10.188 0 00-4.814.368 10.34 10.34 0 01-6.427 0 9.958 9.958 0 00-2.28-.462c.078-.04.158-.076.236-.114.709.076 1.408.226 2.086.448 2.057.672 4.274.672 6.33 0 1.44-.471 2.967-.62 4.471-.437.135.065.263.13.397.198z" fill="#000"/><path d="M32.326 11.478a10.19 10.19 0 00-6.12.065 10.338 10.338 0 01-6.427 0 10.04 10.04 0 00-3.04-.502 5.17 5.17 0 01.237-.128c.968.03 1.925.2 2.845.502 2.057.67 4.273.67 6.33 0a10.335 10.335 0 015.749-.21c.142.097.285.183.426.273z" fill="#000"/><path d="M33.406 12.222a11.863 11.863 0 01-.767-.21l-.139-.045a10.207 10.207 0 00-6.288.013 10.34 10.34 0 01-6.427 0 10.107 10.107 0 00-3.817-.479c.08-.053.16-.103.241-.151a10.326 10.326 0 013.604.502c2.056.672 4.273.672 6.33 0a10.343 10.343 0 016.385-.017l.138.044c.143.046.286.088.42.126.11.07.217.143.32.217z" fill="#000"/><path d="M34.112 12.797c-.499-.08-.99-.2-1.47-.357l-.14-.044a10.207 10.207 0 00-6.288.014 10.34 10.34 0 01-6.427 0 10.17 10.17 0 00-4.546-.42c.075-.056.153-.111.23-.164a10.315 10.315 0 014.358.446c2.057.67 4.274.67 6.33 0a10.343 10.343 0 016.386-.02l.138.045c.404.132.817.237 1.236.313.059.072.128.128.193.187z" fill="#000"/><path d="M35.158 13.783a10.04 10.04 0 01-2.52-.475l-.14-.044a10.207 10.207 0 00-6.288.014 10.353 10.353 0 01-6.427 0 10.188 10.188 0 00-5.977-.109c.071-.067.145-.134.21-.21a10.334 10.334 0 015.799.18c2.057.671 4.273.671 6.33 0a10.342 10.342 0 016.385-.018l.139.044c.76.246 1.547.4 2.344.458.053.063.101.112.145.16z" fill="#000"/><path d="M35.58 14.234c-.999-.02-1.99-.185-2.941-.491l-.139-.044a10.207 10.207 0 00-6.288.012 10.338 10.338 0 01-6.427 0 10.217 10.217 0 00-6.303 0l-.08.025a4.824 4.824 0 01-.23.07l.194-.21.074-.023a10.345 10.345 0 016.396 0c2.056.672 4.273.672 6.33 0a10.358 10.358 0 016.385-.02l.138.047c.9.29 1.836.452 2.78.481.035.056.072.107.111.153z" fill="#000"/><path d="M35.954 14.667h-.157a10.247 10.247 0 01-3.164-.495l-.139-.045a10.207 10.207 0 00-6.288.015 10.34 10.34 0 01-6.427 0 10.202 10.202 0 00-6.303 0l-.08.027a7.515 7.515 0 01-.765.21c.053-.06.105-.121.16-.18a9.04 9.04 0 00.563-.164l.08-.027a10.345 10.345 0 016.395 0c2.057.67 4.274.67 6.33 0a10.343 10.343 0 016.386-.02l.138.045c1.024.33 2.093.495 3.169.49.029.056.075.1.102.144z" fill="#000"/><path d="M36.293 15.094c-.166 0-.33.012-.496.012-1.074 0-2.142-.166-3.164-.495l-.139-.045a10.207 10.207 0 00-6.288.013 10.339 10.339 0 01-6.427 0 10.218 10.218 0 00-6.303 0l-.08.025c-.397.13-.8.235-1.21.313l.134-.164c.347-.072.69-.164 1.028-.275l.08-.025a10.345 10.345 0 016.395 0c2.056.672 4.274.672 6.33 0a10.358 10.358 0 016.385-.019l.139.046c1.135.366 2.325.528 3.517.48l.099.134z" fill="#000"/><path d="M36.602 15.508a10.247 10.247 0 01-3.969-.464l-.139-.045a10.207 10.207 0 00-6.288.015 10.339 10.339 0 01-6.427 0 10.203 10.203 0 00-6.303 0l-.08.027c-.518.17-1.048.297-1.586.38.038-.054.078-.107.117-.16.481-.079.955-.194 1.419-.344l.08-.027a10.345 10.345 0 016.395 0c2.057.67 4.273.67 6.33 0a10.343 10.343 0 016.385-.019l.139.044a10.13 10.13 0 003.832.462c.034.042.065.086.095.13z" fill="#000"/><path d="M36.885 15.915a10.31 10.31 0 01-4.252-.437l-.139-.044a10.207 10.207 0 00-6.288.013c-2.088.682-4.34.682-6.427 0a10.218 10.218 0 00-6.303 0l-.08.025a9.999 9.999 0 01-1.923.42c.034-.05.068-.099.106-.15a9.88 9.88 0 001.766-.405l.08-.025a10.345 10.345 0 016.396 0c2.056.673 4.274.673 6.33 0a10.358 10.358 0 016.385-.019l.139.046a10.15 10.15 0 004.122.438c.032.052.06.096.088.138z" fill="#000"/><path d="M37.146 16.317a10.247 10.247 0 01-4.513-.405l-.139-.045a10.207 10.207 0 00-6.288.015 10.339 10.339 0 01-6.427 0 10.203 10.203 0 00-6.303 0l-.08.027c-.722.235-1.467.388-2.223.456l.09-.145a9.797 9.797 0 002.101-.44l.061-.022a10.345 10.345 0 016.396 0c2.057.67 4.273.67 6.33 0a10.343 10.343 0 016.385-.02l.139.045c1.417.456 2.916.596 4.393.41l.078.123z" fill="#000"/><path d="M37.398 16.718a10.312 10.312 0 01-4.755-.372l-.138-.044a10.207 10.207 0 00-6.289.012c-2.088.683-4.339.683-6.427 0a10.218 10.218 0 00-6.303 0l-.08.026c-.815.262-1.66.42-2.514.468.027-.048.054-.094.084-.14.805-.06 1.601-.216 2.37-.467l.08-.023a10.347 10.347 0 016.395 0c2.056.672 4.274.672 6.33 0a10.359 10.359 0 016.385 0l.139.046c1.497.48 3.084.608 4.639.374.025.036.05.078.084.12z" fill="#000"/><path d="M37.608 17.113a10.247 10.247 0 01-4.977-.334l-.139-.044a10.207 10.207 0 00-6.288.014 10.339 10.339 0 01-6.427 0 10.203 10.203 0 00-6.303 0l-.08.027c-.884.289-1.803.454-2.731.492.023-.046.048-.092.073-.139a10.144 10.144 0 002.627-.48l.08-.028a10.347 10.347 0 016.395 0c2.057.67 4.273.67 6.33 0a10.344 10.344 0 016.368-.023l.139.044c1.571.505 3.242.621 4.868.338.023.049.046.09.065.133z" fill="#000"/><path d="M37.818 17.51a10.34 10.34 0 01-5.185-.297l-.139-.044a10.207 10.207 0 00-6.288.013c-2.088.683-4.34.683-6.427 0a10.218 10.218 0 00-6.303 0l-.08.025c-.961.313-1.964.481-2.975.498.02-.046.044-.092.07-.139a9.992 9.992 0 002.854-.49l.08-.024a10.345 10.345 0 016.396 0c2.056.672 4.274.672 6.33 0a10.358 10.358 0 016.385-.02l.139.047c1.64.526 3.389.629 5.08.298.024.041.045.085.063.133z" fill="#000"/><path d="M38.011 17.9c-1.783.395-3.64.307-5.378-.251l-.139-.044a10.207 10.207 0 00-6.288.014c-2.088.683-4.34.683-6.427 0a10.203 10.203 0 00-6.303 0l-.08.027a10.294 10.294 0 01-3.173.503c.02-.047.04-.09.063-.137a10.085 10.085 0 003.068-.494l.08-.027a10.345 10.345 0 016.395 0c2.057.67 4.274.67 6.33 0a10.342 10.342 0 016.386-.019l.138.044c1.706.55 3.527.638 5.278.259.013.042.031.084.05.126z" fill="#000"/><path d="M38.192 18.296c-1.837.439-3.76.366-5.56-.21l-.138-.045a10.207 10.207 0 00-6.288.013 10.338 10.338 0 01-6.427 0 10.218 10.218 0 00-6.303 0l-.08.025a10.186 10.186 0 01-3.362.498l.057-.132a10.1 10.1 0 003.261-.494l.08-.025a10.345 10.345 0 016.395 0c2.057.672 4.274.672 6.33 0a10.358 10.358 0 016.386-.019l.138.046c1.768.564 3.657.637 5.463.21l.048.133z" fill="#000"/><path d="M38.356 18.686c-1.886.484-3.87.424-5.723-.172l-.139-.044a10.206 10.206 0 00-6.288.015 10.34 10.34 0 01-6.427 0 10.202 10.202 0 00-6.303 0l-.08.027c-1.139.37-2.333.537-3.53.496l.05-.135a10.196 10.196 0 003.438-.49l.08-.027a10.345 10.345 0 016.395 0c2.057.67 4.274.67 6.33 0a10.343 10.343 0 016.386-.019l.138.045c1.824.586 3.775.646 5.631.174l.042.13z" fill="#000"/><path d="M38.51 19.081a10.309 10.309 0 01-5.877-.132l-.139-.044a10.207 10.207 0 00-6.288.013 10.34 10.34 0 01-6.427 0 10.217 10.217 0 00-6.303 0l-.08.025a10.234 10.234 0 01-3.683.487c.015-.044.03-.088.046-.13a10.123 10.123 0 003.595-.485l.08-.026a10.345 10.345 0 016.395 0c2.057.673 4.274.673 6.33 0a10.358 10.358 0 016.386-.018l.138.046c1.876.602 3.885.648 5.786.134.009.046.026.088.04.13z" fill="#000"/><path d="M38.659 19.476c-1.971.566-4.066.533-6.018-.094l-.138-.044a10.207 10.207 0 00-6.289.014 10.354 10.354 0 01-6.427 0 10.202 10.202 0 00-6.303 0l-.08.028a10.223 10.223 0 01-3.842.475l.044-.13a10.206 10.206 0 003.74-.478l.08-.027a10.345 10.345 0 016.395 0c2.057.67 4.273.67 6.33 0a10.343 10.343 0 016.385-.019l.139.044c1.923.618 3.987.651 5.929.095.017.05.032.092.055.136z" fill="#000"/><path d="M38.78 19.87a10.314 10.314 0 01-6.148-.052l-.138-.046a10.207 10.207 0 00-6.288.013 10.339 10.339 0 01-6.427 0 10.218 10.218 0 00-6.303 0l-.08.025a10.323 10.323 0 01-3.952.475c.013-.044.025-.088.04-.132a10.193 10.193 0 003.87-.47l.08-.026a10.345 10.345 0 016.395 0c2.057.672 4.274.672 6.33 0a10.358 10.358 0 016.386-.019l.138.046c1.97.633 4.084.651 6.064.055a.659.659 0 00.033.13z" fill="#000"/><path d="M38.898 20.268c-2.04.643-4.23.636-6.265-.019l-.139-.044a10.207 10.207 0 00-6.288.015c-2.088.68-4.339.68-6.427 0a10.202 10.202 0 00-6.303 0l-.08.027c-1.31.426-2.692.584-4.063.465 0-.044.023-.089.033-.133a10.217 10.217 0 003.992-.46l.08-.027a10.345 10.345 0 016.395 0c2.057.67 4.274.67 6.33 0a10.343 10.343 0 016.386-.02l.138.045c2.01.646 4.172.653 6.186.019l.025.132z" fill="#000"/><path d="M39.003 20.67h-.02a10.328 10.328 0 01-6.35 0l-.139-.045a10.207 10.207 0 00-6.288.013c-2.088.683-4.34.683-6.427 0a10.218 10.218 0 00-6.303 0l-.08.025a10.272 10.272 0 01-4.162.456c0-.044.019-.088.03-.132a10.184 10.184 0 004.082-.44l.08-.024a10.345 10.345 0 016.395 0c2.056.672 4.274.672 6.33 0a10.358 10.358 0 016.385-.02l.139.047c2.037.656 4.228.656 6.265 0h.03c.012.04.023.075.033.12z" fill="#000"/><path d="M39.1 21.073h-.036l-.082.027a10.347 10.347 0 01-6.35 0l-.138-.044a10.207 10.207 0 00-6.288.015c-2.088.68-4.339.68-6.427 0a10.204 10.204 0 00-6.303 0l-.08.027c-1.371.45-2.821.606-4.257.458 0-.043.009-.087.026-.132 1.409.146 2.833-.005 4.18-.441l.08-.027a10.345 10.345 0 016.396 0c2.057.67 4.273.67 6.33 0a10.343 10.343 0 016.385-.02l.139.045c2.037.656 4.228.656 6.265 0l.082-.028.048-.014c.009.046.02.09.03.134z" fill="#000"/><path d="M39.184 21.48l-.12.039-.082.025a10.33 10.33 0 01-6.35 0l-.138-.044a10.207 10.207 0 00-6.288.012 10.339 10.339 0 01-6.427 0 10.216 10.216 0 00-6.303 0l-.08.026a10.295 10.295 0 01-4.322.439c0-.044.013-.089.021-.133 1.435.16 2.886.011 4.26-.435l.079-.025a10.345 10.345 0 016.395 0c2.057.672 4.274.672 6.33 0a10.358 10.358 0 016.386-.019l.138.046a10.21 10.21 0 006.266 0l.082-.025.136-.042c0 .048.01.086.017.137z" fill="#000"/><path d="M39.257 21.892c-.065.017-.128.038-.193.06l-.082.026a10.347 10.347 0 01-6.35 0l-.138-.044a10.207 10.207 0 00-6.288.015c-2.088.68-4.339.68-6.427 0a10.203 10.203 0 00-6.303 0l-.08.027a10.334 10.334 0 01-4.385.433c0-.044 0-.09.02-.134 1.454.171 2.928.028 4.323-.42l.08-.028a10.345 10.345 0 016.395 0c2.057.67 4.274.67 6.33 0a10.342 10.342 0 016.386-.019l.138.044c2.037.657 4.229.657 6.266 0l.081-.027c.072-.023.143-.046.21-.065.005.044.013.09.017.132z" fill="#000"/><path d="M39.32 22.306l-.256.08-.082.025a10.328 10.328 0 01-6.35 0l-.138-.046a10.222 10.222 0 00-6.288.015 10.339 10.339 0 01-6.427 0 10.218 10.218 0 00-6.303 0l-.08.025c-1.43.46-2.944.604-4.435.42 0-.046 0-.09.014-.134 1.473.18 2.968.037 4.379-.42l.08-.026a10.345 10.345 0 016.395 0c2.057.673 4.274.673 6.33 0a10.357 10.357 0 016.386-.018l.138.046c2.037.656 4.229.656 6.266 0l.081-.026.28-.086c0 .055.006.11.01.145z" fill="#000"/><path d="M39.373 22.727c-.103.027-.21.058-.309.092l-.082.027a10.349 10.349 0 01-6.35 0l-.138-.044a10.192 10.192 0 00-6.288.015c-2.088.68-4.339.68-6.427 0a10.202 10.202 0 00-6.303 0l-.08.027c-1.443.467-2.97.611-4.475.42l.012-.134c1.484.185 2.99.042 4.413-.42l.08-.027a10.36 10.36 0 016.395 0c2.056.672 4.274.672 6.33 0a10.358 10.358 0 016.385-.017l.139.044c2.037.656 4.228.656 6.265 0l.082-.027c.111-.036.223-.072.334-.103.008.054.013.111.017.147z" fill="#000"/><path d="M39.415 23.147a9.63 9.63 0 00-.351.107l-.082.025a10.328 10.328 0 01-6.35 0l-.138-.046a10.221 10.221 0 00-6.288.015 10.339 10.339 0 01-6.427 0 10.216 10.216 0 00-6.303 0l-.08.025c-1.45.471-2.988.615-4.5.42v-.137a10.15 10.15 0 004.452-.42l.08-.025a10.346 10.346 0 016.395 0c2.056.672 4.274.672 6.33 0a10.358 10.358 0 016.385-.019l.139.046a10.21 10.21 0 006.265 0l.082-.025c.126-.042.254-.08.38-.115l.01.149z" fill="#000"/><path d="M39.444 23.571a8.05 8.05 0 00-.38.116l-.082.027a10.347 10.347 0 01-6.35 0l-.138-.044a10.192 10.192 0 00-6.288.014c-2.088.681-4.339.681-6.427 0a10.202 10.202 0 00-6.303 0l-.08.028a10.34 10.34 0 01-4.515.42v-.137c1.501.198 3.028.059 4.469-.407l.08-.027a10.361 10.361 0 016.395 0c2.057.672 4.274.672 6.33 0a10.358 10.358 0 016.385-.017l.139.044c2.037.656 4.228.656 6.265 0l.082-.027a7.6 7.6 0 01.42-.124.724.724 0 00-.002.134z" fill="#000"/><path d="M39.463 24a8.748 8.748 0 00-.399.122l-.082.025a10.328 10.328 0 01-6.35 0l-.138-.046a10.222 10.222 0 00-6.288.014 10.338 10.338 0 01-6.427 0 10.218 10.218 0 00-6.303 0l-.08.026a10.34 10.34 0 01-4.515.42v-.137a10.19 10.19 0 004.475-.407l.08-.026a10.345 10.345 0 016.395 0c2.057.673 4.274.673 6.33 0a10.357 10.357 0 016.386-.018l.138.046c2.037.656 4.229.656 6.266 0l.081-.025c.146-.047.29-.09.435-.13l-.004.136z" fill="#000"/><path d="M39.468 24.42v.012a9.81 9.81 0 00-.404.122l-.082.028a10.347 10.347 0 01-6.349 0l-.139-.044a10.192 10.192 0 00-6.288.014c-2.088.68-4.339.68-6.427 0a10.203 10.203 0 00-6.303 0l-.08.027A10.294 10.294 0 018.89 25v-.136c1.502.197 3.028.058 4.47-.407l.08-.028a10.36 10.36 0 016.395 0c2.056.673 4.273.673 6.33 0a10.357 10.357 0 016.385-.017l.139.045c2.037.655 4.228.655 6.265 0l.082-.028c.147-.048.294-.092.443-.132-.01.04-.01.076-.01.124z" fill="#000"/><path d="M39.463 24.729v.139a9.505 9.505 0 00-.397.121l-.082.026a10.33 10.33 0 01-6.349 0l-.139-.047a10.221 10.221 0 00-6.288.015c-2.088.683-4.339.683-6.427 0a10.216 10.216 0 00-6.303 0l-.08.025c-1.445.47-2.976.613-4.483.42v-.138c1.496.193 3.016.049 4.45-.42l.08-.026a10.345 10.345 0 016.395 0c2.056.673 4.274.673 6.33 0a10.358 10.358 0 016.385-.018l.139.046a10.21 10.21 0 006.265 0l.082-.026c.135-.036.275-.075.422-.117z" fill="#000"/><path d="M39.45 25.166v.143a8.48 8.48 0 00-.378.113l-.081.028a10.349 10.349 0 01-6.35 0l-.138-.044a10.191 10.191 0 00-6.289.014c-2.088.681-4.338.681-6.427 0a10.202 10.202 0 00-6.303 0l-.08.028a10.327 10.327 0 01-4.447.42c0-.046 0-.09-.013-.137 1.484.184 2.99.041 4.412-.42l.08-.027a10.36 10.36 0 016.395 0c2.057.672 4.274.672 6.33 0a10.358 10.358 0 016.386-.017l.138.044c2.037.657 4.229.657 6.266 0l.082-.027c.132-.036.275-.072.418-.118z" fill="#000"/><path d="M39.423 25.607c0 .048 0 .097-.014.143-.116.034-.231.07-.345.107l-.082.025a10.328 10.328 0 01-6.349 0l-.139-.046a10.221 10.221 0 00-6.288.015c-2.088.683-4.34.683-6.427 0a10.218 10.218 0 00-6.303 0l-.08.025c-1.419.457-2.92.6-4.4.42 0-.046-.012-.092-.016-.138 1.471.18 2.964.036 4.374-.42l.08-.026a10.346 10.346 0 016.395 0c2.057.672 4.274.672 6.33 0a10.358 10.358 0 016.386-.019l.138.046c2.037.657 4.229.657 6.266 0l.082-.025c.123-.03.258-.07.392-.107z" fill="#000"/><path d="M39.38 26.053a1.21 1.21 0 01-.018.147c-.1.027-.2.059-.298.09l-.082.027a10.347 10.347 0 01-6.35 0l-.138-.044a10.192 10.192 0 00-6.288.015c-2.088.68-4.339.68-6.427 0a10.202 10.202 0 00-6.303 0l-.08.027c-1.399.454-2.88.603-4.34.437l-.02-.136c1.453.17 2.925.027 4.318-.42l.08-.028a10.361 10.361 0 016.395 0c2.057.672 4.274.672 6.33 0a10.358 10.358 0 016.386-.017l.138.044c2.037.656 4.229.656 6.266 0l.082-.027c.109-.044.229-.082.348-.115z" fill="#000"/><path d="M39.325 26.504c0 .049 0 .099-.02.147l-.241.074-.082.025a10.33 10.33 0 01-6.35 0l-.138-.046a10.221 10.221 0 00-6.288.015 10.339 10.339 0 01-6.427 0 10.202 10.202 0 00-6.303 0l-.08.025a10.294 10.294 0 01-4.265.445l-.025-.139c1.43.158 2.879.01 4.248-.434l.08-.026a10.345 10.345 0 016.395 0c2.057.673 4.274.673 6.33 0a10.358 10.358 0 016.386-.018l.138.046a10.21 10.21 0 006.265 0l.082-.025c.093-.03.194-.061.294-.089z" fill="#000"/><path d="M39.255 26.958c0 .05-.014.1-.023.15a2.534 2.534 0 00-.168.05l-.082.027a10.347 10.347 0 01-6.349 0l-.139-.044a10.192 10.192 0 00-6.288.015c-2.088.68-4.339.68-6.427 0a10.202 10.202 0 00-6.303 0l-.08.027c-1.346.437-2.768.59-4.177.451a3.988 3.988 0 01-.03-.136c1.405.142 2.823-.01 4.165-.443l.08-.028a10.36 10.36 0 016.395 0c2.057.673 4.274.673 6.33 0a10.358 10.358 0 016.386-.017l.138.045a10.21 10.21 0 006.266 0l.082-.028c.069-.023.147-.048.224-.069z" fill="#000"/><path d="M39.173 27.418c0 .05-.019.099-.031.15l-.078.025-.082.025a10.328 10.328 0 01-6.35 0l-.138-.046a10.221 10.221 0 00-6.288.014c-2.088.683-4.34.683-6.427 0a10.202 10.202 0 00-6.303 0l-.08.026c-1.314.425-2.7.582-4.076.462a3.23 3.23 0 01-.034-.137 10.186 10.186 0 004.068-.454l.08-.025a10.346 10.346 0 016.395 0c2.057.673 4.274.673 6.33 0a10.358 10.358 0 016.386-.019l.138.046c2.037.657 4.229.657 6.266 0l.082-.025.142-.042z" fill="#000"/><path d="M39.079 27.88c-.013.05-.023.103-.036.154l-.057.019a10.347 10.347 0 01-6.349 0l-.139-.044a10.192 10.192 0 00-6.288.014c-2.088.68-4.339.68-6.427 0a10.202 10.202 0 00-6.303 0l-.08.027a10.294 10.294 0 01-3.96.473l-.038-.138c1.336.107 2.68-.05 3.956-.463l.08-.027a10.361 10.361 0 016.396 0c2.056.672 4.273.672 6.33 0a10.358 10.358 0 016.385-.017l.139.044c2.036.657 4.228.657 6.265 0l.082-.027.044-.015z" fill="#000"/><path d="M38.957 28.364c-.013.05-.027.103-.042.153-2.045.649-4.24.644-6.282-.012l-.139-.047a10.221 10.221 0 00-6.288.015 10.34 10.34 0 01-6.427 0 10.202 10.202 0 00-6.303 0l-.08.025c-1.236.401-2.536.564-3.832.48l-.04-.135c1.293.085 2.59-.077 3.822-.48l.08-.024a10.345 10.345 0 016.395 0c2.056.672 4.274.672 6.33 0a10.358 10.358 0 016.385-.02l.139.047c2.037.656 4.228.656 6.265 0l.017-.002z" fill="#000"/><path d="M38.822 28.828c-.014.052-.031.103-.046.155a10.335 10.335 0 01-6.143-.056l-.139-.045a10.207 10.207 0 00-6.288.015c-2.088.68-4.339.68-6.427 0a10.203 10.203 0 00-6.303 0l-.08.027c-1.19.388-2.443.554-3.694.49a3.43 3.43 0 01-.046-.137c1.25.064 2.5-.103 3.69-.493l.08-.028a10.36 10.36 0 016.395 0 10.2 10.2 0 006.33 0 10.343 10.343 0 016.385-.018l.139.044c1.995.647 4.142.663 6.147.046z" fill="#000"/><path d="M38.67 29.31a2.283 2.283 0 01-.055.155c-1.96.557-4.042.52-5.982-.103l-.139-.046a10.22 10.22 0 00-6.288.014 10.34 10.34 0 01-6.427 0 10.202 10.202 0 00-6.303 0l-.08.026c-1.137.368-2.33.536-3.525.495-.017-.044-.036-.09-.05-.136a10.125 10.125 0 003.533-.488l.08-.025a10.345 10.345 0 016.396 0c2.056.67 4.273.67 6.33 0a10.358 10.358 0 016.385-.019l.139.046c1.942.623 4.027.651 5.985.08z" fill="#000"/><path d="M38.497 29.792a3.361 3.361 0 01-.06.154 10.308 10.308 0 01-5.805-.151l-.138-.045a10.192 10.192 0 00-6.288.015c-2.088.68-4.339.68-6.427 0a10.202 10.202 0 00-6.303 0l-.08.027c-1.082.352-2.214.52-3.351.498l-.057-.134c1.14.026 2.277-.14 3.362-.492l.08-.027a10.345 10.345 0 016.395 0c2.057.67 4.274.67 6.33 0a10.343 10.343 0 016.385-.02l.139.045a10.21 10.21 0 005.818.13z" fill="#000"/><path d="M38.306 30.276l-.064.155c-1.853.45-3.795.376-5.61-.21l-.138-.046a10.222 10.222 0 00-6.288.014 10.34 10.34 0 01-6.427 0 10.202 10.202 0 00-6.303 0l-.08.026c-1.022.332-2.09.501-3.164.502l-.06-.135c1.08.005 2.155-.162 3.182-.495l.08-.026a10.33 10.33 0 016.395 0c2.057.67 4.274.67 6.33 0a10.358 10.358 0 016.386-.019l.138.047c1.82.588 3.768.652 5.623.187z" fill="#000"/><path d="M38.096 30.76c-.023.051-.047.101-.072.152a10.308 10.308 0 01-5.391-.25l-.139-.044a10.192 10.192 0 00-6.288.015c-2.088.68-4.339.68-6.427 0a10.202 10.202 0 00-6.303 0l-.08.027c-.956.312-1.953.48-2.958.498a2.651 2.651 0 01-.065-.135 10.057 10.057 0 002.981-.491l.08-.028a10.361 10.361 0 016.396 0c2.056.673 4.273.673 6.33 0a10.358 10.358 0 016.385-.017l.138.045c1.751.56 3.62.64 5.413.229z" fill="#000"/><path d="M37.862 31.246c-.023.053-.05.103-.077.154a10.333 10.333 0 01-5.152-.305l-.139-.046a10.222 10.222 0 00-6.288.014 10.338 10.338 0 01-6.427 0 10.218 10.218 0 00-6.303 0l-.08.026a10.15 10.15 0 01-2.731.491 1.722 1.722 0 01-.07-.132c.941-.033 1.872-.197 2.768-.488l.08-.025a10.33 10.33 0 016.395 0c2.057.67 4.273.67 6.33 0a10.358 10.358 0 016.385-.019l.139.046c1.67.538 3.451.636 5.17.284z" fill="#000"/><path d="M37.608 31.725c-.027.05-.054.1-.084.151a10.309 10.309 0 01-4.895-.349l-.139-.044a10.192 10.192 0 00-6.288.015c-2.089.68-4.339.68-6.427 0a10.202 10.202 0 00-6.303 0l-.08.027c-.813.265-1.656.426-2.509.48-.025-.045-.05-.089-.073-.133a10.042 10.042 0 002.54-.475l.08-.027a10.36 10.36 0 016.395 0c2.057.672 4.274.672 6.33 0a10.358 10.358 0 016.386-.017l.138.044c1.591.512 3.284.625 4.93.328z" fill="#000"/><path d="M37.34 32.206c-.028.05-.058.099-.087.147-1.55.22-3.13.087-4.622-.39l-.139-.047a10.222 10.222 0 00-6.288.015c-2.088.683-4.34.683-6.427 0a10.203 10.203 0 00-6.303 0l-.08.025c-.733.239-1.49.393-2.259.46a2.645 2.645 0 01-.077-.128 9.957 9.957 0 002.298-.46l.08-.025a10.33 10.33 0 016.395 0c2.057.67 4.274.67 6.33 0a10.358 10.358 0 016.386-.019l.139.046c1.5.485 3.094.613 4.653.376z" fill="#000"/><path d="M37.047 32.681a3.55 3.55 0 01-.096.147 10.308 10.308 0 01-4.318-.43l-.139-.044a10.192 10.192 0 00-6.288.014c-2.088.681-4.339.681-6.427 0a10.202 10.202 0 00-6.303 0l-.08.028c-.651.211-1.322.357-2.002.434a2.694 2.694 0 01-.084-.128c.694-.073 1.38-.219 2.044-.435l.08-.027a10.36 10.36 0 016.395 0c2.057.672 4.274.672 6.33 0a10.358 10.358 0 016.386-.017l.138.044a10.21 10.21 0 004.364.414z" fill="#000"/><path d="M36.734 33.148c-.03.047-.064.095-.1.144a10.307 10.307 0 01-4.005-.46l-.139-.046a10.221 10.221 0 00-6.288.015 10.34 10.34 0 01-6.427 0 10.202 10.202 0 00-6.303 0l-.08.025a10.05 10.05 0 01-1.731.4 2.24 2.24 0 01-.086-.125 9.87 9.87 0 001.775-.403l.08-.027a10.345 10.345 0 016.395 0c2.057.67 4.274.67 6.33 0a10.358 10.358 0 016.385-.02l.14.047c1.306.423 2.686.576 4.054.45z" fill="#000"/><path d="M36.402 33.616c-.034.049-.07.095-.107.141-.166 0-.332.015-.498.015a10.31 10.31 0 01-3.164-.496l-.139-.044a10.193 10.193 0 00-6.288.014c-2.088.681-4.339.681-6.427 0a10.203 10.203 0 00-6.303 0l-.08.028a9.769 9.769 0 01-1.456.342c-.03-.04-.06-.08-.088-.121a9.864 9.864 0 001.494-.362l.08-.027a10.36 10.36 0 016.395 0c2.056.672 4.274.672 6.33 0a10.358 10.358 0 016.385-.017l.139.044c1.201.392 2.465.556 3.727.483z" fill="#000"/><path d="M36.053 34.053l-.113.139h-.143a10.31 10.31 0 01-3.164-.494l-.139-.046a10.221 10.221 0 00-6.288.014c-2.088.683-4.34.683-6.427 0a10.203 10.203 0 00-6.303 0l-.08.026a9.986 9.986 0 01-1.152.302l-.096-.12a9.582 9.582 0 001.206-.31l.08-.028a10.345 10.345 0 016.395 0c2.057.67 4.274.67 6.33 0a10.358 10.358 0 016.385-.019l.14.047c1.086.354 2.226.52 3.37.49z" fill="#000"/><path d="M35.683 34.492l-.117.132c-1-.02-1.99-.185-2.942-.491l-.138-.044a10.192 10.192 0 00-6.289.014c-2.088.681-4.338.681-6.427 0a10.202 10.202 0 00-6.303 0l-.08.028c-.279.09-.56.17-.84.235-.034-.04-.067-.078-.099-.118.305-.067.607-.149.904-.245l.08-.028a10.36 10.36 0 016.395 0c2.057.672 4.274.672 6.33 0a10.358 10.358 0 016.385-.017l.139.044c.97.313 1.983.478 3.002.49z" fill="#000"/><path d="M35.297 34.912a2.276 2.276 0 01-.12.129 10.108 10.108 0 01-2.546-.473l-.139-.046a10.221 10.221 0 00-6.288.014c-2.088.683-4.34.683-6.427 0a10.202 10.202 0 00-6.303 0l-.08.026a8.123 8.123 0 01-.534.155l-.1-.111c.199-.05.396-.11.592-.173l.08-.027a10.345 10.345 0 016.395 0c2.057.67 4.274.67 6.33 0a10.358 10.358 0 016.385-.019l.14.044a9.963 9.963 0 002.615.481z" fill="#000"/><path d="M34.902 35.32c-.042.042-.084.084-.128.124a10.084 10.084 0 01-2.141-.443l-.139-.044a10.192 10.192 0 00-6.288.014c-2.088.681-4.339.681-6.427 0a10.204 10.204 0 00-6.303 0l-.08.028-.21.065-.107-.111c.092-.024.184-.053.275-.082l.08-.028a10.36 10.36 0 016.395 0c2.057.673 4.274.673 6.33 0a10.358 10.358 0 016.386-.017l.138.045a9.95 9.95 0 002.219.45z" fill="#000"/><path d="M34.492 35.717a2.39 2.39 0 01-.132.12 9.938 9.938 0 01-1.727-.393l-.139-.046a10.221 10.221 0 00-6.288.014 10.34 10.34 0 01-6.427 0 10.2 10.2 0 00-6.272-.019l-.111-.107.03-.01a10.345 10.345 0 016.395 0c2.057.67 4.273.67 6.33 0a10.358 10.358 0 016.385-.02l.139.045c.59.197 1.2.337 1.817.416z" fill="#000"/><path d="M34.07 36.083c-.044.037-.088.075-.134.11a9.597 9.597 0 01-1.303-.325l-.139-.044a10.193 10.193 0 00-6.288.015c-2.088.68-4.339.68-6.427 0a10.203 10.203 0 00-5.925-.126l-.113-.105a10.343 10.343 0 016.08.1c2.057.673 4.274.673 6.33 0a10.358 10.358 0 016.385-.016l.139.044c.456.149.922.265 1.395.347z" fill="#000"/><path d="M33.646 36.431l-.141.11a9.719 9.719 0 01-.872-.238l-.139-.046a10.221 10.221 0 00-6.288.015 10.34 10.34 0 01-6.427 0 10.223 10.223 0 00-5.547-.225l-.124-.105a10.32 10.32 0 015.713.21c2.057.67 4.273.67 6.33 0a10.358 10.358 0 016.385-.019l.139.044c.319.103.643.188.97.255z" fill="#000"/><path d="M33.207 36.768c-.047.036-.093.07-.14.1a8.64 8.64 0 01-.434-.128l-.139-.044a10.192 10.192 0 00-6.288.015c-2.088.68-4.339.68-6.427 0a10.224 10.224 0 00-5.13-.315l-.135-.11a10.369 10.369 0 015.307.295c2.057.672 4.274.672 6.33 0a10.358 10.358 0 016.385-.017l.139.044c.177.057.353.11.532.16z" fill="#000"/><path d="M32.776 37.07c-.049.036-.097.068-.145.1l-.133-.045a10.222 10.222 0 00-6.288.015 10.339 10.339 0 01-6.427 0 10.213 10.213 0 00-4.666-.393 2.66 2.66 0 01-.152-.114 10.355 10.355 0 014.86.379c2.057.67 4.274.67 6.33 0a10.358 10.358 0 016.386-.02l.138.045.097.033z" fill="#000"/><path d="M32.322 37.366l-.151.095a10.198 10.198 0 00-5.965.113c-2.088.681-4.339.681-6.427 0a10.16 10.16 0 00-4.14-.456 4.092 4.092 0 01-.171-.12 10.366 10.366 0 014.353.446c2.056.672 4.274.672 6.33 0a10.355 10.355 0 016.17-.078z" fill="#000"/><path d="M31.828 37.665a2.347 2.347 0 01-.172.096 10.222 10.222 0 00-5.45.246 10.339 10.339 0 01-6.427 0 10.184 10.184 0 00-3.526-.496l-.21-.126a10.24 10.24 0 013.77.494c2.056.67 4.273.67 6.33 0 1.838-.6 3.807-.674 5.685-.214z" fill="#000"/><path d="M31.26 37.978c-.064.036-.13.07-.197.1a10.185 10.185 0 00-4.857.37c-2.088.681-4.339.681-6.427 0a10.168 10.168 0 00-2.76-.498 4.468 4.468 0 01-.261-.14 10.15 10.15 0 013.056.506c2.057.672 4.274.672 6.33 0 1.651-.54 3.41-.656 5.117-.338z" fill="#000"/><path d="M30.595 38.308l-.25.113a10.16 10.16 0 00-4.139.454c-2.088.683-4.34.683-6.427 0a10.023 10.023 0 00-1.622-.386 6.434 6.434 0 01-.42-.192c.714.076 1.418.226 2.1.45 2.058.67 4.274.67 6.331 0a10.39 10.39 0 014.427-.44z" fill="#000"/><path d="M29.725 38.68a9.497 9.497 0 01-.338.126 10.102 10.102 0 00-3.181.504c-.57.184-1.156.317-1.75.399h-.294c-.347 0-.692-.01-1.032-.036a9.995 9.995 0 003.015-.5 10.297 10.297 0 013.58-.494zM28.258 39.167a15.11 15.11 0 01-1.939.401 9.91 9.91 0 011.94-.4z" fill="#000"/><path d="M22.991 39.064c8.449 0 15.298-6.849 15.298-15.297 0-8.449-6.849-15.298-15.298-15.298-8.448 0-15.297 6.85-15.297 15.298s6.849 15.297 15.297 15.297z" fill="#12122C"/><path d="M19.331 18.745l7.631-.019-.004-1.69 5.742 5.069-13.36.018-.009-3.378zM26.653 28.79l-7.633.02.005 1.688-5.74-5.067 13.36-.02.008 3.38z" fill="#FDEBAA"/></g><defs><clipPath id="clip0"><path fill="#fff" d="M0 0h46.899v46.899H0z"/></clipPath></defs></svg>