<svg width="47" height="47" fill="none" xmlns="http://www.w3.org/2000/svg"><g clip-path="url(#clip0)"><path d="M23.065 46.13c12.738 0 23.065-10.327 23.065-23.065C46.13 10.326 35.803 0 23.065 0 10.326 0 0 10.326 0 23.065 0 35.803 10.326 46.13 23.065 46.13z" fill="#E0E0E0"/><path d="M33.616 13.1a8.07 8.07 0 01-1.378-.231l.21-.059c.341.08.687.136 1.036.168a.884.884 0 01.132.122zM33.826 13.463a8.24 8.24 0 01-2.08-.384l-.111-.036.193-.055a7.982 7.982 0 001.963.364.903.903 0 01.035.111zM33.92 13.818a8.193 8.193 0 01-2.18-.39l-.111-.036a8.83 8.83 0 00-.63-.177l.21-.059c.153.038.306.085.457.133l.112.036c.685.22 1.396.349 2.115.382l.028.111zM34.02 14.17a8.16 8.16 0 01-2.28-.394l-.111-.035a7.85 7.85 0 00-1.387-.316l.252-.071c.396.065.787.16 1.168.284l.112.035c.716.231 1.462.362 2.214.389l.032.107zM34.116 14.52a8.15 8.15 0 01-2.376-.395l-.112-.036a8.077 8.077 0 00-2.365-.39l.342-.095c.7.039 1.39.167 2.057.382l.111.036a8.08 8.08 0 002.311.39l.032.108zM25.96 14.623l.479-.135c-.157.05-.317.097-.479.135zM34.215 14.873a8.319 8.319 0 01-2.475-.397l-.111-.036a8.218 8.218 0 00-4.354-.185l.975-.273c1.15-.12 2.312 0 3.412.353l.111.038c.78.252 1.593.383 2.412.39l.03.11z" fill="#000"/><path d="M34.314 15.224h-.026a8.262 8.262 0 01-2.548-.4l-.111-.035a8.223 8.223 0 00-5.064 0 8.287 8.287 0 01-2.714.42l.401-.114a8.172 8.172 0 002.27-.399 8.33 8.33 0 015.14-.014l.112.035a8.147 8.147 0 002.52.395l.02.112z" fill="#000"/><path d="M34.41 15.57h-.121a8.262 8.262 0 01-2.549-.399l-.111-.035a8.207 8.207 0 00-5.064.012 8.344 8.344 0 01-3.7.338l.276-.077a8.195 8.195 0 003.38-.362 8.344 8.344 0 015.141-.014l.112.035a8.14 8.14 0 002.607.393l.03.11z" fill="#000"/><path d="M34.507 15.92h-.21a8.329 8.329 0 01-2.549-.4l-.111-.038a8.238 8.238 0 00-5.064.013 8.32 8.32 0 01-4.454.21l.21-.063a8.193 8.193 0 004.203-.24 8.346 8.346 0 015.14-.014l.112.035c.873.281 1.787.413 2.704.391l.019.105z" fill="#000"/><path d="M34.606 16.266h-.318a8.267 8.267 0 01-2.548-.4l-.111-.035a8.223 8.223 0 00-5.064.01 8.327 8.327 0 01-5.09.03l.197-.055c1.585.47 3.276.45 4.849-.059a8.331 8.331 0 015.141-.012l.112.036c.904.29 1.851.42 2.8.386l.032.099z" fill="#000"/><path d="M34.7 16.61h-.42a8.262 8.262 0 01-2.549-.399l-.11-.035a8.223 8.223 0 00-5.064 0 8.314 8.314 0 01-5.175 0 9.445 9.445 0 00-.525-.154l.21-.057c.12.032.237.07.355.108 1.656.54 3.44.54 5.097 0a8.344 8.344 0 015.141-.015l.111.036c.933.31 1.914.448 2.896.41l.033.106z" fill="#000"/><path d="M34.797 16.953a8.267 8.267 0 01-3.057-.382l-.111-.036a8.206 8.206 0 00-5.064.013 8.33 8.33 0 01-5.175 0 7.917 7.917 0 00-1.241-.3l.243-.07c.352.067.698.157 1.038.269a8.194 8.194 0 005.097 0 8.345 8.345 0 015.141-.015l.112.036a8.21 8.21 0 002.994.38l.023.105z" fill="#000"/><path d="M34.894 17.297a8.329 8.329 0 01-3.154-.376l-.111-.035a8.207 8.207 0 00-5.064 0 8.344 8.344 0 01-5.175 0 8.098 8.098 0 00-2.153-.397l.313-.089c.64.058 1.271.191 1.88.395a8.193 8.193 0 005.097 0 8.345 8.345 0 015.142-.014l.11.035c.997.32 2.046.447 3.09.374l.025.107z" fill="#000"/><path d="M34.988 17.648a8.267 8.267 0 01-3.248-.37l-.111-.035a8.224 8.224 0 00-5.064 0 8.314 8.314 0 01-5.175 0 8.216 8.216 0 00-3.624-.334l.59-.166a8.258 8.258 0 013.074.403c1.656.54 3.441.54 5.097 0a8.316 8.316 0 015.142-.015l.11.036a8.22 8.22 0 003.186.368l.023.113z" fill="#000"/><path d="M35.087 17.978a8.265 8.265 0 01-3.343-.36l-.111-.035a8.207 8.207 0 00-5.064.013 8.328 8.328 0 01-5.174 0 8.236 8.236 0 00-5.083 0l-.065.02a8.24 8.24 0 01-2.41.404l.45-.132a8.12 8.12 0 001.92-.378l.065-.021a8.327 8.327 0 015.15 0 8.22 8.22 0 005.097 0 8.346 8.346 0 015.141-.015l.111.036a8.18 8.18 0 003.28.357l.036.111z" fill="#000"/><path d="M35.18 18.319a8.323 8.323 0 01-3.44-.349l-.111-.038a8.207 8.207 0 00-5.064.013 8.328 8.328 0 01-5.174 0 8.221 8.221 0 00-5.083 0l-.065.02a8.31 8.31 0 01-3.48.356l.083-.028.21-.056a8.229 8.229 0 003.153-.379l.066-.023a8.34 8.34 0 015.15 0 8.193 8.193 0 005.096 0 8.345 8.345 0 015.141-.014l.112.035c1.088.35 2.239.47 3.376.35l.03.113z" fill="#000"/><path d="M35.274 18.66a8.33 8.33 0 01-3.534-.34l-.111-.037a8.223 8.223 0 00-5.064 0 8.345 8.345 0 01-5.175 0 8.205 8.205 0 00-5.082 0l-.065.021a8.346 8.346 0 01-3.906.298.84.84 0 01.097-.096 8.242 8.242 0 003.782-.305l.065-.02a8.342 8.342 0 015.15 0 8.193 8.193 0 005.096 0 8.345 8.345 0 015.142-.016l.11.036c1.12.36 2.304.476 3.472.338l.023.12z" fill="#000"/><path d="M35.368 18.995a8.26 8.26 0 01-3.628-.328l-.111-.035a8.223 8.223 0 00-5.064 0 8.314 8.314 0 01-5.175 0 8.236 8.236 0 00-5.082 0l-.065.02a8.356 8.356 0 01-4.095.265.637.637 0 01.046-.103c1.34.247 2.72.156 4.015-.264l.066-.021a8.326 8.326 0 015.15 0c1.655.54 3.44.54 5.096 0a8.33 8.33 0 015.141-.015l.112.036a8.194 8.194 0 003.571.325l.023.12z" fill="#000"/><path d="M35.461 19.33a8.268 8.268 0 01-3.72-.315l-.112-.037a8.206 8.206 0 00-5.064.013 8.33 8.33 0 01-5.175 0 8.236 8.236 0 00-5.082 0l-.065.023a8.312 8.312 0 01-4.164.25.643.643 0 010-.109 8.208 8.208 0 004.13-.246l.066-.02a8.327 8.327 0 015.15 0 8.22 8.22 0 005.096 0 8.345 8.345 0 015.141-.015l.112.035c1.18.38 2.43.487 3.658.313l.029.107z" fill="#000"/><path d="M35.556 19.668a8.368 8.368 0 01-3.816-.301l-.111-.038a8.239 8.239 0 00-5.064.013 8.328 8.328 0 01-5.175 0 8.221 8.221 0 00-5.082 0l-.065.02a8.339 8.339 0 01-4.116.261v-.035a.575.575 0 01-.019-.082 8.224 8.224 0 004.112-.246l.065-.023a8.34 8.34 0 015.15 0 8.195 8.195 0 005.097 0 8.345 8.345 0 015.14-.015l.112.036c1.21.39 2.495.493 3.753.3l.019.11z" fill="#000"/><path d="M35.65 20.004c-.45.074-.906.11-1.362.111a8.262 8.262 0 01-2.548-.4l-.111-.035a8.223 8.223 0 00-5.064 0 8.345 8.345 0 01-5.175 0 8.207 8.207 0 00-5.082 0l-.065.021a8.36 8.36 0 01-4.013.28l-.034-.118a8.228 8.228 0 004.013-.265l.065-.02a8.342 8.342 0 015.15 0 8.193 8.193 0 005.097 0 8.331 8.331 0 015.141-.013l.111.035a8.26 8.26 0 003.847.286l.03.118z" fill="#000"/><path d="M35.742 20.335a8.326 8.326 0 01-4.002-.27l-.111-.036a8.223 8.223 0 00-5.064 0 8.314 8.314 0 01-5.175 0 8.236 8.236 0 00-5.082 0l-.065.02a8.342 8.342 0 01-3.912.297l-.032-.116a8.224 8.224 0 003.91-.27l.065-.021a8.325 8.325 0 015.15 0c1.656.54 3.44.54 5.097 0a8.33 8.33 0 015.141-.015l.111.035a8.213 8.213 0 003.944.271l.025.105z" fill="#000"/><path d="M35.835 20.668a8.328 8.328 0 01-4.095-.255l-.111-.035a8.207 8.207 0 00-5.064.012 8.328 8.328 0 01-5.175 0 8.236 8.236 0 00-5.082 0l-.065.023a8.3 8.3 0 01-3.81.311l-.037-.117a8.235 8.235 0 003.807-.303l.065-.02a8.341 8.341 0 015.15 0c1.656.54 3.44.54 5.097 0a8.346 8.346 0 015.141-.015l.111.035a8.195 8.195 0 004.032.252l.036.112z" fill="#000"/><path d="M35.927 21.01c-1.393.28-2.834.2-4.187-.235l-.111-.038a8.239 8.239 0 00-5.064.012 8.345 8.345 0 01-5.175 0 8.206 8.206 0 00-5.082 0l-.065.021a8.307 8.307 0 01-3.708.326l-.032-.116c1.243.18 2.511.073 3.706-.313l.066-.02a8.34 8.34 0 015.15 0 8.195 8.195 0 005.096 0 8.345 8.345 0 015.141-.015l.112.035a8.225 8.225 0 004.124.236l.03.107z" fill="#000"/><path d="M36.02 21.33a8.315 8.315 0 01-4.28-.21l-.111-.036a8.224 8.224 0 00-5.064.01 8.314 8.314 0 01-5.175 0 8.221 8.221 0 00-5.082 0l-.065.021a8.287 8.287 0 01-3.605.338l-.032-.111a8.214 8.214 0 003.603-.332l.066-.02a8.326 8.326 0 015.15 0 8.22 8.22 0 005.096 0 8.315 8.315 0 015.141-.016l.112.036a8.209 8.209 0 004.216.21l.03.11z" fill="#000"/><path d="M36.112 21.66a8.34 8.34 0 01-4.372-.198l-.111-.036a8.224 8.224 0 00-5.064 0 8.312 8.312 0 01-5.175 0 8.237 8.237 0 00-5.082 0l-.065.021a8.288 8.288 0 01-3.505.351l-.031-.111a8.208 8.208 0 003.502-.343l.065-.02a8.327 8.327 0 015.15 0c1.656.54 3.44.54 5.097 0a8.345 8.345 0 015.141-.016l.111.036a8.181 8.181 0 004.31.194l.03.121z" fill="#000"/><path d="M36.205 21.987a8.343 8.343 0 01-4.465-.177l-.111-.035a8.207 8.207 0 00-5.064.012 8.328 8.328 0 01-5.174 0 8.221 8.221 0 00-5.083 0l-.065.021a8.304 8.304 0 01-3.403.362l-.024-.11a8.217 8.217 0 003.402-.35l.065-.024a8.342 8.342 0 015.15 0 8.206 8.206 0 005.097 0 8.346 8.346 0 015.14-.014l.112.035a8.246 8.246 0 004.412.177l.01.103z" fill="#000"/><path d="M36.295 22.313a8.324 8.324 0 01-4.555-.151l-.111-.036a8.224 8.224 0 00-5.064 0 8.345 8.345 0 01-5.175 0 8.207 8.207 0 00-5.082 0l-.065.02a8.31 8.31 0 01-3.305.372l-.032-.113a8.218 8.218 0 003.303-.345l.065-.02a8.34 8.34 0 015.15 0 8.193 8.193 0 005.097 0 8.345 8.345 0 015.141-.015l.111.036c1.454.467 3.01.52 4.492.153l.03.099z" fill="#000"/><path d="M36.387 22.64a8.332 8.332 0 01-4.647-.13l-.111-.035a8.224 8.224 0 00-5.064 0 8.314 8.314 0 01-5.175 0 8.237 8.237 0 00-5.082 0l-.065.02a8.317 8.317 0 01-3.204.38l-.032-.108a8.23 8.23 0 003.202-.374l.065-.021a8.326 8.326 0 015.15 0 8.22 8.22 0 005.097 0 8.345 8.345 0 015.141-.015l.112.036a8.221 8.221 0 004.584.128l.03.12z" fill="#000"/><path d="M36.478 22.966a8.343 8.343 0 01-4.738-.107l-.111-.036a8.207 8.207 0 00-5.064.013 8.328 8.328 0 01-5.175 0 8.237 8.237 0 00-5.082 0l-.065.023a8.276 8.276 0 01-3.105.384l-.03-.109a8.21 8.21 0 003.101-.38l.066-.021a8.327 8.327 0 015.15 0 8.22 8.22 0 005.096 0 8.345 8.345 0 015.141-.015l.112.036a8.217 8.217 0 004.674.105l.03.107z" fill="#000"/><path d="M36.568 23.29a8.365 8.365 0 01-4.832-.08l-.112-.038a8.224 8.224 0 00-5.063.013 8.328 8.328 0 01-5.175 0 8.221 8.221 0 00-5.082 0l-.065.02a8.275 8.275 0 01-3.003.391l-.031-.11a8.176 8.176 0 003.004-.375l.065-.023a8.34 8.34 0 015.15 0 8.195 8.195 0 005.097 0 8.345 8.345 0 015.141-.015l.111.036a8.22 8.22 0 004.766.08l.03.1z" fill="#000"/><path d="M36.658 23.611a8.169 8.169 0 01-2.37.34 8.262 8.262 0 01-2.548-.399l-.111-.035a8.223 8.223 0 00-5.064.01 8.345 8.345 0 01-5.175 0 8.207 8.207 0 00-5.082 0l-.065.021a8.36 8.36 0 01-2.906.404l-.031-.112a8.196 8.196 0 002.903-.39l.066-.022a8.34 8.34 0 015.15 0 8.195 8.195 0 005.096 0 8.344 8.344 0 015.141-.014l.112.037a8.245 8.245 0 004.855.053l.03.107z" fill="#000"/><path d="M36.749 23.932a8.308 8.308 0 01-5.01-.025l-.11-.035a8.223 8.223 0 00-5.064 0 8.314 8.314 0 01-5.175 0 8.207 8.207 0 00-5.082 0l-.065.02a8.314 8.314 0 01-2.796.41l-.032-.11c.95.033 1.9-.1 2.805-.394l.065-.021a8.327 8.327 0 015.15 0 8.22 8.22 0 005.097 0 8.346 8.346 0 015.14-.015l.112.036a8.209 8.209 0 004.946.025l.019.11z" fill="#000"/><path d="M36.84 24.256a8.34 8.34 0 01-5.1 0l-.111-.036a8.207 8.207 0 00-5.064.013 8.328 8.328 0 01-5.175 0 8.236 8.236 0 00-5.082 0l-.065.023a8.288 8.288 0 01-2.71.401l-.03-.109a8.105 8.105 0 002.706-.397l.066-.021a8.326 8.326 0 015.15 0c1.655.54 3.44.54 5.096 0a8.344 8.344 0 015.141-.015l.112.036a8.23 8.23 0 005.042 0l.023.105z" fill="#000"/><path d="M36.927 24.582l-.065.02a8.327 8.327 0 01-5.114 0l-.111-.037a8.237 8.237 0 00-5.064.012 8.345 8.345 0 01-5.174 0 8.206 8.206 0 00-5.083 0l-.065.021c-.846.275-1.73.41-2.62.404l-.03-.111a8.193 8.193 0 002.608-.398l.065-.02a8.341 8.341 0 015.15 0 8.194 8.194 0 005.097 0 8.346 8.346 0 015.141-.015l.111.035a8.231 8.231 0 005.043 0l.065-.02h.013l.033.109z" fill="#000"/><path d="M37.018 24.899l-.1.03-.064.02a8.325 8.325 0 01-5.114 0l-.111-.036a8.224 8.224 0 00-5.064 0 8.314 8.314 0 01-5.175 0 8.207 8.207 0 00-5.082 0l-.065.021a8.294 8.294 0 01-2.521.406l-.032-.11c.856.001 1.707-.134 2.521-.398l.066-.021a8.326 8.326 0 015.15 0 8.22 8.22 0 005.096 0 8.316 8.316 0 015.141-.015l.112.036a8.231 8.231 0 005.042 0l.065-.021.103-.032.032.12z" fill="#000"/><path d="M37.108 25.212l-.19.059-.064.02a8.327 8.327 0 01-5.114 0l-.111-.035a8.223 8.223 0 00-5.064 0 8.314 8.314 0 01-5.175 0 8.236 8.236 0 00-5.082 0l-.065.021c-.78.255-1.595.39-2.416.404l-.03-.108a8.122 8.122 0 002.412-.399l.065-.02a8.327 8.327 0 015.15 0 8.22 8.22 0 005.097 0 8.346 8.346 0 015.141-.015l.111.035a8.215 8.215 0 005.043 0l.065-.02c.065-.022.128-.043.193-.06l.034.118z" fill="#000"/><path d="M37.171 25.55l-.252.078-.065.021a8.348 8.348 0 01-5.114 0l-.111-.036a8.207 8.207 0 00-5.064.013 8.328 8.328 0 01-5.175 0 8.222 8.222 0 00-5.082 0l-.065.021a8.282 8.282 0 01-2.311.401l-.03-.109a8.11 8.11 0 002.312-.395l.065-.023a8.326 8.326 0 015.15 0 8.193 8.193 0 005.096 0 8.345 8.345 0 015.141-.015l.112.036a8.231 8.231 0 005.042 0l.065-.023c.09-.03.183-.059.276-.084a.66.66 0 01.01.115z" fill="#000"/><path d="M37.152 25.794a.705.705 0 01-.03.12c-.067.019-.136.04-.21.063l-.065.021a8.327 8.327 0 01-5.114 0l-.11-.036a8.223 8.223 0 00-5.064.01 8.345 8.345 0 01-5.175 0 8.207 8.207 0 00-5.082 0l-.066.022a8.258 8.258 0 01-2.222.399l-.03-.11c.754-.027 1.501-.159 2.219-.392l.065-.021a8.342 8.342 0 015.15 0 8.193 8.193 0 005.097 0 8.346 8.346 0 015.14-.015l.112.036a8.231 8.231 0 005.043 0l.065-.021c.103-.027.187-.053.277-.076z" fill="#000"/><path d="M36.978 26.191a1.139 1.139 0 01-.13.156 8.327 8.327 0 01-5.114 0l-.112-.036a8.223 8.223 0 00-5.063 0 8.314 8.314 0 01-5.175 0 8.236 8.236 0 00-5.082 0l-.065.021a8.153 8.153 0 01-2.126.393l-.03-.107a8.11 8.11 0 002.122-.389l.065-.021a8.327 8.327 0 015.15 0c1.656.54 3.44.54 5.097 0a8.316 8.316 0 015.141-.015l.111.036a8.231 8.231 0 005.043 0l.065-.021.103-.017z" fill="#000"/><path d="M35.202 26.941l-.535.162h-.379a8.263 8.263 0 01-2.548-.4l-.112-.035a8.207 8.207 0 00-5.063.012 8.328 8.328 0 01-5.175 0 8.237 8.237 0 00-5.082 0l-.065.024a8.14 8.14 0 01-2.03.386l-.03-.107a8.12 8.12 0 002.026-.384l.065-.021a8.326 8.326 0 015.15 0c1.656.54 3.44.54 5.097 0a8.345 8.345 0 015.141-.015l.111.036a8.207 8.207 0 003.43.342z" fill="#000"/><path d="M33.826 27.328l-.302.084a8.032 8.032 0 01-1.78-.36l-.111-.037a8.224 8.224 0 00-5.064.012 8.33 8.33 0 01-5.174 0 8.221 8.221 0 00-5.083 0l-.065.021a8.204 8.204 0 01-1.933.383l-.027-.118a8.074 8.074 0 001.93-.376l.066-.023a8.356 8.356 0 015.15 0 8.193 8.193 0 005.096 0 8.345 8.345 0 015.142-.015l.11.036c.663.218 1.35.35 2.045.393z" fill="#000"/><path d="M32.93 27.578l-.242.067a8.251 8.251 0 01-.948-.244l-.111-.035a8.224 8.224 0 00-5.064.01 8.345 8.345 0 01-5.175 0 8.207 8.207 0 00-5.082 0l-.065.021a8.093 8.093 0 01-1.838.372l-.03-.107a7.938 7.938 0 001.834-.368l.065-.02a8.34 8.34 0 015.15 0 8.195 8.195 0 005.097 0 8.344 8.344 0 015.141-.016l.111.038c.378.123.764.217 1.156.282z" fill="#000"/><path d="M32.219 27.775l-.21.06-.273-.085-.112-.035a8.223 8.223 0 00-5.063.01 8.314 8.314 0 01-5.175 0 8.236 8.236 0 00-5.082 0l-.065.021a8.127 8.127 0 01-1.744.364l-.03-.106a7.956 7.956 0 001.74-.36l.065-.022a8.327 8.327 0 015.15 0c1.656.54 3.44.54 5.097 0a8.33 8.33 0 015.141-.015l.111.036c.152.053.299.09.45.132z" fill="#000"/><path d="M31.612 27.943l-.194.055a8.193 8.193 0 00-4.853.076 8.328 8.328 0 01-5.175 0 8.236 8.236 0 00-5.082 0l-.065.023a8.343 8.343 0 01-1.647.355l-.032-.107a8.171 8.171 0 001.645-.353l.065-.021a8.325 8.325 0 015.15 0c1.656.54 3.44.54 5.097 0a8.34 8.34 0 015.09-.028z" fill="#000"/><path d="M30.98 28.122l-.223.063a8.228 8.228 0 00-4.192.24 8.345 8.345 0 01-5.175 0 8.206 8.206 0 00-5.082 0l-.065.02a8.162 8.162 0 01-1.553.339l-.031-.107a8.176 8.176 0 001.55-.34l.066-.024a8.354 8.354 0 015.15 0 8.194 8.194 0 005.096 0 8.334 8.334 0 014.459-.191z" fill="#000"/><path d="M30.219 28.334l-.275.078a8.191 8.191 0 00-3.379.372 8.345 8.345 0 01-5.175 0 8.221 8.221 0 00-5.082 0l-.065.02a8.078 8.078 0 01-1.47.333l-.03-.108a7.849 7.849 0 001.456-.327l.065-.021a8.327 8.327 0 015.15 0 8.22 8.22 0 005.096 0 8.308 8.308 0 013.709-.347z" fill="#000"/><path d="M29.23 28.611l-.396.112a8.168 8.168 0 00-2.269.399 8.314 8.314 0 01-5.175 0 8.236 8.236 0 00-5.082 0l-.065.021a8.044 8.044 0 01-1.366.317l-.03-.105c.463-.065.918-.17 1.362-.315l.065-.021a8.327 8.327 0 015.15 0 8.22 8.22 0 005.097 0 8.304 8.304 0 012.708-.408z" fill="#000"/><path d="M25.771 29.578l-.937.256a8.278 8.278 0 01-3.444-.365 8.221 8.221 0 00-5.082 0l-.065.02a7.989 7.989 0 01-1.26.303l-.03-.105a8 8 0 001.26-.302l.066-.021a8.327 8.327 0 015.15 0 8.194 8.194 0 004.342.214z" fill="#000"/><path d="M23.821 30.124l-.344.095a8.12 8.12 0 01-2.087-.393 8.206 8.206 0 00-5.082 0l-.065.021a8.107 8.107 0 01-1.179.29l-.03-.107c.399-.065.792-.16 1.175-.286l.065-.02a8.34 8.34 0 015.15 0 8.162 8.162 0 002.397.4z" fill="#000"/><path d="M22.842 30.397l-.258.072a7.985 7.985 0 01-1.194-.294 8.236 8.236 0 00-5.082 0l-.065.02a8.055 8.055 0 01-1.086.274l-.03-.105a8.072 8.072 0 001.082-.271l.065-.021a8.327 8.327 0 015.15 0c.462.151.936.26 1.418.325z" fill="#000"/><path d="M22.092 30.608l-.21.058a7.764 7.764 0 01-.491-.142 8.236 8.236 0 00-5.083 0l-.065.023a7.97 7.97 0 01-.992.254l-.029-.105a8 8 0 00.987-.254l.066-.021a8.327 8.327 0 015.15 0c.216.071.442.134.667.187z" fill="#000"/><path d="M21.466 30.782l-.193.055a8.206 8.206 0 00-4.965.031l-.065.021c-.297.097-.6.176-.906.237l-.029-.107c.303-.06.601-.137.895-.233l.065-.023a8.356 8.356 0 015.15 0l.048.019z" fill="#000"/><path d="M20.85 30.954l-.21.061a8.215 8.215 0 00-4.323.21l-.066.021a7.728 7.728 0 01-.804.21c0-.023-.017-.048-.023-.071v-.034c.27-.055.539-.125.802-.21l.065-.02a8.329 8.329 0 014.56-.167z" fill="#000"/><path d="M20.126 31.156l-.263.076a8.22 8.22 0 00-3.555.334l-.065.02c-.21.068-.42.129-.63.18a1.03 1.03 0 01-.07-.097c.225-.05.448-.114.666-.185l.066-.021a8.34 8.34 0 013.85-.307z" fill="#000"/><path d="M19.203 31.414l-.36.101c-.855 0-1.706.135-2.52.4l-.065.022c-.101.034-.21.063-.305.093a1.02 1.02 0 01-.13-.08c.134-.034.269-.074.401-.118l.065-.02a8.344 8.344 0 012.914-.398zM17.692 31.837l-.983.275a1.051 1.051 0 01-.386.033 8.071 8.071 0 011.37-.308z" fill="#000"/><path d="M31.581 12.082l-19.695 5.506a1.05 1.05 0 00-.73 1.295l3.3 11.799a1.05 1.05 0 001.294.728l19.696-5.506a1.05 1.05 0 00.729-1.295l-3.299-11.798a1.05 1.05 0 00-1.294-.73z" fill="#BDBDBD"/><path d="M32.353 14.57h-20.45c-.581 0-1.051.47-1.051 1.05v12.252c0 .58.47 1.05 1.05 1.05h20.451c.58 0 1.05-.47 1.05-1.05V15.62c0-.58-.47-1.05-1.05-1.05z" fill="#4F4F4F"/><path d="M31.868 23.565H12.362a.25.25 0 010-.5h19.506a.25.25 0 010 .5zM16.899 25.918h-4.537a.256.256 0 110-.513H16.9a.257.257 0 010 .513zM31.725 25.912h-2.824a.25.25 0 110-.5h2.824a.25.25 0 110 .5zM15.127 18.636h-.04a.84.84 0 00-.584 0 .904.904 0 01-.63 0 .85.85 0 00-.59 0 .917.917 0 01-.63 0h-.016a1.108 1.108 0 00-.113-.031l.057-.04.075.023h.013c.19.07.397.07.586 0a.91.91 0 01.63 0c.19.069.399.069.589 0a.91.91 0 01.533-.03c.044.02.085.046.12.078z" fill="#BDBDBD"/><path d="M15.232 18.867a.916.916 0 01-.13-.036h-.012a.863.863 0 00-.587 0 .904.904 0 01-.63 0 .863.863 0 00-.59 0 .91.91 0 01-.63 0 .907.907 0 00-.257-.054.34.34 0 01.021-.049.883.883 0 01.244.05c.19.07.398.07.588 0a.909.909 0 01.63 0c.19.07.399.07.589 0a.916.916 0 01.63 0c.034.013.07.023.105.03a.424.424 0 01.03.059zM15.234 19.02v.053a.781.781 0 01-.132-.038h-.015a.857.857 0 00-.588 0 .916.916 0 01-.63 0 .852.852 0 00-.59 0 .903.903 0 01-.631 0h-.015a.92.92 0 00-.269-.05v-.055c.098.002.194.02.286.053h.015c.19.068.397.068.586 0a.91.91 0 01.63 0 .85.85 0 00.595 0 .928.928 0 01.63 0h.013a.723.723 0 00.115.037zM15.234 19.224v.053a1.027 1.027 0 01-.132-.036h-.015a.841.841 0 00-.588 0 .928.928 0 01-.63 0 .864.864 0 00-.59 0 .903.903 0 01-.631 0h-.015a.842.842 0 00-.269-.05v-.05c.098.001.194.019.286.052h.015c.19.069.397.069.586 0a.91.91 0 01.63 0c.192.069.403.069.595 0a.928.928 0 01.63 0h.013c.038.012.076.023.115.031zM15.235 19.43v.053a1.026 1.026 0 01-.133-.036h-.014a.84.84 0 00-.584 0 .88.88 0 01-.63 0 .876.876 0 00-.591 0 .916.916 0 01-.63 0h-.015a.78.78 0 00-.27-.049v-.052c.1 0 .197.019.289.055h.012c.19.069.397.069.586 0a.898.898 0 01.63 0 .87.87 0 00.589 0 .903.903 0 01.63 0h.013a.72.72 0 00.118.029z" fill="#BDBDBD"/><path d="M15.234 19.636v.053a.781.781 0 01-.132-.038h-.015a.857.857 0 00-.588 0 .928.928 0 01-.63 0 .84.84 0 00-.59 0 .91.91 0 01-.631 0h-.015a.798.798 0 00-.269-.049v-.063a.84.84 0 01.286.053h.015c.19.07.397.07.586 0h.013a.896.896 0 01.63 0c.192.07.402.07.595 0a.903.903 0 01.63 0h.012a.742.742 0 00.103.044z" fill="#BDBDBD"/><path d="M15.234 19.84v.052a1.043 1.043 0 01-.132-.035h-.015a.84.84 0 00-.588 0 .903.903 0 01-.63 0 .85.85 0 00-.59 0 .917.917 0 01-.631 0h-.015a.84.84 0 00-.269-.05v-.058a.84.84 0 01.286.05h.015c.19.07.397.07.586 0a.91.91 0 01.63 0 .85.85 0 00.595 0 .928.928 0 01.63 0h.013c.037.016.076.03.115.04zM15.235 20.046v.052a.784.784 0 01-.133-.037h-.014a.84.84 0 00-.584 0 .903.903 0 01-.63 0 .863.863 0 00-.591 0 .903.903 0 01-.63 0h-.015a.735.735 0 00-.27-.05v-.051c.1 0 .197.018.289.052h.012c.19.069.397.069.586 0a.896.896 0 01.63 0c.19.07.4.07.589 0a.903.903 0 01.63 0h.013a.727.727 0 00.118.034zM15.235 20.25v.052a1.013 1.013 0 01-.133-.036h-.012a.854.854 0 00-.586 0 .928.928 0 01-.63 0 .864.864 0 00-.591 0 .91.91 0 01-.63 0 .75.75 0 00-.271-.05v-.046c.098 0 .195.017.287.052.19.07.399.07.589 0a.91.91 0 01.63 0c.19.07.398.07.588 0a.916.916 0 01.63 0 .747.747 0 00.129.027zM15.234 20.456v.05a1.043 1.043 0 01-.132-.036h-.015a.84.84 0 00-.588 0 .917.917 0 01-.63 0 .863.863 0 00-.59 0 .904.904 0 01-.631 0h-.015a.84.84 0 00-.269-.05v-.05c.098 0 .194.019.286.052h.015c.19.07.397.07.586 0a.923.923 0 01.63 0c.192.07.403.07.595 0a.93.93 0 01.63 0h.013a.728.728 0 00.115.034zM15.234 20.66v.052a1.01 1.01 0 01-.132-.036h-.015a.841.841 0 00-.588 0 .916.916 0 01-.63 0 .864.864 0 00-.59 0 .893.893 0 01-.631 0h-.015a.84.84 0 00-.269-.05v-.057c.098.001.195.02.286.054h.015c.19.069.397.069.586 0a.898.898 0 01.63 0c.192.07.403.07.595 0a.903.903 0 01.63 0h.013c.038.014.076.026.115.036zM15.235 20.865v.053a1.026 1.026 0 01-.133-.036h-.014a.84.84 0 00-.584 0 .903.903 0 01-.63 0 .85.85 0 00-.591 0 .916.916 0 01-.63 0h-.015a.735.735 0 00-.27-.05v-.053a.907.907 0 01.289.055h.012c.19.069.397.069.586 0a.91.91 0 01.63 0c.19.07.4.07.589 0a.916.916 0 01.63 0h.013a.723.723 0 00.118.031zM15.217 21.065a.317.317 0 01-.016.048.574.574 0 01-.1-.027h-.014a.882.882 0 00-.588 0 .903.903 0 01-.63 0 .864.864 0 00-.59 0 .91.91 0 01-.631 0h-.015a.851.851 0 00-.26-.049.212.212 0 010-.05c.097 0 .193.019.283.053h.015c.19.069.397.069.586 0h.013a.898.898 0 01.63 0c.192.069.403.069.595 0a.903.903 0 01.63 0h.013c.026.01.052.018.08.025z" fill="#BDBDBD"/><path d="M15.127 21.241l-.044.04a.841.841 0 00-.573 0 .916.916 0 01-.63 0 .851.851 0 00-.591 0 .903.903 0 01-.63 0h-.015a.843.843 0 00-.143-.038.408.408 0 01-.048-.056.875.875 0 01.21.046h.015c.189.07.396.07.586 0a.898.898 0 01.63 0 .85.85 0 00.595 0 .928.928 0 01.63 0l.008.008z" fill="#BDBDBD"/></g><defs><clipPath id="clip0"><path fill="#fff" d="M0 0h46.13v46.13H0z"/></clipPath></defs></svg>