<svg width="18" height="13" viewBox="0 0 18 13" fill="none" xmlns="http://www.w3.org/2000/svg">
<path d="M17.4595 2.29674V1.52863C17.4595 0.96454 17.0004 0.505615 16.4362 0.505615H1.02322C0.459027 0.505615 0 0.96454 0 1.52863V2.29674H17.4595Z" fill="#4F4F4F"/>
<path d="M11.2879 7.75623C10.7246 7.75623 10.2664 8.2144 10.2664 8.77753C10.2664 9.3407 10.7246 9.79885 11.2879 9.79885C11.8511 9.79885 12.3094 9.34067 12.3094 8.77753C12.3094 8.2144 11.8511 7.75623 11.2879 7.75623Z" fill="#4F4F4F"/>
<rect x="8.72974" y="6.72986" width="7.48263" height="4.98842" fill="#4F4F4F"/>
<path d="M0 3.3197H17.4595V4.68372H0V3.3197Z" fill="#4F4F4F"/>
<path d="M13.0769 7.78928C13.4144 8.3976 13.4211 9.14532 13.0769 9.76578C13.7286 9.93506 14.3557 9.43971 14.3557 8.77752C14.3557 8.11491 13.7282 7.62015 13.0769 7.78928Z" fill="#D2DCE8"/>
<path d="M0 5.70679V11.931C0 12.4951 0.459027 12.954 1.02322 12.954H16.4362C17.0004 12.954 17.4595 12.4951 17.4595 11.931V5.70679H0ZM2.61486 7.70081H5.6584C5.94096 7.70081 6.17001 7.92983 6.17001 8.21232C6.17001 8.49481 5.94096 8.72383 5.6584 8.72383H2.61486C2.3323 8.72383 2.10325 8.49481 2.10325 8.21232C2.10325 7.92983 2.3323 7.70081 2.61486 7.70081ZM7.1949 10.7699H2.61486C2.3323 10.7699 2.10325 10.5408 2.10325 10.2584C2.10325 9.97586 2.3323 9.74684 2.61486 9.74684H7.1949C7.47746 9.74684 7.70651 9.97586 7.70651 10.2584C7.70651 10.5408 7.47746 10.7699 7.1949 10.7699ZM12.3103 10.5467C10.9592 11.3304 9.24304 10.3547 9.24304 8.77754C9.24304 7.20312 10.9565 6.2231 12.3103 7.00837C13.6655 6.22375 15.3789 7.20261 15.3789 8.77754C15.3789 10.35 13.6679 11.3328 12.3103 10.5467Z" fill="#4F4F4F"/>
</svg>
