<svg width="47" height="47" fill="none" xmlns="http://www.w3.org/2000/svg"><g clip-path="url(#clip0)"><path d="M23.065 46.13c12.738 0 23.065-10.327 23.065-23.065C46.13 10.326 35.803 0 23.065 0 10.326 0 0 10.326 0 23.065 0 35.803 10.326 46.13 23.065 46.13z" fill="#FDC500"/><path d="M33.616 13.1a8.08 8.08 0 01-1.378-.231l.21-.06c.34.08.687.137 1.036.169a.878.878 0 01.132.122zM33.826 13.463a8.24 8.24 0 01-2.08-.384l-.111-.036.193-.054a7.987 7.987 0 001.962.363.908.908 0 01.036.111zM33.92 13.818a8.193 8.193 0 01-2.18-.39l-.111-.036a8.883 8.883 0 00-.63-.177l.21-.058c.153.037.306.084.457.132l.112.036c.685.22 1.396.349 2.116.382l.027.111zM34.02 14.17a8.16 8.16 0 01-2.28-.394l-.111-.035a7.852 7.852 0 00-1.387-.316l.252-.07c.396.064.787.16 1.168.283l.112.036c.716.23 1.462.361 2.214.388l.032.107zM34.116 14.52a8.15 8.15 0 01-2.376-.395l-.111-.036a8.074 8.074 0 00-2.366-.39l.342-.095c.7.039 1.39.168 2.057.383l.111.035a8.076 8.076 0 002.312.391l.031.107zM25.96 14.623l.48-.134c-.158.05-.318.096-.48.134zM34.215 14.873a8.32 8.32 0 01-2.475-.397l-.111-.036a8.218 8.218 0 00-4.354-.184l.975-.274c1.15-.12 2.312 0 3.412.353l.112.038c.78.252 1.592.384 2.412.391l.029.11z" fill="#000"/><path d="M34.314 15.224h-.025a8.262 8.262 0 01-2.549-.4l-.111-.035a8.223 8.223 0 00-5.064 0 8.287 8.287 0 01-2.714.42l.401-.113a8.168 8.168 0 002.27-.4 8.331 8.331 0 015.14-.014l.112.035a8.143 8.143 0 002.521.395l.019.112z" fill="#000"/><path d="M34.41 15.57h-.121a8.262 8.262 0 01-2.549-.399l-.111-.035a8.207 8.207 0 00-5.064.012 8.345 8.345 0 01-3.7.338l.276-.077a8.195 8.195 0 003.38-.362 8.344 8.344 0 015.141-.014l.112.035a8.14 8.14 0 002.607.393l.03.11z" fill="#000"/><path d="M34.507 15.92h-.21a8.329 8.329 0 01-2.548-.4l-.112-.038a8.237 8.237 0 00-5.063.013 8.32 8.32 0 01-4.455.21l.21-.063a8.194 8.194 0 004.203-.24 8.346 8.346 0 015.14-.014l.112.035c.873.281 1.787.413 2.704.391l.02.105z" fill="#000"/><path d="M34.606 16.266h-.317a8.267 8.267 0 01-2.549-.4l-.111-.035a8.223 8.223 0 00-5.064.01 8.327 8.327 0 01-5.09.03l.197-.055c1.585.47 3.276.45 4.85-.059a8.33 8.33 0 015.14-.012l.112.036c.904.29 1.852.42 2.8.386l.032.099z" fill="#000"/><path d="M34.7 16.61h-.42a8.26 8.26 0 01-2.548-.399l-.112-.035a8.223 8.223 0 00-5.063 0 8.314 8.314 0 01-5.175 0 9.36 9.36 0 00-.525-.154l.21-.056c.12.031.237.069.355.107 1.656.54 3.441.54 5.097 0a8.346 8.346 0 015.141-.015l.112.036c.932.31 1.913.448 2.895.41l.033.106z" fill="#000"/><path d="M34.797 16.953a8.268 8.268 0 01-3.057-.382l-.111-.036a8.207 8.207 0 00-5.064.013 8.328 8.328 0 01-5.175 0 7.914 7.914 0 00-1.241-.3l.243-.07a8.35 8.35 0 011.038.269 8.193 8.193 0 005.097 0 8.346 8.346 0 015.142-.015l.11.036a8.21 8.21 0 002.995.38l.023.105z" fill="#000"/><path d="M34.894 17.298a8.33 8.33 0 01-3.154-.376l-.111-.036a8.207 8.207 0 00-5.064 0 8.345 8.345 0 01-5.174 0 8.095 8.095 0 00-2.154-.397l.313-.089c.64.059 1.271.191 1.88.395a8.193 8.193 0 005.098 0 8.345 8.345 0 015.14-.014l.112.035c.996.32 2.045.447 3.088.374l.026.108z" fill="#000"/><path d="M34.988 17.648a8.267 8.267 0 01-3.248-.37l-.111-.035a8.223 8.223 0 00-5.064 0 8.314 8.314 0 01-5.175 0 8.214 8.214 0 00-3.624-.334l.59-.166a8.26 8.26 0 013.074.403c1.657.54 3.441.54 5.098 0a8.316 8.316 0 015.14-.015l.112.036a8.22 8.22 0 003.185.368l.023.113z" fill="#000"/><path d="M35.087 17.978a8.262 8.262 0 01-3.343-.36l-.111-.035a8.207 8.207 0 00-5.063.013 8.328 8.328 0 01-5.175 0 8.236 8.236 0 00-5.083 0l-.065.021a8.24 8.24 0 01-2.41.403l.45-.132a8.117 8.117 0 001.92-.378l.065-.021a8.327 8.327 0 015.15 0 8.22 8.22 0 005.097 0 8.346 8.346 0 015.141-.015l.112.036a8.18 8.18 0 003.28.357l.035.111z" fill="#000"/><path d="M35.18 18.319a8.322 8.322 0 01-3.44-.349l-.111-.038a8.207 8.207 0 00-5.064.013 8.328 8.328 0 01-5.175 0 8.221 8.221 0 00-5.082 0l-.065.02a8.31 8.31 0 01-3.48.356l.083-.028.21-.056a8.229 8.229 0 003.153-.378l.065-.024a8.34 8.34 0 015.15 0 8.193 8.193 0 005.097 0 8.345 8.345 0 015.141-.014l.111.035c1.09.351 2.24.47 3.377.35l.03.113z" fill="#000"/><path d="M35.274 18.659a8.323 8.323 0 01-3.534-.34l-.111-.036a8.224 8.224 0 00-5.064 0 8.345 8.345 0 01-5.175 0 8.206 8.206 0 00-5.082 0l-.065.02a8.345 8.345 0 01-3.906.3.85.85 0 01.097-.098 8.242 8.242 0 003.782-.304l.065-.021a8.34 8.34 0 015.15 0 8.195 8.195 0 005.096 0 8.345 8.345 0 015.142-.015l.111.036c1.12.36 2.303.476 3.47.338l.024.12z" fill="#000"/><path d="M35.368 18.995a8.26 8.26 0 01-3.628-.328l-.111-.035a8.224 8.224 0 00-5.064 0 8.314 8.314 0 01-5.175 0 8.236 8.236 0 00-5.082 0l-.065.02a8.357 8.357 0 01-4.095.266.647.647 0 01.046-.103c1.34.246 2.72.155 4.015-.265l.065-.021a8.326 8.326 0 015.15 0 8.22 8.22 0 005.097 0 8.33 8.33 0 015.141-.015l.111.036a8.193 8.193 0 003.572.325l.023.12z" fill="#000"/><path d="M35.46 19.33a8.262 8.262 0 01-3.72-.315l-.111-.037a8.207 8.207 0 00-5.064.013 8.328 8.328 0 01-5.175 0 8.236 8.236 0 00-5.082 0l-.065.023a8.31 8.31 0 01-4.164.25.622.622 0 010-.11 8.209 8.209 0 004.13-.245l.065-.021a8.325 8.325 0 015.15 0c1.656.54 3.44.54 5.097 0a8.344 8.344 0 015.141-.015l.111.036c1.18.38 2.431.487 3.658.313l.03.107z" fill="#000"/><path d="M35.555 19.668a8.37 8.37 0 01-3.815-.3l-.111-.039a8.239 8.239 0 00-5.064.013 8.328 8.328 0 01-5.175 0 8.223 8.223 0 00-5.082 0l-.065.021a8.34 8.34 0 01-4.116.26v-.035a.576.576 0 01-.019-.082 8.224 8.224 0 004.112-.246l.065-.023a8.342 8.342 0 015.15 0 8.194 8.194 0 005.097 0 8.345 8.345 0 015.14-.015l.112.036c1.21.39 2.495.493 3.752.3l.02.11z" fill="#000"/><path d="M35.65 21,104.034c-.45.074-.905.11-1.361.111a8.267 8.267 0 01-2.549-.399l-.111-.036a8.223 8.223 0 00-5.064 0 8.345 8.345 0 01-5.175 0 8.206 8.206 0 00-5.082 0l-.065.021a8.36 8.36 0 01-4.013.28l-.034-.118a8.228 8.228 0 004.013-.265l.065-.02a8.342 8.342 0 015.15 0 8.194 8.194 0 005.097 0 8.33 8.33 0 015.141-.013l.112.035a8.26 8.26 0 003.846.286l.03.118z" fill="#000"/><path d="M35.742 20.336a8.326 8.326 0 01-4.002-.271l-.111-.036a8.224 8.224 0 00-5.064 0 8.314 8.314 0 01-5.175 0 8.236 8.236 0 00-5.082 0l-.065.02a8.344 8.344 0 01-3.912.297l-.032-.115a8.224 8.224 0 003.91-.271l.066-.021a8.326 8.326 0 015.15 0 8.22 8.22 0 005.096 0 8.33 8.33 0 015.141-.015l.112.036a8.213 8.213 0 003.943.27l.025.106z" fill="#000"/><path d="M35.835 20.668a8.328 8.328 0 01-4.095-.254l-.111-.036a8.207 8.207 0 00-5.064.012 8.328 8.328 0 01-5.175 0 8.236 8.236 0 00-5.082 0l-.065.024a8.3 8.3 0 01-3.81.31l-.037-.117a8.235 8.235 0 003.807-.303l.065-.02a8.341 8.341 0 015.15 0c1.656.54 3.44.54 5.097 0a8.346 8.346 0 015.14-.015l.112.035a8.195 8.195 0 004.032.253l.036.11z" fill="#000"/><path d="M35.927 21.01c-1.393.28-2.834.2-4.187-.235l-.111-.038a8.239 8.239 0 00-5.064.013 8.344 8.344 0 01-5.175 0 8.207 8.207 0 00-5.082 0l-.065.02a8.308 8.308 0 01-3.708.326l-.032-.115c1.243.18 2.51.072 3.706-.313l.065-.021a8.342 8.342 0 015.15 0 8.194 8.194 0 005.097 0 8.345 8.345 0 015.141-.015l.111.036a8.225 8.225 0 004.125.235l.03.107z" fill="#000"/><path d="M36.02 21.33a8.315 8.315 0 01-4.28-.21l-.111-.036a8.224 8.224 0 00-5.064.01 8.314 8.314 0 01-5.175 0 8.221 8.221 0 00-5.082 0l-.065.021a8.287 8.287 0 01-3.605.338l-.032-.11a8.212 8.212 0 003.603-.333l.065-.02a8.326 8.326 0 015.15 0 8.22 8.22 0 005.097 0 8.316 8.316 0 015.141-.015l.111.035a8.209 8.209 0 004.217.21l.03.11z" fill="#000"/><path d="M36.112 21.66a8.338 8.338 0 01-4.372-.198l-.111-.036a8.223 8.223 0 00-5.064 0 8.314 8.314 0 01-5.175 0 8.236 8.236 0 00-5.082 0l-.065.02a8.289 8.289 0 01-3.504.352l-.032-.112a8.208 8.208 0 003.502-.342l.066-.021a8.326 8.326 0 015.15 0c1.655.54 3.44.54 5.096 0a8.345 8.345 0 015.141-.015l.112.036a8.182 8.182 0 004.309.193l.03.122z" fill="#000"/><path d="M36.205 21.987a8.343 8.343 0 01-4.465-.176l-.111-.036a8.207 8.207 0 00-5.064.012 8.328 8.328 0 01-5.175 0 8.221 8.221 0 00-5.082 0l-.065.021a8.305 8.305 0 01-3.404.362l-.023-.11a8.217 8.217 0 003.402-.35l.065-.023a8.34 8.34 0 015.15 0 8.206 8.206 0 005.096 0 8.345 8.345 0 015.142-.015l.11.036a8.247 8.247 0 004.413.176l.01.103z" fill="#000"/><path d="M36.295 22.313a8.323 8.323 0 01-4.555-.151l-.111-.036a8.224 8.224 0 00-5.064 0 8.345 8.345 0 01-5.175 0 8.206 8.206 0 00-5.082 0l-.065.02a8.31 8.31 0 01-3.305.373l-.032-.114a8.216 8.216 0 003.303-.344l.065-.021a8.34 8.34 0 015.15 0 8.195 8.195 0 005.097 0 8.345 8.345 0 015.141-.015l.112.036c1.454.467 3.009.52 4.492.153l.029.099z" fill="#000"/><path d="M36.388 22.64a8.33 8.33 0 01-4.648-.13l-.111-.036a8.223 8.223 0 00-5.064 0 8.314 8.314 0 01-5.175 0 8.236 8.236 0 00-5.082 0l-.065.021a8.32 8.32 0 01-3.204.38l-.031-.109a8.229 8.229 0 003.201-.373l.066-.022a8.327 8.327 0 015.15 0c1.655.54 3.44.54 5.096 0a8.346 8.346 0 015.141-.014l.112.035a8.221 8.221 0 004.584.129l.03.12z" fill="#000"/><path d="M36.478 22.966a8.343 8.343 0 01-4.738-.107l-.111-.036a8.207 8.207 0 00-5.064.013 8.328 8.328 0 01-5.175 0 8.237 8.237 0 00-5.082 0l-.065.023a8.276 8.276 0 01-3.105.384l-.03-.109a8.21 8.21 0 003.101-.38l.065-.021a8.326 8.326 0 015.15 0 8.22 8.22 0 005.097 0 8.345 8.345 0 015.141-.015l.111.036a8.217 8.217 0 004.675.105l.03.107z" fill="#000"/><path d="M36.568 23.29a8.364 8.364 0 01-4.832-.08l-.111-.038a8.223 8.223 0 00-5.064.013 8.328 8.328 0 01-5.175 0 8.221 8.221 0 00-5.082 0l-.065.02a8.274 8.274 0 01-3.003.392l-.031-.112a8.178 8.178 0 003.004-.374l.066-.023a8.34 8.34 0 015.15 0 8.195 8.195 0 005.096 0 8.344 8.344 0 015.141-.015l.112.036a8.22 8.22 0 004.765.08l.03.1z" fill="#000"/><path d="M36.658 23.611a8.169 8.169 0 01-2.37.34 8.262 8.262 0 01-2.548-.399l-.111-.035a8.224 8.224 0 00-5.064.01 8.345 8.345 0 01-5.175 0 8.207 8.207 0 00-5.082 0l-.065.021a8.36 8.36 0 01-2.906.404l-.031-.112a8.196 8.196 0 002.903-.39l.065-.021a8.34 8.34 0 015.15 0 8.195 8.195 0 005.097 0 8.345 8.345 0 015.141-.015l.111.038a8.245 8.245 0 004.856.052l.03.107z" fill="#000"/><path d="M36.749 23.933a8.307 8.307 0 01-5.009-.026l-.111-.035a8.223 8.223 0 00-5.064 0 8.314 8.314 0 01-5.175 0 8.206 8.206 0 00-5.082 0l-.065.02a8.314 8.314 0 01-2.796.41l-.032-.109c.95.032 1.9-.101 2.805-.395l.065-.02a8.326 8.326 0 015.15 0c1.656.539 3.44.539 5.097 0a8.345 8.345 0 015.14-.016l.112.036a8.21 8.21 0 004.946.025l.019.11z" fill="#000"/><path d="M36.839 24.256a8.341 8.341 0 01-5.1 0l-.11-.036a8.207 8.207 0 00-5.064.013 8.328 8.328 0 01-5.175 0 8.237 8.237 0 00-5.082 0l-.065.023a8.286 8.286 0 01-2.71.401l-.03-.109a8.105 8.105 0 002.706-.397l.065-.02a8.326 8.326 0 015.15 0 8.22 8.22 0 005.097 0 8.345 8.345 0 015.141-.016l.111.036a8.23 8.23 0 005.043 0l.023.105z" fill="#000"/><path d="M36.927 24.582l-.065.02a8.327 8.327 0 01-5.114 0l-.111-.037a8.237 8.237 0 00-5.063.013 8.345 8.345 0 01-5.175 0 8.206 8.206 0 00-5.082 0l-.066.02c-.846.275-1.73.41-2.62.404l-.029-.111a8.193 8.193 0 002.607-.397l.066-.021a8.341 8.341 0 015.149 0 8.194 8.194 0 005.097 0 8.346 8.346 0 015.141-.015l.112.036a8.231 8.231 0 005.042 0l.065-.021h.013l.033.109z" fill="#000"/><path d="M37.018 24.899l-.099.03-.065.02a8.327 8.327 0 01-5.114 0l-.111-.035a8.224 8.224 0 00-5.064 0 8.314 8.314 0 01-5.175 0 8.206 8.206 0 00-5.082 0l-.065.02a8.295 8.295 0 01-2.521.406l-.032-.11c.857.001 1.707-.134 2.522-.398l.065-.021a8.326 8.326 0 015.15 0 8.22 8.22 0 005.096 0 8.316 8.316 0 015.142-.015l.11.036a8.231 8.231 0 005.043 0l.065-.021.103-.032.032.12z" fill="#000"/><path d="M37.108 25.212l-.189.059-.065.021a8.327 8.327 0 01-5.114 0l-.111-.036a8.223 8.223 0 00-5.064 0 8.314 8.314 0 01-5.175 0 8.236 8.236 0 00-5.082 0l-.065.021c-.78.255-1.595.39-2.416.404l-.03-.108a8.122 8.122 0 002.412-.399l.066-.02a8.327 8.327 0 015.15 0 8.22 8.22 0 005.096 0 8.346 8.346 0 015.141-.015l.112.035a8.215 8.215 0 005.042 0l.065-.02c.065-.022.128-.043.194-.06l.033.118z" fill="#000"/><path d="M37.171 25.55l-.252.078-.065.021a8.348 8.348 0 01-5.114 0l-.111-.036a8.206 8.206 0 00-5.064.013 8.33 8.33 0 01-5.175 0 8.221 8.221 0 00-5.082 0l-.065.021a8.285 8.285 0 01-2.311.401l-.03-.109a8.11 8.11 0 002.312-.395l.065-.023a8.327 8.327 0 015.15 0 8.193 8.193 0 005.096 0 8.346 8.346 0 015.142-.015l.11.036a8.232 8.232 0 005.043 0l.065-.023c.09-.03.183-.059.276-.084.006.038.01.077.01.115z" fill="#000"/><path d="M37.152 25.794a.724.724 0 01-.03.12l-.21.063-.065.02a8.327 8.327 0 01-5.113 0l-.112-.035a8.223 8.223 0 00-5.063.01 8.345 8.345 0 01-5.175 0 8.205 8.205 0 00-5.082 0l-.065.022a8.261 8.261 0 01-2.223.399l-.03-.11a8.136 8.136 0 002.219-.392l.065-.021a8.342 8.342 0 015.15 0 8.194 8.194 0 005.097 0 8.345 8.345 0 015.14-.015l.112.036a8.231 8.231 0 005.043 0l.065-.021c.103-.028.187-.053.277-.076z" fill="#000"/><path d="M36.978 26.191a1.139 1.139 0 01-.13.156 8.327 8.327 0 01-5.114 0l-.112-.036a8.223 8.223 0 00-5.063 0 8.314 8.314 0 01-5.175 0 8.236 8.236 0 00-5.082 0l-.066.021a8.148 8.148 0 01-2.126.393l-.03-.107a8.114 8.114 0 002.123-.389l.065-.02a8.327 8.327 0 015.15 0 8.22 8.22 0 005.097 0 8.316 8.316 0 015.14-.016l.112.036a8.231 8.231 0 005.043 0l.065-.02.103-.018z" fill="#000"/><path d="M35.202 26.941l-.535.162h-.379a8.262 8.262 0 01-2.548-.4l-.111-.035a8.207 8.207 0 00-5.064.013 8.328 8.328 0 01-5.175 0 8.237 8.237 0 00-5.082 0l-.065.023a8.136 8.136 0 01-2.03.386l-.03-.107a8.12 8.12 0 002.026-.384l.065-.021a8.325 8.325 0 015.15 0c1.656.54 3.44.54 5.097 0a8.345 8.345 0 015.141-.015l.111.036a8.207 8.207 0 003.43.342z" fill="#000"/><path d="M33.826 27.328l-.302.084a8.032 8.032 0 01-1.78-.36l-.111-.037a8.223 8.223 0 00-5.064.012 8.33 8.33 0 01-5.174 0 8.221 8.221 0 00-5.083 0l-.065.021a8.21 8.21 0 01-1.933.383l-.027-.118a8.074 8.074 0 001.93-.376l.066-.023a8.356 8.356 0 015.15 0 8.193 8.193 0 005.096 0 8.345 8.345 0 015.142-.015l.111.036c.662.219 1.349.35 2.044.393z" fill="#000"/><path d="M32.93 27.578l-.242.067a8.1783 8.1783 0 01-.948-.1783l-.111-.035a8.223 8.223 0 00-5.064.01 8.345 8.345 0 01-5.175 0 8.207 8.207 0 00-5.082 0l-.065.021a8.092 8.092 0 01-1.838.372l-.03-.107a7.942 7.942 0 001.834-.368l.066-.02a8.34 8.34 0 015.15 0 8.195 8.195 0 005.096 0 8.344 8.344 0 015.141-.015l.112.037c.377.123.764.217 1.155.282z" fill="#000"/><path d="M32.22 27.775l-.211.059-.273-.084-.111-.036a8.223 8.223 0 00-5.064.01 8.314 8.314 0 01-5.175 0 8.236 8.236 0 00-5.082 0l-.065.022a8.126 8.126 0 01-1.744.363l-.03-.105a7.949 7.949 0 001.74-.361l.065-.021a8.327 8.327 0 015.15 0c1.656.54 3.44.54 5.097 0a8.331 8.331 0 015.141-.015l.111.036c.152.052.299.09.45.132z" fill="#000"/><path d="M31.612 27.944l-.193.054a8.194 8.194 0 00-4.854.076 8.328 8.328 0 01-5.175 0 8.236 8.236 0 00-5.082 0l-.065.023a8.343 8.343 0 01-1.647.355l-.032-.107a8.173 8.173 0 001.645-.353l.065-.021a8.326 8.326 0 015.15 0 8.22 8.22 0 005.097 0 8.34 8.34 0 015.09-.027z" fill="#000"/><path d="M30.98 28.122l-.223.063a8.228 8.228 0 00-4.192.24 8.345 8.345 0 01-5.175 0 8.206 8.206 0 00-5.082 0l-.065.02a8.162 8.162 0 01-1.553.339l-.031-.107a8.168 8.168 0 001.55-.34l.065-.024a8.355 8.355 0 015.15 0 8.195 8.195 0 005.097 0 8.334 8.334 0 014.458-.19z" fill="#000"/><path d="M30.219 28.334l-.275.078a8.195 8.195 0 00-3.379.372 8.345 8.345 0 01-5.175 0 8.221 8.221 0 00-5.082 0l-.065.02a8.07 8.07 0 01-1.47.333l-.03-.108a7.847 7.847 0 001.456-.327l.065-.021a8.327 8.327 0 015.15 0c1.656.54 3.44.54 5.097 0a8.308 8.308 0 013.708-.347z" fill="#000"/><path d="M29.23 28.611l-.396.112a8.169 8.169 0 00-2.269.4 8.314 8.314 0 01-5.175 0 8.236 8.236 0 00-5.082 0l-.065.02a8.052 8.052 0 01-1.366.317l-.029-.105c.462-.065.918-.17 1.361-.315l.066-.02a8.327 8.327 0 015.15 0c1.655.54 3.44.54 5.096 0a8.306 8.306 0 012.708-.409z" fill="#000"/><path d="M25.771 29.578l-.937.256a8.279 8.279 0 01-3.444-.365 8.221 8.221 0 00-5.082 0l-.065.02a7.989 7.989 0 01-1.26.303l-.03-.105a8 8 0 001.26-.302l.066-.021a8.327 8.327 0 015.15 0 8.194 8.194 0 004.342.214z" fill="#000"/><path d="M23.821 30.124l-.344.095a8.12 8.12 0 01-2.087-.393 8.206 8.206 0 00-5.082 0l-.065.021c-.385.126-.78.223-1.179.29l-.03-.107c.4-.065.792-.16 1.175-.286l.066-.02a8.341 8.341 0 015.149 0 8.156 8.156 0 002.397.4z" fill="#000"/><path d="M22.842 30.398l-.258.07a7.988 7.988 0 01-1.194-.293 8.236 8.236 0 00-5.082 0l-.065.02a8.056 8.056 0 01-1.086.274l-.03-.105a8.053 8.053 0 001.082-.271l.066-.021a8.327 8.327 0 015.149 0c.462.151.937.26 1.418.326z" fill="#000"/><path d="M22.092 30.607l-.21.06a7.744 7.744 0 01-.492-.144 8.236 8.236 0 00-5.082 0l-.065.024c-.325.105-.656.19-.992.254l-.03-.105a8 8 0 00.988-.255l.065-.02a8.327 8.327 0 015.15 0c.216.07.443.134.668.186z" fill="#000"/><path d="M21.466 30.782l-.193.055a8.205 8.205 0 00-4.965.031l-.065.021c-.297.097-.6.176-.905.238l-.03-.108c.303-.06.602-.137.895-.233l.065-.023a8.356 8.356 0 015.15 0l.048.019z" fill="#000"/><path d="M20.85 30.954l-.21.061a8.215 8.215 0 00-4.323.21l-.066.021a7.703 7.703 0 01-.804.21c0-.023-.017-.048-.023-.07v-.035c.27-.055.539-.125.802-.21l.065-.02a8.328 8.328 0 014.56-.167z" fill="#000"/><path d="M20.126 31.156l-.263.076a8.222 8.222 0 00-3.555.334l-.065.02c-.21.068-.42.129-.63.18a1.013 1.013 0 01-.07-.097 7.27 7.27 0 00.666-.185l.066-.021a8.342 8.342 0 013.85-.307z" fill="#000"/><path d="M19.203 31.414l-.359.101c-.856 0-1.707.135-2.521.4l-.065.022c-.101.034-.21.063-.305.093a1.027 1.027 0 01-.13-.08c.134-.034.269-.073.401-.118l.065-.02a8.344 8.344 0 012.914-.398zM17.693 31.836l-.984.276a1.049 1.049 0 01-.386.033 8.07 8.07 0 011.37-.309z" fill="#000"/><path d="M31.581 12.082l-19.696 5.507a1.05 1.05 0 00-.729 1.294l3.3 11.799a1.05 1.05 0 001.294.729l19.696-5.507a1.05 1.05 0 00.729-1.295l-3.3-11.798a1.05 1.05 0 00-1.294-.73z" fill="#FDEBAA"/><path d="M32.354 14.57H11.902c-.58 0-1.05.47-1.05 1.05v12.252c0 .58.47 1.05 1.05 1.05h20.452c.58 0 1.05-.47 1.05-1.05V15.62c0-.58-.47-1.05-1.05-1.05z" fill="#12122C"/><path d="M31.868 23.565H12.363a.25.25 0 110-.5h19.505a.25.25 0 110 .5zM16.898 25.918h-4.536a.256.256 0 110-.513h4.536a.256.256 0 110 .513zM31.725 25.912h-2.823a.25.25 0 110-.5h2.823a.25.25 0 110 .5zM15.127 18.636h-.04a.84.84 0 00-.584 0 .903.903 0 01-.63 0 .852.852 0 00-.59 0 .916.916 0 01-.63 0h-.015a1.168 1.168 0 00-.114-.032l.057-.04.075.023h.013c.19.07.397.07.586 0a.91.91 0 01.63 0c.19.07.399.07.589 0a.91.91 0 01.534-.029c.043.02.084.046.12.078z" fill="#FDEBAA"/><path d="M15.232 18.867a.916.916 0 01-.13-.036h-.013a.863.863 0 00-.586 0 .903.903 0 01-.63 0 .863.863 0 00-.59 0 .91.91 0 01-.63 0 .907.907 0 00-.257-.054.34.34 0 01.02-.049.883.883 0 01.245.05c.19.07.398.07.588 0a.91.91 0 01.63 0c.19.07.399.07.588 0a.916.916 0 01.63 0c.035.013.07.023.106.03a.43.43 0 01.03.059zM15.235 19.02v.053a.784.784 0 01-.133-.038h-.015a.858.858 0 00-.588 0 .916.916 0 01-.63 0 .852.852 0 00-.59 0 .903.903 0 01-.63 0h-.015a.928.928 0 00-.27-.05v-.055c.098.002.194.02.286.053h.015c.19.068.397.068.586 0a.91.91 0 01.63 0 .85.85 0 00.595 0 .928.928 0 01.63 0h.013a.709.709 0 00.116.037zM15.235 19.224v.053a1.043 1.043 0 01-.133-.036h-.015a.84.84 0 00-.588 0 .93.93 0 01-.63 0 .863.863 0 00-.59 0 .904.904 0 01-.63 0h-.015a.84.84 0 00-.27-.05v-.05c.098.001.194.019.286.052h.015c.19.07.397.07.586 0a.91.91 0 01.63 0c.193.07.403.07.595 0a.93.93 0 01.63 0h.013c.038.013.076.023.116.031zM15.234 19.43v.053a1.027 1.027 0 01-.132-.036h-.015a.84.84 0 00-.584 0 .88.88 0 01-.63 0 .876.876 0 00-.59 0 .916.916 0 01-.63 0h-.015a.781.781 0 00-.27-.048v-.053c.1 0 .197.019.288.055h.013c.19.069.397.069.586 0a.898.898 0 01.63 0 .87.87 0 00.589 0 .903.903 0 01.63 0h.013a.724.724 0 00.117.03z" fill="#FDEBAA"/><path d="M15.235 19.636v.053a.784.784 0 01-.133-.038h-.015a.857.857 0 00-.588 0 .928.928 0 01-.63 0 .84.84 0 00-.59 0 .91.91 0 01-.63 0h-.015a.796.796 0 00-.27-.048v-.064a.84.84 0 01.286.053h.015c.19.07.397.07.586 0h.013a.896.896 0 01.63 0c.192.07.402.07.595 0a.903.903 0 01.63 0h.013a.736.736 0 00.103.044z" fill="#FDEBAA"/><path d="M15.235 19.84v.052a1.043 1.043 0 01-.133-.035h-.015a.84.84 0 00-.588 0 .904.904 0 01-.63 0 .85.85 0 00-.59 0 .917.917 0 01-.63 0h-.015a.84.84 0 00-.27-.05v-.057c.098 0 .195.017.286.05h.015c.19.07.397.07.586 0a.909.909 0 01.63 0 .85.85 0 00.595 0 .928.928 0 01.63 0h.013c.038.015.076.029.116.04zM15.234 20.046v.052a.784.784 0 01-.132-.037h-.015a.84.84 0 00-.584 0 .903.903 0 01-.63 0 .863.863 0 00-.59 0 .903.903 0 01-.63 0h-.015a.735.735 0 00-.27-.05v-.051c.099 0 .196.018.288.052h.013c.19.069.397.069.586 0a.896.896 0 01.63 0c.19.07.399.07.589 0a.903.903 0 01.63 0h.013a.728.728 0 00.117.034zM15.234 20.25v.052a1.025 1.025 0 01-.132-.036h-.013a.854.854 0 00-.586 0 .928.928 0 01-.63 0 .864.864 0 00-.59 0 .909.909 0 01-.63 0 .75.75 0 00-.272-.05v-.046c.099 0 .196.017.288.052.19.07.398.07.588 0a.91.91 0 01.63 0c.19.07.399.07.589 0a.917.917 0 01.63 0 .738.738 0 00.128.027zM15.235 20.455v.05a1.027 1.027 0 01-.133-.035h-.015a.841.841 0 00-.588 0 .916.916 0 01-.63 0 .864.864 0 00-.59 0 .903.903 0 01-.63 0h-.015a.843.843 0 00-.27-.05v-.05c.098 0 .195.018.286.052h.015c.19.069.397.069.586 0a.923.923 0 01.63 0c.193.069.403.069.595 0a.928.928 0 01.63 0h.013a.724.724 0 00.116.033zM15.235 20.66v.052a1.026 1.026 0 01-.133-.036h-.015a.84.84 0 00-.588 0 .916.916 0 01-.63 0 .864.864 0 00-.59 0 .893.893 0 01-.63 0h-.015a.84.84 0 00-.27-.05v-.057a.84.84 0 01.286.055h.015c.19.068.397.068.586 0a.898.898 0 01.63 0c.193.069.403.069.595 0a.903.903 0 01.63 0h.013c.038.014.076.026.116.035zM15.234 20.865v.053a1.026 1.026 0 01-.132-.036h-.015a.84.84 0 00-.584 0 .903.903 0 01-.63 0 .85.85 0 00-.59 0 .916.916 0 01-.63 0h-.015a.735.735 0 00-.27-.05v-.053c.099.003.196.021.288.055h.013c.19.069.397.069.586 0a.91.91 0 01.63 0c.19.07.4.07.589 0a.916.916 0 01.63 0h.013a.727.727 0 00.117.031zM15.218 21.065a.317.317 0 01-.017.048.573.573 0 01-.099-.027h-.015a.882.882 0 00-.588 0 .903.903 0 01-.63 0 .864.864 0 00-.59 0 .91.91 0 01-.63 0h-.016a.857.857 0 00-.26-.048.202.202 0 010-.05c.097 0 .193.018.284.052h.014c.19.069.397.069.586 0h.013a.898.898 0 01.63 0c.192.069.403.069.595 0a.903.903 0 01.63 0h.013c.026.01.053.018.08.025z" fill="#FDEBAA"/><path d="M15.127 21.241l-.044.04a.84.84 0 00-.573 0 .917.917 0 01-.63 0 .85.85 0 00-.59 0 .903.903 0 01-.631 0h-.015a.84.84 0 00-.143-.038.403.403 0 01-.048-.057.88.88 0 01.21.047h.015c.189.07.397.07.586 0a.896.896 0 01.63 0 .85.85 0 00.595 0 .928.928 0 01.63 0l.008.008z" fill="#FDEBAA"/></g><defs><clipPath id="clip0"><path fill="#fff" d="M0 0h46.13v46.13H0z"/></clipPath></defs></svg>