<svg width="7" height="7" viewBox="0 0 7 7" fill="none" xmlns="http://www.w3.org/2000/svg">
<g clip-path="url(#clip0)">
<path d="M4.99999 1.25H0.749999C0.335786 1.25 0 1.58579 0 2V6.24999C0 6.66421 0.335786 6.99999 0.749999 6.99999H4.99999C5.41421 6.99999 5.74999 6.66421 5.74999 6.24999V2C5.74999 1.58579 5.41421 1.25 4.99999 1.25Z" fill="white"/>
<path d="M6.25001 4.8428e-10H1.75001C1.33804 -1.46479e-05 1.00318 0.332285 1.00002 0.744243C1.00002 0.74625 1.00002 0.747993 1.00002 0.75H5.00002C5.69003 0.75082 6.24919 1.30998 6.25001 1.99999V6C6.25202 6 6.25376 6 6.25577 6C6.66774 5.99683 7.00003 5.66197 7.00001 5.25V0.75C7.00001 0.335786 6.66423 4.8428e-10 6.25001 4.8428e-10Z" fill="white"/>
</g>
<defs>
<clipPath id="clip0">
<rect width="7" height="7" fill="white"/>
</clipPath>
</defs>
</svg>
