<svg width="47" height="46" fill="none" xmlns="http://www.w3.org/2000/svg"><g clip-path="url(#a)"><path d="M46.375 23c0 .594-.038 1.17-.077 1.744a24.028 24.028 0 0 1-.766 4.428c-.384 1.399-.901 2.76-1.553 4.044-.153.287-.287.556-.44.824-.135.23-.25.46-.403.69-.02.058-.058.096-.096.153-.21.345-.422.671-.633 1.016-.095.154-.21.307-.306.46a23.545 23.545 0 0 1-5.386 5.386c-.058.02-.096.058-.134.096-.211.153-.441.306-.671.44-.21.154-.44.288-.67.403 0 0-.173.115-.27.173l-.517.287-.115.058a2.455 2.455 0 0 0-.383.21c-.364.192-.71.365-1.073.518-.844.383-1.706.71-2.588.977-.345.096-.69.211-1.035.288-.057 0-.096.02-.153.038h-.077s-.115.039-.172.039c-.115.019-.23.057-.326.076l-.805.173a.688.688 0 0 0-.211.038 4.807 4.807 0 0 1-.518.077c-.095 0-.21.038-.306.057-.077 0-.153 0-.25.039-.728.096-1.475.153-2.223.172h-1.495c-.555 0-1.111-.057-1.648-.115h-.096l-.92-.115c-.326-.057-.652-.096-.958-.172h-.02s-.172-.039-.268-.058c-.383-.077-.747-.172-1.13-.268-.058 0-.116-.038-.173-.058-.096-.019-.173-.057-.268-.076 0 0-.134-.039-.192-.058a21.598 21.598 0 0 1-3.718-1.456s-.039 0-.058-.02c0 0-.038 0-.057-.038-.154-.077-.307-.153-.441-.23-.268-.134-.518-.288-.786-.44a18.215 18.215 0 0 1-1.514-.96 22.856 22.856 0 0 1-3.163-2.606 22.169 22.169 0 0 1-2.166-2.492c-.249-.306-.479-.632-.69-.958a23 23 0 0 1-2.223-4.159 21.63 21.63 0 0 1-1.073-3.373 23.173 23.173 0 0 1-.633-5.329v-.843c.077-2.09.422-4.082 1.016-6C3.537 9.316 8.79 3.834 15.517 1.38c.9-.345 1.84-.613 2.798-.824a23.266 23.266 0 0 1 5.06-.575c2.76 0 5.424.498 7.878 1.399.939.345 1.84.728 2.702 1.188 6 3.105 10.465 8.817 11.922 15.602.325 1.552.498 3.162.498 4.83Z" fill="#DEDEDE"/><path d="M38.708 22.674v-2.549h-3.047c-1.323-5.635-6.402-9.737-12.286-9.737-5.884 0-10.982 4.16-12.286 9.737H8.042v2.55h2.721V23c0 .326 0 .633.039.958h-2.76v2.55h3.22c1.533 5.251 6.382 9.104 12.113 9.104 1.993 0 3.89-.441 5.654-1.323l-.997-1.993a10.254 10.254 0 0 1-4.638 1.092c-4.485 0-8.318-2.875-9.775-6.861h4.658v2.549h2.549v-2.55h3.795l1.629 2.55h2.55v-2.55h9.908v-2.549H28.8v-1.284h9.91v-.019ZM23.375 12.612c4.677 0 8.72 3.143 9.986 7.513h-4.543v-3.508H26.27v3.508h-3.181l-2.262-3.508h-2.55v3.508h-4.868c1.246-4.332 5.252-7.513 9.967-7.513Zm-10.33 11.346c-.04-.306-.04-.632-.04-.958v-.326h5.272v1.284h-5.233Zm7.78 0v-1.284h1.343l.824 1.284h-2.167Zm5.425 0h-.728l-.824-1.284h1.533v1.284h.019Z" fill="#4F4F4F"/><mask id="b" style="mask-type:alpha" maskUnits="userSpaceOnUse" x="8" y="12" width="31" height="26"><path d="M38.708 24.59v-2.548h-3.047c-1.323-5.635-6.402-9.737-12.286-9.737-5.884 0-10.982 4.16-12.286 9.737H8.042v2.549h2.721v.326c0 .325 0 .632.039.958h-2.76v2.55h3.22c1.533 5.25 6.382 9.103 12.113 9.103 1.993 0 3.89-.44 5.654-1.322l-.997-1.994a10.253 10.253 0 0 1-4.638 1.093c-4.485 0-8.318-2.875-9.775-6.862h4.658v2.55h2.549v-2.55h3.795l1.629 2.55h2.55v-2.55h9.908v-2.549H28.8V24.61h9.91v-.02ZM23.375 14.529c4.677 0 8.72 3.144 9.986 7.514h-4.543v-3.508H26.27v3.508h-3.181l-2.262-3.508h-2.55v3.508h-4.868c1.246-4.332 5.252-7.514 9.967-7.514Zm-10.33 11.347c-.04-.307-.04-.633-.04-.958v-.326h5.272v1.284h-5.233Zm7.78 0V24.59h1.343l.824 1.284h-2.167Zm5.425 0h-.728l-.824-1.284h1.533v1.284h.019Z" fill="#4F4F4F"/></mask><g mask="url(#b)" stroke="#4F4F4F" stroke-width=".192" stroke-miterlimit="10"><path d="M40.108 40c-.154 0-.403-.038-.556-.057h-.154s-.172-.038-.268-.057h-.192l-.21-.058s-.135-.019-.211-.038h-.154c-.421-.096-.824-.173-1.207-.268a35.3 35.3 0 0 1-3.124-.882c-1.917-.614-3.584-1.131-7.15-1.131-3.565 0-5.213.517-7.149 1.13-1.993.633-4.236 1.15-8.03 1.323h-.02c-.268 0-.536.02-.805.02H9.211"/><path d="M40.108 39.272c-.154 0-.403-.038-.556-.057h-.154l-.268-.058h-.192l-.21-.057s-.135-.02-.211-.038h-.154c-.421-.096-.824-.173-1.207-.269a35.298 35.298 0 0 1-3.124-.881c-1.917-.614-3.584-1.131-7.15-1.131-3.565 0-5.213.517-7.149 1.13-1.993.633-4.236 1.15-8.03 1.323h-.02c-.268 0-.536.02-.805.02H9.211"/><path d="M40.108 38.544c-.154 0-.403-.038-.556-.057h-.154s-.172-.039-.268-.058h-.192l-.21-.058s-.135-.019-.211-.038h-.154c-.421-.096-.824-.172-1.207-.268a35.298 35.298 0 0 1-3.124-.882c-1.917-.613-3.584-1.13-7.15-1.13-3.565 0-5.213.517-7.149 1.13-1.993.633-4.236 1.15-8.03 1.323h-.02c-.268 0-.536.019-.805.019H9.211"/><path d="M40.108 37.816c-.154 0-.403-.039-.556-.058h-.154s-.172-.038-.268-.057h-.192l-.21-.058s-.135-.019-.211-.038h-.154c-.421-.096-.824-.173-1.207-.268a35.264 35.264 0 0 1-3.124-.882c-1.917-.613-3.584-1.13-7.15-1.13-3.565 0-5.213.517-7.149 1.13-1.993.632-4.236 1.15-8.03 1.322h-.02c-.268 0-.536.02-.805.02H9.211"/><path d="M40.108 37.087c-.154 0-.403-.038-.556-.057h-.154l-.268-.058h-.192l-.21-.057s-.135-.02-.211-.038h-.154c-.421-.096-.824-.173-1.207-.269a35.264 35.264 0 0 1-3.124-.881c-1.917-.614-3.584-1.131-7.15-1.131-3.565 0-5.213.517-7.149 1.13-1.993.633-4.236 1.15-8.03 1.323h-.02c-.268 0-.536.02-.805.02H9.211"/><path d="M40.108 36.36c-.154 0-.403-.04-.556-.058h-.154s-.172-.039-.268-.058h-.192l-.21-.057s-.135-.02-.211-.039h-.154c-.421-.096-.824-.172-1.207-.268a35.3 35.3 0 0 1-3.124-.882c-1.917-.613-3.584-1.13-7.15-1.13-3.565 0-5.213.517-7.149 1.13-1.993.633-4.236 1.15-8.03 1.323h-.02c-.268 0-.536.019-.805.019H9.211"/><path d="M40.108 35.63c-.154 0-.403-.038-.556-.057h-.154s-.172-.038-.268-.057h-.192l-.21-.058s-.135-.019-.211-.038h-.154c-.421-.096-.824-.173-1.207-.269a35.3 35.3 0 0 1-3.124-.881c-1.917-.614-3.584-1.131-7.15-1.131-3.565 0-5.213.517-7.149 1.13-1.993.633-4.236 1.15-8.03 1.323h-.02c-.268 0-.536.02-.805.02H9.211"/><path d="M40.108 34.902c-.154 0-.403-.038-.556-.057h-.154l-.268-.058h-.192l-.21-.057s-.135-.02-.211-.038h-.154c-.421-.096-.824-.173-1.207-.269a35.298 35.298 0 0 1-3.124-.881c-1.917-.614-3.584-1.131-7.15-1.131-3.565 0-5.213.517-7.149 1.13-1.993.633-4.236 1.15-8.03 1.323h-.02c-.268 0-.536.02-.805.02H9.211"/><path d="M40.108 34.174c-.154 0-.403-.038-.556-.057h-.154s-.172-.039-.268-.058h-.192l-.21-.057s-.135-.02-.211-.039h-.154c-.421-.096-.824-.172-1.207-.268a35.298 35.298 0 0 1-3.124-.882c-1.917-.613-3.584-1.13-7.15-1.13-3.565 0-5.213.517-7.149 1.13-1.993.633-4.236 1.15-8.03 1.323h-.02c-.268 0-.536.019-.805.019H9.211"/><path d="M40.108 33.446c-.154 0-.403-.039-.556-.058h-.154s-.172-.038-.268-.057h-.192l-.21-.058s-.135-.019-.211-.038h-.154c-.421-.096-.824-.173-1.207-.268a35.264 35.264 0 0 1-3.124-.882c-1.917-.613-3.584-1.13-7.15-1.13-3.565 0-5.213.517-7.149 1.13-1.993.632-4.236 1.15-8.03 1.322h-.02c-.268 0-.536.02-.805.02H9.211"/><path d="M40.108 32.717c-.154 0-.403-.038-.556-.057h-.154l-.268-.058h-.192l-.21-.057s-.135-.02-.211-.038h-.154c-.421-.096-.824-.173-1.207-.269a35.264 35.264 0 0 1-3.124-.881c-1.917-.614-3.584-1.131-7.15-1.131-3.565 0-5.213.517-7.149 1.13-1.993.633-4.236 1.15-8.03 1.323h-.02c-.268 0-.536.02-.805.02H9.211"/><path d="M40.108 31.989c-.154 0-.403-.038-.556-.058h-.154s-.172-.038-.268-.057h-.192l-.21-.057s-.135-.02-.211-.039h-.154c-.421-.096-.824-.172-1.207-.268a35.264 35.264 0 0 1-3.124-.882c-1.917-.613-3.584-1.13-7.15-1.13-3.565 0-5.213.517-7.149 1.13-1.993.633-4.236 1.15-8.03 1.323h-.02c-.268 0-.536.019-.805.019H9.211"/><path d="M40.108 31.26c-.154 0-.403-.038-.556-.057h-.154s-.172-.038-.268-.057h-.192l-.21-.058s-.135-.019-.211-.038h-.154c-.421-.096-.824-.173-1.207-.268a35.3 35.3 0 0 1-3.124-.882c-1.917-.613-3.584-1.131-7.15-1.131-3.565 0-5.213.518-7.149 1.13-1.993.633-4.236 1.15-8.03 1.323h-.02c-.268 0-.536.02-.805.02H9.211"/><path d="M40.108 30.532c-.154 0-.403-.038-.556-.057h-.154l-.268-.058h-.192l-.21-.057s-.135-.02-.211-.038h-.154c-.421-.096-.824-.173-1.207-.269a35.298 35.298 0 0 1-3.124-.881c-1.917-.614-3.584-1.131-7.15-1.131-3.565 0-5.213.517-7.149 1.13-1.993.633-4.236 1.15-8.03 1.323h-.02c-.268 0-.536.02-.805.02H9.211"/><path d="M40.108 29.804c-.154 0-.403-.038-.556-.057h-.154s-.172-.039-.268-.058h-.192l-.21-.058s-.135-.019-.211-.038h-.154c-.421-.096-.824-.172-1.207-.268a35.298 35.298 0 0 1-3.124-.882c-1.917-.613-3.584-1.13-7.15-1.13-3.565 0-5.213.517-7.149 1.13-1.993.633-4.236 1.15-8.03 1.323h-.02c-.268 0-.536.019-.805.019H9.211"/><path d="M40.108 29.076c-.154 0-.403-.039-.556-.058h-.154s-.172-.038-.268-.057h-.192l-.21-.058s-.135-.019-.211-.038h-.154c-.421-.096-.824-.173-1.207-.268a35.264 35.264 0 0 1-3.124-.882c-1.917-.613-3.584-1.13-7.15-1.13-3.565 0-5.213.517-7.149 1.13-1.993.632-4.236 1.15-8.03 1.322h-.02c-.268 0-.536.02-.805.02H9.211"/><path d="M40.108 28.347c-.154 0-.403-.038-.556-.057h-.154l-.268-.058h-.192l-.21-.057s-.135-.02-.211-.038h-.154c-.421-.096-.824-.173-1.207-.269a35.264 35.264 0 0 1-3.124-.881c-1.917-.614-3.584-1.131-7.15-1.131-3.565 0-5.213.517-7.149 1.13-1.993.633-4.236 1.15-8.03 1.323h-.02c-.268 0-.536.02-.805.02H9.211"/><path d="M40.108 27.619c-.154 0-.403-.038-.556-.058h-.154s-.172-.038-.268-.057h-.192l-.21-.058s-.135-.019-.211-.038h-.154c-.421-.096-.824-.172-1.207-.268a35.3 35.3 0 0 1-3.124-.882c-1.917-.613-3.584-1.13-7.15-1.13-3.565 0-5.213.517-7.149 1.13-1.993.633-4.236 1.15-8.03 1.323h-.02c-.268 0-.536.019-.805.019H9.211"/><path d="M40.108 26.89c-.154 0-.403-.038-.556-.057h-.154s-.172-.038-.268-.057h-.192l-.21-.058s-.135-.019-.211-.038h-.154c-.421-.096-.824-.173-1.207-.268a35.3 35.3 0 0 1-3.124-.882c-1.917-.614-3.584-1.131-7.15-1.131-3.565 0-5.213.517-7.149 1.13-1.993.633-4.236 1.15-8.03 1.323h-.02c-.268 0-.536.02-.805.02H9.211"/><path d="M40.108 26.143c-.154 0-.403-.038-.556-.057h-.154s-.172-.039-.268-.058h-.192l-.21-.057s-.135-.02-.211-.039h-.154c-.421-.095-.824-.172-1.207-.268a35.264 35.264 0 0 1-3.124-.882c-1.917-.613-3.584-1.13-7.15-1.13-3.565 0-5.213.517-7.149 1.13-1.993.633-4.236 1.15-8.03 1.323h-.02c-.268 0-.536.02-.805.02H9.211"/><path d="M40.108 25.415c-.154 0-.403-.038-.556-.058h-.154s-.172-.038-.268-.057h-.192l-.21-.058s-.135-.019-.211-.038h-.154c-.421-.096-.824-.172-1.207-.268a35.3 35.3 0 0 1-3.124-.882c-1.917-.613-3.584-1.13-7.15-1.13-3.565 0-5.213.517-7.149 1.13-1.993.633-4.236 1.15-8.03 1.323h-.02c-.268 0-.536.019-.805.019H9.211"/><path d="M40.108 24.686c-.154 0-.403-.038-.556-.057h-.154l-.268-.058h-.192l-.21-.057s-.135-.02-.211-.038h-.154c-.421-.096-.824-.173-1.207-.269a35.3 35.3 0 0 1-3.124-.881c-1.917-.614-3.584-1.131-7.15-1.131-3.565 0-5.213.517-7.149 1.13-1.993.633-4.236 1.15-8.03 1.323h-.02c-.268 0-.536.02-.805.02H9.211"/><path d="M40.108 23.958c-.154 0-.403-.038-.556-.057h-.154s-.172-.039-.268-.058h-.192l-.21-.057s-.135-.02-.211-.039h-.154c-.421-.095-.824-.172-1.207-.268a35.298 35.298 0 0 1-3.124-.882c-1.917-.613-3.584-1.13-7.15-1.13-3.565 0-5.213.517-7.149 1.13-1.993.633-4.236 1.15-8.03 1.323h-.02c-.268 0-.536.02-.805.02H9.211"/><path d="M40.108 23.23c-.154 0-.403-.038-.556-.058h-.154s-.172-.038-.268-.057h-.192l-.21-.058s-.135-.019-.211-.038h-.154c-.421-.096-.824-.172-1.207-.268a35.298 35.298 0 0 1-3.124-.882c-1.917-.613-3.584-1.13-7.15-1.13-3.565 0-5.213.517-7.149 1.13-1.993.633-4.236 1.15-8.03 1.323h-.02c-.268 0-.536.019-.805.019H9.211"/><path d="M40.108 22.502c-.154 0-.403-.039-.556-.058h-.154s-.172-.038-.268-.057h-.192l-.21-.058s-.135-.02-.211-.038h-.154c-.421-.096-.824-.173-1.207-.269a35.264 35.264 0 0 1-3.124-.881c-1.917-.614-3.584-1.131-7.15-1.131-3.565 0-5.213.517-7.149 1.13-1.993.633-4.236 1.15-8.03 1.323h-.02c-.268 0-.536.02-.805.02H9.211"/><path d="M40.108 21.773c-.154 0-.403-.038-.556-.057h-.154s-.172-.039-.268-.058h-.192l-.21-.057s-.135-.02-.211-.039h-.154c-.421-.095-.824-.172-1.207-.268a35.264 35.264 0 0 1-3.124-.882c-1.917-.613-3.584-1.13-7.15-1.13-3.565 0-5.213.517-7.149 1.13-1.993.633-4.236 1.15-8.03 1.323h-.02c-.268 0-.536.02-.805.02H9.211"/><path d="M40.108 21.102c-.154 0-.403-.038-.556-.057h-.154l-.268-.058h-.192l-.21-.057s-.135-.02-.211-.038h-.154c-.421-.096-.824-.173-1.207-.269a35.3 35.3 0 0 1-3.124-.881c-1.917-.614-3.584-1.131-7.15-1.131-3.565 0-5.213.517-7.149 1.13-1.993.633-4.236 1.15-8.03 1.323h-.02c-.268 0-.536.02-.805.02H9.211"/><path d="M40.108 20.412c-.154 0-.403-.038-.556-.057h-.154l-.268-.058h-.192l-.21-.057s-.135-.02-.211-.038h-.154c-.421-.096-.824-.173-1.207-.269a35.298 35.298 0 0 1-3.124-.881c-1.917-.614-3.584-1.131-7.15-1.131-3.565 0-5.213.517-7.149 1.13-1.993.633-4.236 1.15-8.03 1.323h-.02c-.268 0-.536.02-.805.02H9.211"/><path d="M40.108 19.722c-.154 0-.403-.038-.556-.057h-.154l-.268-.058h-.192l-.21-.057s-.135-.02-.211-.038h-.154c-.421-.096-.824-.173-1.207-.269a35.264 35.264 0 0 1-3.124-.881c-1.917-.614-3.584-1.131-7.15-1.131-3.565 0-5.213.517-7.149 1.13-1.993.633-4.236 1.15-8.03 1.323h-.02c-.268 0-.536.02-.805.02H9.211M9.288 40c-.154 0-.403-.038-.556-.057h-.154s-.172-.038-.268-.057h-.192l-.21-.058s-.135-.019-.211-.038h-.154c-.421-.096-.824-.173-1.207-.268a35.3 35.3 0 0 1-3.124-.882c-1.917-.614-3.584-1.131-7.15-1.131-3.564 0-5.213.517-7.149 1.13-1.993.633-4.236 1.15-8.03 1.323h-.02c-.268 0-.536.02-.805.02h-1.667"/><path d="M9.288 39.272c-.154 0-.403-.038-.556-.057h-.154l-.268-.058h-.192l-.21-.057s-.135-.02-.211-.038h-.154c-.421-.096-.824-.173-1.207-.269a35.298 35.298 0 0 1-3.124-.881c-1.917-.614-3.584-1.131-7.15-1.131-3.564 0-5.213.517-7.149 1.13-1.993.633-4.236 1.15-8.03 1.323h-.02c-.268 0-.536.02-.805.02h-1.667"/><path d="M9.288 38.544c-.154 0-.403-.038-.556-.057h-.154s-.172-.039-.268-.058h-.192l-.21-.058s-.135-.019-.211-.038h-.154c-.421-.096-.824-.172-1.207-.268a35.298 35.298 0 0 1-3.124-.882c-1.917-.613-3.584-1.13-7.15-1.13-3.564 0-5.213.517-7.149 1.13-1.993.633-4.236 1.15-8.03 1.323h-.02c-.268 0-.536.019-.805.019h-1.667"/><path d="M9.288 37.816c-.154 0-.403-.039-.556-.058h-.154s-.172-.038-.268-.057h-.192l-.21-.058s-.135-.019-.211-.038h-.154c-.421-.096-.824-.173-1.207-.268a35.263 35.263 0 0 1-3.124-.882c-1.917-.613-3.584-1.13-7.15-1.13-3.564 0-5.213.517-7.149 1.13-1.993.632-4.236 1.15-8.03 1.322h-.02c-.268 0-.536.02-.805.02h-1.667"/><path d="M9.288 37.087c-.154 0-.403-.038-.556-.057h-.154l-.268-.058h-.192l-.21-.057s-.135-.02-.211-.038h-.154c-.421-.096-.824-.173-1.207-.269a35.263 35.263 0 0 1-3.124-.881c-1.917-.614-3.584-1.131-7.15-1.131-3.564 0-5.213.517-7.149 1.13-1.993.633-4.236 1.15-8.03 1.323h-.02c-.268 0-.536.02-.805.02h-1.667"/><path d="M9.288 36.36c-.154 0-.403-.04-.556-.058h-.154s-.172-.039-.268-.058h-.192l-.21-.057s-.135-.02-.211-.039h-.154c-.421-.096-.824-.172-1.207-.268a35.3 35.3 0 0 1-3.124-.882c-1.917-.613-3.584-1.13-7.15-1.13-3.564 0-5.213.517-7.149 1.13-1.993.633-4.236 1.15-8.03 1.323h-.02c-.268 0-.536.019-.805.019h-1.667"/><path d="M9.288 35.63c-.154 0-.403-.038-.556-.057h-.154s-.172-.038-.268-.057h-.192l-.21-.058s-.135-.019-.211-.038h-.154c-.421-.096-.824-.173-1.207-.269a35.3 35.3 0 0 1-3.124-.881c-1.917-.614-3.584-1.131-7.15-1.131-3.564 0-5.213.517-7.149 1.13-1.993.633-4.236 1.15-8.03 1.323h-.02c-.268 0-.536.02-.805.02h-1.667"/><path d="M9.288 34.902c-.154 0-.403-.038-.556-.057h-.154l-.268-.058h-.192l-.21-.057s-.135-.02-.211-.038h-.154c-.421-.096-.824-.173-1.207-.269a35.298 35.298 0 0 1-3.124-.881c-1.917-.614-3.584-1.131-7.15-1.131-3.564 0-5.213.517-7.149 1.13-1.993.633-4.236 1.15-8.03 1.323h-.02c-.268 0-.536.02-.805.02h-1.667"/><path d="M9.288 34.174c-.154 0-.403-.038-.556-.057h-.154s-.172-.039-.268-.058h-.192l-.21-.057s-.135-.02-.211-.039h-.154c-.421-.096-.824-.172-1.207-.268a35.298 35.298 0 0 1-3.124-.882c-1.917-.613-3.584-1.13-7.15-1.13-3.564 0-5.213.517-7.149 1.13-1.993.633-4.236 1.15-8.03 1.323h-.02c-.268 0-.536.019-.805.019h-1.667"/><path d="M9.288 33.446c-.154 0-.403-.039-.556-.058h-.154s-.172-.038-.268-.057h-.192l-.21-.058s-.135-.019-.211-.038h-.154c-.421-.096-.824-.173-1.207-.268a35.263 35.263 0 0 1-3.124-.882c-1.917-.613-3.584-1.13-7.15-1.13-3.564 0-5.213.517-7.149 1.13-1.993.632-4.236 1.15-8.03 1.322h-.02c-.268 0-.536.02-.805.02h-1.667"/><path d="M9.288 32.717c-.154 0-.403-.038-.556-.057h-.154l-.268-.058h-.192l-.21-.057s-.135-.02-.211-.038h-.154c-.421-.096-.824-.173-1.207-.269a35.263 35.263 0 0 1-3.124-.881c-1.917-.614-3.584-1.131-7.15-1.131-3.564 0-5.213.517-7.149 1.13-1.993.633-4.236 1.15-8.03 1.323h-.02c-.268 0-.536.02-.805.02h-1.667"/><path d="M9.288 31.989c-.154 0-.403-.038-.556-.058h-.154s-.172-.038-.268-.057h-.192l-.21-.057s-.135-.02-.211-.039h-.154c-.421-.096-.824-.172-1.207-.268a35.263 35.263 0 0 1-3.124-.882c-1.917-.613-3.584-1.13-7.15-1.13-3.564 0-5.213.517-7.149 1.13-1.993.633-4.236 1.15-8.03 1.323h-.02c-.268 0-.536.019-.805.019h-1.667"/><path d="M9.288 31.26c-.154 0-.403-.038-.556-.057h-.154s-.172-.038-.268-.057h-.192l-.21-.058s-.135-.019-.211-.038h-.154c-.421-.096-.824-.173-1.207-.268a35.3 35.3 0 0 1-3.124-.882c-1.917-.613-3.584-1.131-7.15-1.131-3.564 0-5.213.518-7.149 1.13-1.993.633-4.236 1.15-8.03 1.323h-.02c-.268 0-.536.02-.805.02h-1.667"/><path d="M9.288 30.532c-.154 0-.403-.038-.556-.057h-.154l-.268-.058h-.192l-.21-.057s-.135-.02-.211-.038h-.154c-.421-.096-.824-.173-1.207-.269a35.298 35.298 0 0 1-3.124-.881c-1.917-.614-3.584-1.131-7.15-1.131-3.564 0-5.213.517-7.149 1.13-1.993.633-4.236 1.15-8.03 1.323h-.02c-.268 0-.536.02-.805.02h-1.667"/><path d="M9.288 29.804c-.154 0-.403-.038-.556-.057h-.154s-.172-.039-.268-.058h-.192l-.21-.058s-.135-.019-.211-.038h-.154c-.421-.096-.824-.172-1.207-.268a35.298 35.298 0 0 1-3.124-.882c-1.917-.613-3.584-1.13-7.15-1.13-3.564 0-5.213.517-7.149 1.13-1.993.633-4.236 1.15-8.03 1.323h-.02c-.268 0-.536.019-.805.019h-1.667"/><path d="M9.288 29.076c-.154 0-.403-.039-.556-.058h-.154s-.172-.038-.268-.057h-.192l-.21-.058s-.135-.019-.211-.038h-.154c-.421-.096-.824-.173-1.207-.268a35.263 35.263 0 0 1-3.124-.882c-1.917-.613-3.584-1.13-7.15-1.13-3.564 0-5.213.517-7.149 1.13-1.993.632-4.236 1.15-8.03 1.322h-.02c-.268 0-.536.02-.805.02h-1.667"/><path d="M9.288 28.347c-.154 0-.403-.038-.556-.057h-.154l-.268-.058h-.192l-.21-.057s-.135-.02-.211-.038h-.154c-.421-.096-.824-.173-1.207-.269a35.263 35.263 0 0 1-3.124-.881c-1.917-.614-3.584-1.131-7.15-1.131-3.564 0-5.213.517-7.149 1.13-1.993.633-4.236 1.15-8.03 1.323h-.02c-.268 0-.536.02-.805.02h-1.667"/><path d="M9.288 27.619c-.154 0-.403-.038-.556-.058h-.154s-.172-.038-.268-.057h-.192l-.21-.058s-.135-.019-.211-.038h-.154c-.421-.096-.824-.172-1.207-.268a35.3 35.3 0 0 1-3.124-.882c-1.917-.613-3.584-1.13-7.15-1.13-3.564 0-5.213.517-7.149 1.13-1.993.633-4.236 1.15-8.03 1.323h-.02c-.268 0-.536.019-.805.019h-1.667"/><path d="M9.288 26.89c-.154 0-.403-.038-.556-.057h-.154s-.172-.038-.268-.057h-.192l-.21-.058s-.135-.019-.211-.038h-.154c-.421-.096-.824-.173-1.207-.268a35.3 35.3 0 0 1-3.124-.882c-1.917-.614-3.584-1.131-7.15-1.131-3.564 0-5.213.517-7.149 1.13-1.993.633-4.236 1.15-8.03 1.323h-.02c-.268 0-.536.02-.805.02h-1.667"/><path d="M9.288 26.143c-.154 0-.403-.038-.556-.057h-.154s-.172-.039-.268-.058h-.192l-.21-.057s-.135-.02-.211-.039h-.154c-.421-.095-.824-.172-1.207-.268a35.263 35.263 0 0 1-3.124-.882c-1.917-.613-3.584-1.13-7.15-1.13-3.564 0-5.213.517-7.149 1.13-1.993.633-4.236 1.15-8.03 1.323h-.02c-.268 0-.536.02-.805.02h-1.667"/><path d="M9.288 25.415c-.154 0-.403-.038-.556-.058h-.154s-.172-.038-.268-.057h-.192l-.21-.058s-.135-.019-.211-.038h-.154c-.421-.096-.824-.172-1.207-.268a35.3 35.3 0 0 1-3.124-.882c-1.917-.613-3.584-1.13-7.15-1.13-3.564 0-5.213.517-7.149 1.13-1.993.633-4.236 1.15-8.03 1.323h-.02c-.268 0-.536.019-.805.019h-1.667"/><path d="M9.288 24.686c-.154 0-.403-.038-.556-.057h-.154l-.268-.058h-.192l-.21-.057s-.135-.02-.211-.038h-.154c-.421-.096-.824-.173-1.207-.269a35.3 35.3 0 0 1-3.124-.881c-1.917-.614-3.584-1.131-7.15-1.131-3.564 0-5.213.517-7.149 1.13-1.993.633-4.236 1.15-8.03 1.323h-.02c-.268 0-.536.02-.805.02h-1.667"/><path d="M9.288 23.958c-.154 0-.403-.038-.556-.057h-.154s-.172-.039-.268-.058h-.192l-.21-.057s-.135-.02-.211-.039h-.154c-.421-.095-.824-.172-1.207-.268a35.298 35.298 0 0 1-3.124-.882c-1.917-.613-3.584-1.13-7.15-1.13-3.564 0-5.213.517-7.149 1.13-1.993.633-4.236 1.15-8.03 1.323h-.02c-.268 0-.536.02-.805.02h-1.667"/><path d="M9.288 23.23c-.154 0-.403-.038-.556-.058h-.154s-.172-.038-.268-.057h-.192l-.21-.058s-.135-.019-.211-.038h-.154c-.421-.096-.824-.172-1.207-.268a35.298 35.298 0 0 1-3.124-.882c-1.917-.613-3.584-1.13-7.15-1.13-3.564 0-5.213.517-7.149 1.13-1.993.633-4.236 1.15-8.03 1.323h-.02c-.268 0-.536.019-.805.019h-1.667"/><path d="M9.288 22.502c-.154 0-.403-.039-.556-.058h-.154s-.172-.038-.268-.057h-.192l-.21-.058s-.135-.02-.211-.038h-.154c-.421-.096-.824-.173-1.207-.269a35.263 35.263 0 0 1-3.124-.881c-1.917-.614-3.584-1.131-7.15-1.131-3.564 0-5.213.517-7.149 1.13-1.993.633-4.236 1.15-8.03 1.323h-.02c-.268 0-.536.02-.805.02h-1.667"/><path d="M9.288 21.773c-.154 0-.403-.038-.556-.057h-.154s-.172-.039-.268-.058h-.192l-.21-.057s-.135-.02-.211-.039h-.154c-.421-.095-.824-.172-1.207-.268a35.263 35.263 0 0 1-3.124-.882c-1.917-.613-3.584-1.13-7.15-1.13-3.564 0-5.213.517-7.149 1.13-1.993.633-4.236 1.15-8.03 1.323h-.02c-.268 0-.536.02-.805.02h-1.667"/><path d="M9.288 21.102c-.154 0-.403-.038-.556-.057h-.154l-.268-.058h-.192l-.21-.057s-.135-.02-.211-.038h-.154c-.421-.096-.824-.173-1.207-.269a35.3 35.3 0 0 1-3.124-.881c-1.917-.614-3.584-1.131-7.15-1.131-3.564 0-5.213.517-7.149 1.13-1.993.633-4.236 1.15-8.03 1.323h-.02c-.268 0-.536.02-.805.02h-1.667"/><path d="M9.288 20.412c-.154 0-.403-.038-.556-.057h-.154l-.268-.058h-.192l-.21-.057s-.135-.02-.211-.038h-.154c-.421-.096-.824-.173-1.207-.269a35.298 35.298 0 0 1-3.124-.881c-1.917-.614-3.584-1.131-7.15-1.131-3.564 0-5.213.517-7.149 1.13-1.993.633-4.236 1.15-8.03 1.323h-.02c-.268 0-.536.02-.805.02h-1.667"/><path d="M9.288 19.722c-.154 0-.403-.038-.556-.057h-.154l-.268-.058h-.192l-.21-.057s-.135-.02-.211-.038h-.154c-.421-.096-.824-.173-1.207-.269a35.263 35.263 0 0 1-3.124-.881c-1.917-.614-3.584-1.131-7.15-1.131-3.564 0-5.213.517-7.149 1.13-1.993.633-4.236 1.15-8.03 1.323h-.02c-.268 0-.536.02-.805.02h-1.667M40.108 19.013c-.154 0-.403-.038-.556-.057h-.154s-.172-.039-.268-.058h-.192l-.21-.057s-.135-.02-.211-.039h-.154c-.421-.095-.824-.172-1.207-.268a35.264 35.264 0 0 1-3.124-.882c-1.917-.613-3.584-1.13-7.15-1.13-3.565 0-5.213.517-7.149 1.13-1.993.633-4.236 1.15-8.03 1.323h-.02c-.268 0-.536.02-.805.02H9.211"/><path d="M40.108 18.285c-.154 0-.403-.038-.556-.058h-.154s-.172-.038-.268-.057h-.192l-.21-.058s-.135-.019-.211-.038h-.154c-.421-.096-.824-.173-1.207-.268a35.264 35.264 0 0 1-3.124-.882c-1.917-.613-3.584-1.13-7.15-1.13-3.565 0-5.213.517-7.149 1.13-1.993.633-4.236 1.15-8.03 1.323h-.02c-.268 0-.536.019-.805.019H9.211"/><path d="M40.108 17.556c-.154 0-.403-.038-.556-.057h-.154s-.172-.038-.268-.057h-.192l-.21-.058s-.135-.02-.211-.038h-.154c-.421-.096-.824-.173-1.207-.269a35.3 35.3 0 0 1-3.124-.881c-1.917-.614-3.584-1.131-7.15-1.131-3.565 0-5.213.517-7.149 1.13-1.993.633-4.236 1.15-8.03 1.323h-.02c-.268 0-.536.02-.805.02H9.211"/><path d="M40.108 16.828c-.154 0-.403-.038-.556-.057h-.154s-.172-.039-.268-.058h-.192l-.21-.057s-.135-.02-.211-.039h-.154c-.421-.096-.824-.172-1.207-.268a35.3 35.3 0 0 1-3.124-.882c-1.917-.613-3.584-1.13-7.15-1.13-3.565 0-5.213.517-7.149 1.13-1.993.633-4.236 1.15-8.03 1.323h-.02c-.268 0-.536.019-.805.019H9.211"/><path d="M40.108 16.1c-.154 0-.403-.038-.556-.058h-.154s-.172-.038-.268-.057h-.192l-.21-.058s-.135-.019-.211-.038h-.154c-.421-.096-.824-.172-1.207-.268a35.298 35.298 0 0 1-3.124-.882c-1.917-.613-3.584-1.13-7.15-1.13-3.565 0-5.213.517-7.149 1.13-1.993.633-4.236 1.15-8.03 1.323h-.02c-.268 0-.536.019-.805.019H9.211"/><path d="M40.108 15.372c-.154 0-.403-.039-.556-.058h-.154s-.172-.038-.268-.057h-.192l-.21-.058s-.135-.02-.211-.038h-.154c-.421-.096-.824-.173-1.207-.269a35.298 35.298 0 0 1-3.124-.881c-1.917-.614-3.584-1.131-7.15-1.131-3.565 0-5.213.517-7.149 1.13-1.993.633-4.236 1.15-8.03 1.323h-.02c-.268 0-.536.02-.805.02H9.211"/><path d="M40.108 14.643c-.154 0-.403-.038-.556-.057h-.154s-.172-.039-.268-.058h-.192l-.21-.057s-.135-.02-.211-.039h-.154c-.421-.095-.824-.172-1.207-.268a35.264 35.264 0 0 1-3.124-.882c-1.917-.613-3.584-1.13-7.15-1.13-3.565 0-5.213.517-7.149 1.13-1.993.633-4.236 1.15-8.03 1.323h-.02c-.268 0-.536.02-.805.02H9.211"/><path d="M40.108 13.915c-.154 0-.403-.038-.556-.058h-.154s-.172-.038-.268-.057h-.192l-.21-.058s-.135-.019-.211-.038h-.154c-.421-.096-.824-.172-1.207-.268a35.3 35.3 0 0 1-3.124-.882c-1.917-.613-3.584-1.13-7.15-1.13-3.565 0-5.213.517-7.149 1.13-1.993.633-4.236 1.15-8.03 1.323h-.02c-.268 0-.536.019-.805.019H9.211"/><path d="M40.108 13.187c-.154 0-.403-.039-.556-.058h-.154s-.172-.038-.268-.057h-.192l-.21-.058s-.135-.02-.211-.038h-.154c-.421-.096-.824-.173-1.207-.269a35.3 35.3 0 0 1-3.124-.881c-1.917-.614-3.584-1.131-7.15-1.131-3.565 0-5.213.517-7.149 1.13-1.993.633-4.236 1.15-8.03 1.323h-.02c-.268 0-.536.02-.805.02H9.211"/><path d="M40.108 12.458c-.154 0-.403-.038-.556-.057h-.154s-.172-.039-.268-.058h-.192l-.21-.057s-.135-.02-.211-.039h-.154c-.421-.095-.824-.172-1.207-.268a35.264 35.264 0 0 1-3.124-.882c-1.917-.613-3.584-1.13-7.15-1.13-3.565 0-5.213.517-7.149 1.13-1.993.633-4.236 1.15-8.03 1.323h-.02c-.268 0-.536.02-.805.02H9.211M9.288 19.013c-.154 0-.403-.038-.556-.057h-.154s-.172-.039-.268-.058h-.192l-.21-.057s-.135-.02-.211-.039h-.154c-.421-.095-.824-.172-1.207-.268a35.263 35.263 0 0 1-3.124-.882c-1.917-.613-3.584-1.13-7.15-1.13-3.564 0-5.213.517-7.149 1.13-1.993.633-4.236 1.15-8.03 1.323h-.02c-.268 0-.536.02-.805.02h-1.667"/><path d="M9.288 18.285c-.154 0-.403-.038-.556-.058h-.154s-.172-.038-.268-.057h-.192l-.21-.058s-.135-.019-.211-.038h-.154c-.421-.096-.824-.173-1.207-.268a35.263 35.263 0 0 1-3.124-.882c-1.917-.613-3.584-1.13-7.15-1.13-3.564 0-5.213.517-7.149 1.13-1.993.633-4.236 1.15-8.03 1.323h-.02c-.268 0-.536.019-.805.019h-1.667"/><path d="M9.288 17.556c-.154 0-.403-.038-.556-.057h-.154s-.172-.038-.268-.057h-.192l-.21-.058s-.135-.02-.211-.038h-.154c-.421-.096-.824-.173-1.207-.269a35.3 35.3 0 0 1-3.124-.881c-1.917-.614-3.584-1.131-7.15-1.131-3.564 0-5.213.517-7.149 1.13-1.993.633-4.236 1.15-8.03 1.323h-.02c-.268 0-.536.02-.805.02h-1.667"/><path d="M9.288 16.828c-.154 0-.403-.038-.556-.057h-.154s-.172-.039-.268-.058h-.192l-.21-.057s-.135-.02-.211-.039h-.154c-.421-.096-.824-.172-1.207-.268a35.3 35.3 0 0 1-3.124-.882c-1.917-.613-3.584-1.13-7.15-1.13-3.564 0-5.213.517-7.149 1.13-1.993.633-4.236 1.15-8.03 1.323h-.02c-.268 0-.536.019-.805.019h-1.667"/><path d="M9.288 16.1c-.154 0-.403-.038-.556-.058h-.154s-.172-.038-.268-.057h-.192l-.21-.058s-.135-.019-.211-.038h-.154c-.421-.096-.824-.172-1.207-.268a35.298 35.298 0 0 1-3.124-.882c-1.917-.613-3.584-1.13-7.15-1.13-3.564 0-5.213.517-7.149 1.13-1.993.633-4.236 1.15-8.03 1.323h-.02c-.268 0-.536.019-.805.019h-1.667"/><path d="M9.288 15.372c-.154 0-.403-.039-.556-.058h-.154s-.172-.038-.268-.057h-.192l-.21-.058s-.135-.02-.211-.038h-.154c-.421-.096-.824-.173-1.207-.269a35.298 35.298 0 0 1-3.124-.881c-1.917-.614-3.584-1.131-7.15-1.131-3.564 0-5.213.517-7.149 1.13-1.993.633-4.236 1.15-8.03 1.323h-.02c-.268 0-.536.02-.805.02h-1.667"/><path d="M9.288 14.643c-.154 0-.403-.038-.556-.057h-.154s-.172-.039-.268-.058h-.192l-.21-.057s-.135-.02-.211-.039h-.154c-.421-.095-.824-.172-1.207-.268a35.263 35.263 0 0 1-3.124-.882c-1.917-.613-3.584-1.13-7.15-1.13-3.564 0-5.213.517-7.149 1.13-1.993.633-4.236 1.15-8.03 1.323h-.02c-.268 0-.536.02-.805.02h-1.667"/><path d="M9.288 13.915c-.154 0-.403-.038-.556-.058h-.154s-.172-.038-.268-.057h-.192l-.21-.058s-.135-.019-.211-.038h-.154c-.421-.096-.824-.172-1.207-.268a35.3 35.3 0 0 1-3.124-.882c-1.917-.613-3.584-1.13-7.15-1.13-3.564 0-5.213.517-7.149 1.13-1.993.633-4.236 1.15-8.03 1.323h-.02c-.268 0-.536.019-.805.019h-1.667"/><path d="M9.288 13.187c-.154 0-.403-.039-.556-.058h-.154s-.172-.038-.268-.057h-.192l-.21-.058s-.135-.02-.211-.038h-.154c-.421-.096-.824-.173-1.207-.269a35.3 35.3 0 0 1-3.124-.881c-1.917-.614-3.584-1.131-7.15-1.131-3.564 0-5.213.517-7.149 1.13-1.993.633-4.236 1.15-8.03 1.323h-.02c-.268 0-.536.02-.805.02h-1.667"/><path d="M9.288 12.458c-.154 0-.403-.038-.556-.057h-.154s-.172-.039-.268-.058h-.192l-.21-.057s-.135-.02-.211-.039h-.154c-.421-.095-.824-.172-1.207-.268a35.263 35.263 0 0 1-3.124-.882c-1.917-.613-3.584-1.13-7.15-1.13-3.564 0-5.213.517-7.149 1.13-1.993.633-4.236 1.15-8.03 1.323h-.02c-.268 0-.536.02-.805.02h-1.667"/></g></g><defs><clipPath id="a"><path fill="#fff" transform="translate(.375)" d="M0 0h46v46H0z"/></clipPath></defs></svg>