<svg width="24" height="24" viewBox="0 0 24 24" fill="none" xmlns="http://www.w3.org/2000/svg">
<path d="M12 24C18.6274 24 24 18.6274 24 12C24 5.37258 18.6274 0 12 0C5.37258 0 0 5.37258 0 12C0 18.6274 5.37258 24 12 24Z" fill="#E0E0E0"/>
<g clip-path="url(#clip0_8588_137567)">
<path d="M17.1647 6.07666H7.1714C4.04851 6.07666 1.49341 8.63176 1.49341 11.7547C1.49341 14.8776 4.04851 17.4326 7.1714 17.4326H17.1647C20.2876 17.4326 22.8427 14.8776 22.8427 11.7547C22.8427 8.63176 20.2876 6.07666 17.1647 6.07666Z" fill="white"/>
<path d="M17.1647 6.53658C17.8659 6.53658 18.5473 6.67569 19.1889 6.94823C19.8106 7.21226 20.3671 7.58985 20.8497 8.06964C21.3295 8.54943 21.7071 9.10871 21.9711 9.73045C22.2436 10.3721 22.3827 11.0534 22.3827 11.7547C22.3827 12.4559 22.2436 13.1372 21.9711 13.7789C21.7071 14.4006 21.3295 14.957 20.8497 15.4397C20.3699 15.9195 19.8106 16.2971 19.1889 16.5611C18.5473 16.8336 17.8659 16.9727 17.1647 16.9727H7.1714C6.47017 16.9727 5.78881 16.8336 5.1472 16.5611C4.52546 16.2971 3.96901 15.9195 3.48638 15.4397C3.00659 14.9599 2.62901 14.4006 2.36498 13.7789C2.091783 13.1372 1.95333 12.4559 1.95333 11.7547C1.95333 11.0534 2.091783 10.3721 2.36498 9.73045C2.62901 9.10871 3.00659 8.55227 3.48638 8.06964C3.96617 7.58985 4.52546 7.21226 5.1472 6.94823C5.78881 6.67569 6.47017 6.53658 7.1714 6.53658H17.1647ZM17.1647 6.07666H7.1714C4.04851 6.07666 1.49341 8.63176 1.49341 11.7547C1.49341 14.8776 4.04851 17.4326 7.1714 17.4326H17.1647C20.2876 17.4326 22.8427 14.8776 22.8427 11.7547C22.8427 8.63176 20.2876 6.07666 17.1647 6.07666Z" fill="#3C4043"/>
<path d="M11.674 12.1575V13.8751H11.1289V9.63361H12.574C12.9402 9.63361 13.2525 9.75568 13.508 9.99984C13.7692 10.1783 13.8998 10.5421 13.8998 10.8941C13.8998 11.2547 13.7692 11.5528 13.508 11.7941C13.2553 12.0354 12.943 12.1546 12.574 12.1546H11.674V12.1575ZM11.674 10.156V11.6351H12.5853C12.8011 11.6351 12.9828 11.5613 13.1247 11.4165C13.2695 11.2717 13.3433 11.0957 13.3433 10.897C13.3433 10.7011 13.2695 10.5279 13.1247 10.3831C12.9828 10.2326 12.8039 10.1588 12.5853 10.1588H11.674V10.156Z" fill="#3C4043"/>
<path d="M15.325 10.8771C15.7282 10.8771 16.0461 10.985 16.2789 11.2008C16.5117 11.4165 16.6281 11.7118 16.6281 12.0865V13.8751H16.1086V13.472H16.0859C15.8616 13.8041 15.5607 13.9688 15.1859 13.9688C14.8651 13.9688 14.5982 13.8751 14.3825 13.6849C14.1667 13.4947 14.0588 13.2591 14.0588 12.9752C14.0588 12.6742 14.1724 12.4357 14.3995 12.2597C14.6266 12.0809 14.9304 11.9929 15.308 11.9929C15.6316 11.9929 15.8985 12.0525 16.1058 12.1717V12.0468C16.1058 11.8566 16.0319 11.6976 15.8815 11.5642C15.731 11.4307 15.555 11.3654 15.3534 11.3654C15.0496 11.3654 14.8083 11.4932 14.6323 11.7515L14.1525 11.4506C14.4166 11.0673 14.8083 10.8771 15.325 10.8771ZM14.621 12.9837C14.621 13.1256 14.6806 13.17839 14.8027 13.3385C14.9219 13.4322 15.0638 13.4805 15.2257 13.4805C15.4556 13.4805 15.66 13.3953 15.8389 13.225C16.0177 13.0546 16.1086 12.8559 16.1086 12.626C15.9383 12.4925 15.7026 12.41783 15.3988 12.41783C15.1774 12.41783 14.9929 12.4783 14.8452 12.5834C14.6948 12.6941 14.621 12.8275 14.621 12.9837Z" fill="#3C4043"/>
<path d="M19.5921 10.9707L17.7752 15.1497H17.2131L17.8887 13.6876L16.6907 10.9707H17.284L18.1471 13.0545H18.1584L18.9988 10.9707H19.5921Z" fill="#3C4043"/>
<path d="M9.50603 11.8114C9.50603 11.6337 9.49013 11.4636 9.46061 11.3001H7.17578V12.237L8.49166 12.2373C8.43828 12.549 8.26652 12.8147 8.00335 12.9919V13.5997H8.78663C9.24399 13.1764 9.50603 12.5507 9.50603 11.8114Z" fill="#4285F4"/>
<path d="M8.00351 12.9916C7.78547 13.1386 7.50469 13.2246 7.17622 13.2246C6.54171 13.2246 6.00343 12.7971 5.81066 12.2208H5.00269V12.8476C5.40298 13.642 6.22573 14.1871 7.17622 14.1871C7.83317 14.1871 8.38507 13.971 8.78678 13.5991L8.00351 12.9916Z" fill="#34A853"/>
<path d="M5.73467 11.7557C5.73467 11.5939 5.76164 11.4374 5.81075 11.2904V10.6635H5.00277C4.83726 10.992 4.74414 11.3628 4.74414 11.7557C4.74414 12.1486 4.83754 12.5194 5.00277 12.8478L5.81075 12.221C5.76164 12.0739 5.73467 11.9175 5.73467 11.7557Z" fill="#FABB05"/>
<path d="M7.17622 10.2867C7.53479 10.2867 7.85588 10.4102 8.1094 10.6515L8.80353 9.95794C8.38194 9.56531 7.83231 9.32428 7.17622 9.32428C6.22601 9.32428 5.40298 9.86937 5.00269 10.6637L5.81066 11.2906C6.00343 10.7143 6.54171 10.2867 7.17622 10.2867Z" fill="#E94235"/>
</g>
<defs>
<clipPath id="clip0_8588_137567">
<rect width="21.6469" height="11.5293" fill="white" transform="translate(1.35303 5.95636)"/>
</clipPath>
</defs>
</svg>
