<svg width="10" height="10" fill="none" xmlns="http://www.w3.org/2000/svg"><path d="M4.658.388a4.658 4.658 0 1 0 0 9.317 4.658 4.658 0 0 0 0-9.317Zm.97 7.22c-.24.094-.43.166-.574.216-.143.05-.309.074-.498.074-.29 0-.516-.07-.677-.212a.686.686 0 0 1-.24-.54c0-.084.005-.171.017-.26.012-.088.032-.187.058-.299l.3-1.06c.027-.102.05-.198.068-.288.018-.09.026-.174.026-.25 0-.135-.028-.23-.083-.282-.057-.054-.163-.08-.32-.08a.841.841 0 0 0-.24.036 3.39 3.39 0 0 0-.208.07l.08-.327c.196-.08.384-.149.563-.206.18-.057.35-.086.509-.086.288 0 .51.07.667.21.156.138.234.32.234.542 0 .046-.005.127-.016.243-.01.117-.03.223-.06.32l-.298 1.057a2.988 2.988 0 0 0-.066.29c-.02.109-.029.191-.029.247 0 .14.031.236.094.287.063.051.172.077.327.077a1.404 1.404 0 0 0 .446-.105l-.08.325Zm-.053-4.29a.712.712 0 0 1-.503.194.72.72 0 0 1-.505-.194.62.62 0 0 1-.21-.47c0-.184.071-.342.21-.473.14-.13.31-.196.505-.196.196 0 .364.066.503.196.14.131.21.289.21.472 0 .184-.07.341-.21.47Z" fill="#F5A623"/></svg>