<svg width="47" height="47" fill="none" xmlns="http://www.w3.org/2000/svg"><g clip-path="url(#clip0)"><path d="M23.065 46.13c12.738 0 23.065-10.327 23.065-23.065C46.13 10.326 35.803 0 23.065 0 10.326 0 0 10.326 0 23.065 0 35.803 10.326 46.13 23.065 46.13z" fill="#E0E0E0"/><path d="M16.911 12.238a7.26 7.26 0 00-.725.198l-.065.02a8.173 8.173 0 01-1.397.325c.106-.061.216-.116.328-.164.35-.064.697-.151 1.035-.263l.066-.021.235-.07c.134-.014.268-.022.403-.022h.122l-.002-.003zM20 12.484a8.263 8.263 0 00-3.822.3l-.065.024a8.198 8.198 0 01-2.01.384 2.74 2.74 0 01.155-.12 8.083 8.083 0 001.821-.37l.065-.02a8.34 8.34 0 013.688-.33l.168.132z" fill="#000"/><path d="M20.546 12.942a8.194 8.194 0 00-4.368.193l-.065.021a8.238 8.238 0 01-2.41.404c.034-.04.071-.077.111-.112a8.216 8.216 0 002.265-.395l.065-.023a8.358 8.358 0 014.213-.24l.189.152z" fill="#000"/><path d="M21.166 13.459a8.194 8.194 0 00-4.98.025l-.065.021a8.27 8.27 0 01-2.714.403 1.44 1.44 0 01.088-.109c.88.01 1.756-.125 2.592-.397l.066-.02a8.322 8.322 0 014.8-.1l.213.177z" fill="#000"/><path d="M21.806 13.995a7.063 7.063 0 01-.537-.156 8.237 8.237 0 00-5.083 0l-.065.021a8.272 8.272 0 01-2.952.395c.02-.035.043-.07.067-.103a8.207 8.207 0 002.852-.395l.065-.02a8.326 8.326 0 015.15 0c.1.033.21.064.306.092l.197.166z" fill="#000"/><path d="M22.121 14.303v.114a7.977 7.977 0 01-.853-.23 8.221 8.221 0 00-5.082 0l-.065.022a8.31 8.31 0 01-3.152.384.844.844 0 01.055-.107 8.152 8.152 0 003.057-.382l.065-.021a8.326 8.326 0 015.15 0c.27.09.546.163.825.22z" fill="#000"/><path d="M22.122 14.654v.112a7.976 7.976 0 01-.853-.23 8.221 8.221 0 00-5.083 0l-.065.022a8.294 8.294 0 01-3.305.359c.013-.036.03-.072.046-.107a8.194 8.194 0 003.221-.368l.065-.02a8.342 8.342 0 015.15 0c.27.093.545.17.824.232z" fill="#000"/><path d="M22.122 15.005v.122a7.976 7.976 0 01-.853-.229 8.207 8.207 0 00-5.083 0l-.065.021a8.285 8.285 0 01-3.422.36c.01-.036.023-.072.033-.105a8.147 8.147 0 003.362-.358l.065-.02a8.326 8.326 0 015.15 0c.266.085.538.155.813.21z" fill="#000"/><path d="M22.122 15.354v.112a7.976 7.976 0 01-.853-.23 8.236 8.236 0 00-5.083 0l-.065.021a8.327 8.327 0 01-3.515.345.864.864 0 01.025-.105 8.194 8.194 0 003.456-.349l.066-.02a8.326 8.326 0 015.15 0c.268.09.541.166.819.226z" fill="#000"/><path d="M22.121 15.703v.111a7.946 7.946 0 01-.853-.229 8.221 8.221 0 00-5.082 0l-.065.021a8.315 8.315 0 01-3.572.343c0-.036 0-.074.017-.11a8.216 8.216 0 003.525-.336l.066-.023a8.326 8.326 0 015.15 0c.266.09.539.164.814.223z" fill="#000"/><path d="M22.122 16.052v.113a8.006 8.006 0 01-.853-.229 8.206 8.206 0 00-5.083 0l-.065.021a8.307 8.307 0 01-3.61.338v-.107c1.201.152 2.42.038 3.572-.334l.066-.02a8.341 8.341 0 015.149 0c.27.088.545.16.824.218z" fill="#000"/><path d="M22.122 16.4v.114a7.958 7.958 0 01-.854-.23 8.221 8.221 0 00-5.082 0l-.065.022a8.31 8.31 0 01-3.618.338v-.11a8.195 8.195 0 003.584-.331l.066-.021a8.325 8.325 0 015.15 0c.268.088.541.161.819.218z" fill="#000"/><path d="M22.122 16.75v.113a8.006 8.006 0 01-.854-.23 8.236 8.236 0 00-5.082 0l-.065.024a8.278 8.278 0 01-3.618.336v-.11a8.193 8.193 0 003.584-.331l.066-.021a8.327 8.327 0 015.15 0c.268.088.541.161.819.218z" fill="#000"/><path d="M22.122 17.098v.113a7.982 7.982 0 01-.854-.229 8.221 8.221 0 00-5.082 0l-.065.021a8.312 8.312 0 01-3.618.339v-.114a8.223 8.223 0 003.584-.33l.066-.023a8.354 8.354 0 015.15 0c.268.09.541.165.819.223z" fill="#000"/><path d="M22.122 17.451v.111a7.982 7.982 0 01-.854-.229 8.206 8.206 0 00-5.082 0l-.065.021a8.31 8.31 0 01-3.618.339v-.112a8.194 8.194 0 003.584-.33l.066-.02a8.325 8.325 0 015.15 0c.268.089.541.162.819.22z" fill="#000"/><path d="M22.122 17.8v.11a7.982 7.982 0 01-.854-.228 8.236 8.236 0 00-5.082 0l-.065.02a8.313 8.313 0 01-3.618.34v-.11a8.195 8.195 0 003.584-.332l.066-.021a8.327 8.327 0 015.15 0c.268.09.541.163.819.22z" fill="#000"/><path d="M22.122 18.148v.112a8.006 8.006 0 01-.854-.23 8.236 8.236 0 00-5.082 0l-.065.024a8.278 8.278 0 01-3.618.336v-.111c1.205.155 2.43.04 3.584-.337l.066-.02a8.327 8.327 0 015.15 0c.268.09.541.166.819.226z" fill="#000"/><path d="M22.122 18.489v.111a8.006 8.006 0 01-.854-.229 8.221 8.221 0 00-5.082 0l-.065.021a8.312 8.312 0 01-3.618.338v-.11a8.223 8.223 0 003.584-.33l.066-.022a8.341 8.341 0 015.15 0c.268.09.541.163.819.22z" fill="#000"/><path d="M22.122 18.846v.113a7.982 7.982 0 01-.854-.229 8.236 8.236 0 00-5.082 0l-.065.021a8.313 8.313 0 01-3.618.339v-.11a8.193 8.193 0 003.584-.332l.066-.02a8.327 8.327 0 015.15 0c.268.088.541.16.819.218z" fill="#000"/><path d="M22.122 19.195v.113a7.982 7.982 0 01-.854-.229 8.236 8.236 0 00-5.082 0l-.065.021a8.31 8.31 0 01-3.618.339v-.11a8.193 8.193 0 003.584-.332l.066-.02a8.325 8.325 0 015.15 0c.268.088.541.16.819.218z" fill="#000"/><path d="M22.122 19.54v.113a7.982 7.982 0 01-.854-.23 8.221 8.221 0 00-5.082 0l-.065.022a8.278 8.278 0 01-3.618.336v-.11a8.223 8.223 0 003.584-.33l.066-.022a8.34 8.34 0 015.15 0c.268.089.541.163.819.22z" fill="#000"/><path d="M22.122 19.894v.114a7.982 7.982 0 01-.854-.23 8.206 8.206 0 00-5.082 0l-.065.022a8.31 8.31 0 01-3.618.338v-.111a8.223 8.223 0 003.584-.33l.066-.021a8.34 8.34 0 015.15 0c.268.088.541.161.819.218z" fill="#000"/><path d="M22.122 20.245v.112a8.006 8.006 0 01-.854-.23 8.236 8.236 0 00-5.082 0l-.065.022a8.312 8.312 0 01-3.618.338v-.107a8.193 8.193 0 003.584-.332l.066-.021a8.327 8.327 0 015.15 0c.268.088.541.161.819.218z" fill="#000"/><path d="M22.122 20.59v.111a7.982 7.982 0 01-.854-.229 8.237 8.237 0 00-5.082 0l-.065.023a8.311 8.311 0 01-3.618.336v-.109a8.194 8.194 0 003.584-.342l.066-.021a8.325 8.325 0 015.15 0c.268.093.541.17.819.23z" fill="#000"/><path d="M22.121 20.943v.111a8 8 0 01-.853-.229 8.22 8.22 0 00-5.09-.004l-.066.02a8.311 8.311 0 01-3.617.34v-.112a8.223 8.223 0 003.584-.33l.065-.023a8.342 8.342 0 015.15 0c.27.091.547.167.827.227z" fill="#000"/><path d="M22.122 21.291v.114a8.006 8.006 0 01-.854-.23 8.206 8.206 0 00-5.082 0l-.065.022a8.312 8.312 0 01-3.618.338v-.105a8.254 8.254 0 003.584-.332l.066-.02a8.327 8.327 0 015.15 0c.268.086.541.158.819.213z" fill="#000"/><path d="M22.122 21.64v.114a7.982 7.982 0 01-.854-.23 8.236 8.236 0 00-5.082 0l-.065.022a7.897 7.897 0 01-1.374.305h-2.244v-.09a8.193 8.193 0 003.584-.33l.066-.022a8.327 8.327 0 015.15 0c.268.093.541.17.819.231z" fill="#000"/><path d="M21.592 21.85h-.372a8.213 8.213 0 00-5.006 0h-.366l.24-.073.065-.021a8.325 8.325 0 015.15 0c.096.046.19.075.29.094z" fill="#000"/><path d="M20.29 21.85h-.75a8.156 8.156 0 00-1.633 0h-.757a8.405 8.405 0 013.14 0zM15.081 25.298c-.85.158-1.72.183-2.578.074v-.074h.347c.47.042.942.042 1.412 0h.82zM21.04 25.298c.075.021.153.044.228.07.28.091.565.168.853.229v-.112a6.892 6.892 0 01-.708-.187h-.374zM16.026 25.298h.362a4.73 4.73 0 00-.21.063l-.066.021a8.311 8.311 0 01-3.617.338v-.109a8.167 8.167 0 003.523-.313h.008z" fill="#000"/><path d="M19.983 25.298c.448.068.89.173 1.32.315.268.086.542.156.819.21v.112a7.982 7.982 0 01-.854-.23 8.236 8.236 0 00-5.082 0l-.065.024a8.343 8.343 0 01-3.618.336v-.11a8.193 8.193 0 003.584-.323l.066-.02a8.16 8.16 0 011.298-.31l2.532-.004z" fill="#000"/><path d="M22.121 26.183v.111a8 8 0 01-.853-.229 8.22 8.22 0 00-5.09-.013l-.066.021a8.311 8.311 0 01-3.617.339V26.3a8.223 8.223 0 003.584-.33l.065-.02a8.342 8.342 0 015.15 0c.27.093.547.171.827.233z" fill="#000"/><path d="M22.122 26.532v.113a7.982 7.982 0 01-.854-.229 8.206 8.206 0 00-5.082 0l-.065.021a8.31 8.31 0 01-3.618.338v-.109a8.193 8.193 0 003.584-.332l.066-.02a8.325 8.325 0 015.15 0c.268.088.541.16.819.218z" fill="#000"/><path d="M22.122 26.88v.114a7.982 7.982 0 01-.854-.23 8.236 8.236 0 00-5.082 0l-.065.022a8.31 8.31 0 01-3.618.338v-.11a8.193 8.193 0 003.584-.331l.066-.021a8.325 8.325 0 015.15 0c.268.088.541.161.819.218z" fill="#000"/><path d="M22.121 27.23v.113a7.952 7.952 0 01-.853-.23 8.222 8.222 0 00-5.09-.01l-.066.021a8.276 8.276 0 01-3.617.336v-.109a8.195 8.195 0 003.584-.332l.065-.021a8.326 8.326 0 015.15 0c.27.093.547.17.827.231z" fill="#000"/><path d="M22.122 27.58v.114a8.006 8.006 0 01-.854-.23 8.206 8.206 0 00-5.082 0l-.065.021a8.312 8.312 0 01-3.618.339v-.112a8.223 8.223 0 003.584-.33l.066-.02a8.341 8.341 0 015.15 0c.268.088.541.161.819.218z" fill="#000"/><path d="M22.122 27.93v.112a8.006 8.006 0 01-.854-.229 8.236 8.236 0 00-5.082 0l-.065.021a8.312 8.312 0 01-3.618.338v-.109a8.193 8.193 0 003.584-.33l.066-.02a8.327 8.327 0 015.15 0c.268.088.541.16.819.218z" fill="#000"/><path d="M22.121 28.28v.11a7.976 7.976 0 01-.853-.228 8.236 8.236 0 00-5.09-.008l-.066.023a8.343 8.343 0 01-3.617.336v-.11a8.195 8.195 0 003.584-.331l.065-.021a8.326 8.326 0 015.15 0c.27.092.547.168.827.229z" fill="#000"/><path d="M22.122 28.628v.112a7.982 7.982 0 01-.854-.23 8.221 8.221 0 00-5.082 0l-.065.022a8.28 8.28 0 01-3.618.336v-.11a8.223 8.223 0 003.584-.33l.066-.022a8.34 8.34 0 015.15 0c.268.09.541.164.819.222z" fill="#000"/><path d="M22.122 28.977v.113a7.982 7.982 0 01-.854-.229 8.206 8.206 0 00-5.082 0l-.065.021a8.312 8.312 0 01-3.618.339v-.11a8.254 8.254 0 003.584-.327l.066-.021a8.34 8.34 0 015.15 0c.268.087.541.158.819.214z" fill="#000"/><path d="M22.121 29.326v.113a8 8 0 01-.853-.229 8.235 8.235 0 00-5.09-.006l-.066.021a8.311 8.311 0 01-3.617.338v-.109a8.193 8.193 0 003.584-.332l.065-.02a8.327 8.327 0 015.15 0c.27.09.547.165.827.224z" fill="#000"/><path d="M22.122 29.675v.113a7.982 7.982 0 01-.854-.229 8.236 8.236 0 00-5.082 0l-.065.023a8.283 8.283 0 01-3.618.336v-.109a8.193 8.193 0 003.584-.332l.066-.02a8.325 8.325 0 015.15 0c.268.088.541.16.819.218z" fill="#000"/><path d="M22.122 30.026v.111a8.006 8.006 0 01-.854-.229 8.221 8.221 0 00-5.082 0l-.065.021a8.31 8.31 0 01-3.618.326v-.112a8.223 8.223 0 003.584-.33l.066-.02a8.341 8.341 0 015.15 0c.267.093.541.17.819.233z" fill="#000"/><path d="M22.121 30.376v.112a7.976 7.976 0 01-.853-.23 8.206 8.206 0 00-5.09-.003l-.066.02a8.313 8.313 0 01-3.617.339v-.111a8.194 8.194 0 003.584-.33l.065-.021a8.327 8.327 0 015.15 0c.27.09.547.166.827.224z" fill="#000"/><path d="M22.121 30.725v.112a7.976 7.976 0 01-.853-.23 8.236 8.236 0 00-5.082 0l-.065.022a8.298 8.298 0 01-3.601.34.648.648 0 010-.111c1.2.155 2.42.042 3.572-.332l.065-.021a8.326 8.326 0 015.15 0c.267.089.539.162.814.22z" fill="#000"/><path d="M22.121 31.074v.111a7.976 7.976 0 01-.853-.229 8.223 8.223 0 00-5.082 0l-.065.021a8.33 8.33 0 01-3.557.345.675.675 0 01-.017-.111c1.19.147 2.4.032 3.54-.339l.065-.02a8.326 8.326 0 015.15 0c.269.09.542.163.82.222z" fill="#000"/><path d="M22.121 31.423v.113a7.978 7.978 0 01-.853-.229 8.207 8.207 0 00-5.09-.002l-.066.021a8.304 8.304 0 01-3.485.353l-.025-.113c1.17.137 2.356.02 3.477-.343l.065-.02a8.342 8.342 0 015.15 0c.271.089.547.162.827.22z" fill="#000"/><path d="M22.122 31.771v.114a8.006 8.006 0 01-.853-.23 8.206 8.206 0 00-5.083 0l-.065.022a8.308 8.308 0 01-3.374.363 1 1 0 01-.038-.111 8.18 8.18 0 003.378-.355l.066-.021a8.327 8.327 0 015.15 0c.268.088.541.161.819.218z" fill="#000"/><path d="M22.122 32.12v.114a7.982 7.982 0 01-.853-.23 8.236 8.236 0 00-5.083 0l-.065.022a8.318 8.318 0 01-3.227.378c-.019-.038-.036-.076-.053-.114a8.167 8.167 0 003.246-.367l.066-.021a8.327 8.327 0 015.15 0c.268.088.541.161.819.218z" fill="#000"/><path d="M22.121 32.469v.113a7.982 7.982 0 01-.853-.229 8.221 8.221 0 00-5.09.002l-.066.021a8.28 8.28 0 01-3.04.391 3.137 3.137 0 01-.065-.113 8.224 8.224 0 003.072-.38l.065-.024a8.327 8.327 0 015.15 0c.271.09.547.162.827.219z" fill="#000"/><path d="M22.122 32.82v.113a7.982 7.982 0 01-.853-.229 8.206 8.206 0 00-5.083 0l-.065.021a8.275 8.275 0 01-2.809.401c-.027-.035-.052-.073-.078-.11a8.21 8.21 0 002.853-.394l.066-.02a8.341 8.341 0 015.15 0c.268.088.541.16.819.218z" fill="#000"/><path d="M22.122 33.17v.112a8.001 8.001 0 01-.854-.229 8.236 8.236 0 00-5.082 0l-.065.021a8.25 8.25 0 01-2.521.406l-.095-.11a8.128 8.128 0 002.587-.399l.065-.02a8.327 8.327 0 015.15 0c.267.088.539.162.815.22z" fill="#000"/><path d="M22.122 33.52v.11a8 8 0 01-.853-.228 8.235 8.235 0 00-5.091.004l-.065.023a8.23 8.23 0 01-2.188.395 1.709 1.709 0 01-.109-.105 8.056 8.056 0 002.263-.395l.065-.021a8.327 8.327 0 015.15 0c.271.088.548.16.828.216z" fill="#000"/><path d="M22.122 33.868v.112a7.977 7.977 0 01-.853-.23 8.221 8.221 0 00-5.083 0l-.065.022a8.168 8.168 0 01-1.78.367 1.938 1.938 0 01-.134-.096c.64-.051 1.27-.176 1.88-.374l.066-.023a8.355 8.355 0 015.15 0c.268.09.541.164.819.222z" fill="#000"/><path d="M22.122 34.217v.113a7.976 7.976 0 01-.853-.229 8.207 8.207 0 00-5.083 0l-.065.021c-.425.139-.86.242-1.302.31a1.711 1.711 0 01-.162-.09 7.79 7.79 0 001.43-.323l.066-.02a8.326 8.326 0 015.15 0c.268.088.541.16.819.218z" fill="#000"/><path d="M22.122 34.566v.113a7.982 7.982 0 01-.854-.229 8.236 8.236 0 00-5.082 0l-.065.021a7.649 7.649 0 01-.746.21 2.298 2.298 0 01-.189-.071c.305-.06.606-.138.901-.236l.066-.02a8.326 8.326 0 015.15 0c.268.086.541.157.819.212z" fill="#000"/><path d="M22.122 34.914h-.458a8.532 8.532 0 01-.395-.117 8.221 8.221 0 00-5.083 0l-.065.02-.09.028a2.014 2.014 0 01-.223-.046l.28-.086.065-.021a8.327 8.327 0 015.15 0c.268.09.541.164.819.222z" fill="#000"/><path d="M20.867 34.917h-.47a8.195 8.195 0 00-3.362 0h-.437c1.399-.37 2.87-.37 4.27 0zM25.927 12.238c-.162.045-.328.08-.492.112v-.11h.492v-.002zM27.172 12.238c-.245.055-.49.122-.729.21-.33.11-.667.198-1.008.263v-.11c.327-.062.649-.146.964-.251.112-.036.223-.072.334-.101l.44-.01zM32.776 12.745a8.02 8.02 0 01-1.154-.282l-.111-.035a7.593 7.593 0 00-.683-.188c.211.002.422.021.63.057l.087.027.111.036c.233.076.468.141.708.194.141.055.279.118.412.19zM33.427 13.178a8.058 8.058 0 01-1.809-.362l-.111-.036a8.207 8.207 0 00-5.064.013c-.33.109-.667.196-1.008.26v-.109c.327-.063.649-.147.964-.252a8.345 8.345 0 015.142-.014l.11.035c.524.17 1.065.286 1.612.343.058.038.112.078.164.122z" fill="#000"/><path d="M33.843 13.553a8.264 8.264 0 01-2.225-.39l-.111-.038a8.238 8.238 0 00-5.064.012c-.33.11-.667.196-1.008.261v-.11c.327-.062.649-.146.964-.251a8.346 8.346 0 015.142-.01l.11.035a8.19 8.19 0 002.077.384c.04.03.077.068.115.107z" fill="#000"/><path d="M34.152 13.91a8.363 8.363 0 01-2.534-.398l-.111-.036a8.224 8.224 0 00-5.064 0c-.33.109-.667.196-1.008.26v-.109c.326-.063.648-.147.964-.25a8.33 8.33 0 015.142-.017l.11.038c.78.252 1.594.383 2.413.391.03.046.06.078.088.122z" fill="#000"/><path d="M34.393 14.255h-.227a8.262 8.262 0 01-2.548-.389l-.103-.041a8.223 8.223 0 00-5.063 0c-.33.109-.667.197-1.009.262v-.111c.326-.064.648-.147.964-.25a8.331 8.331 0 015.142-.015l.111.036c.863.278 1.766.41 2.673.393.022.037.042.075.06.115z" fill="#000"/><path d="M34.587 14.596c-.139 0-.28.012-.42.012a8.262 8.262 0 01-2.549-.399l-.111-.036a8.207 8.207 0 00-5.064.013c-.33.109-.667.196-1.008.26v-.11c.326-.067.649-.153.964-.26a8.344 8.344 0 015.142 0l.11.037c.93.298 1.906.428 2.881.384l.055.099z" fill="#000"/><path d="M34.742 14.938a8.323 8.323 0 01-3.124-.378l-.111-.036a8.224 8.224 0 00-5.064.01c-.33.11-.667.196-1.008.261v-.11c.327-.062.649-.146.964-.251a8.344 8.344 0 015.142-.015l.11.036a8.18 8.18 0 003.047.376c.017.035.032.07.044.107z" fill="#000"/><path d="M34.864 15.278a8.57 8.57 0 01-.697.03 8.266 8.266 0 01-2.549-.391l-.111-.036a8.224 8.224 0 00-5.064 0c-.33.11-.666.197-1.008.26v-.106c.327-.063.649-.148.964-.252a8.316 8.316 0 015.142-.015l.11.035a8.219 8.219 0 003.177.368.88.88 0 01.036.107z" fill="#000"/><path d="M34.953 15.619a8.262 8.262 0 01-3.334-.361l-.112-.036a8.223 8.223 0 00-5.064 0c-.33.11-.667.197-1.008.263v-.11c.327-.063.649-.147.964-.252a8.345 8.345 0 015.142.004l.11.036a8.21 8.21 0 003.278.357.863.863 0 01.023.099z" fill="#000"/><path d="M35.013 15.968a8.267 8.267 0 01-3.389-.355l-.111-.036a8.223 8.223 0 00-5.063.013c-.33.108-.667.195-1.009.26v-.11c.327-.062.649-.146.965-.251a8.346 8.346 0 015.14-.015l.112.036a8.172 8.172 0 003.347.35.96.96 0 01.008.108z" fill="#000"/><path d="M35.047 16.308c-.292.033-.586.05-.88.048a8.327 8.327 0 01-2.549-.388l-.111-.036a8.224 8.224 0 00-5.064 0c-.33.109-.667.196-1.008.26v-.109c.327-.063.649-.147.964-.252a8.345 8.345 0 015.142-.014l.11.037a8.22 8.22 0 003.388.345.634.634 0 01.008.11z" fill="#000"/><path d="M35.056 16.55v.107a8.262 8.262 0 01-3.437-.35l-.112-.037a8.224 8.224 0 00-5.064 0c-.33.11-.666.197-1.008.26v-.109c.326-.06.648-.142.964-.243a8.33 8.33 0 015.142 0l.11.035a8.195 8.195 0 003.405.336z" fill="#000"/><path d="M35.055 16.896v.11a8.262 8.262 0 01-3.437-.35l-.103-.037a8.207 8.207 0 00-5.063.013c-.33.108-.667.195-1.009.26v-.111c.326-.063.648-.147.964-.25a8.346 8.346 0 015.142-.015l.111.036a8.162 8.162 0 003.395.344z" fill="#000"/><path d="M35.056 17.247v.107a8.26 8.26 0 01-3.437-.349l-.112-.037a8.238 8.238 0 00-5.064.012c-.33.109-.667.196-1.008.26v-.11c.326-.064.648-.147.964-.25a8.345 8.345 0 015.142-.015l.11.035a8.23 8.23 0 003.405.347z" fill="#000"/><path d="M35.056 17.596v.11a8.326 8.326 0 01-3.437-.35l-.112-.037a8.223 8.223 0 00-5.064 0c-.33.108-.667.195-1.008.26v-.107c.327-.063.649-.147.964-.252a8.331 8.331 0 015.142-.017l.11.038a8.228 8.228 0 003.405.355z" fill="#000"/><path d="M35.056 17.945v.11a8.262 8.262 0 01-3.437-.35l-.112-.038a8.223 8.223 0 00-5.064 0c-.33.11-.667.198-1.008.263v-.11c.327-.062.649-.146.964-.251a8.331 8.331 0 015.142-.015l.11.036a8.161 8.161 0 003.405.355z" fill="#000"/><path d="M35.056 18.293v.11a8.268 8.268 0 01-3.437-.35l-.112-.037a8.206 8.206 0 00-5.064.013c-.33.108-.667.195-1.008.26v-.11c.327-.062.649-.146.964-.251a8.346 8.346 0 015.142-.015l.11.036a8.164 8.164 0 003.405.344z" fill="#000"/><path d="M35.056 18.644v.11a8.3 8.3 0 01-3.438-.351l-.111-.036a8.224 8.224 0 00-5.064 0c-.33.109-.667.196-1.008.26v-.109c.327-.063.649-.147.964-.252a8.345 8.345 0 015.142-.014l.11.035a8.23 8.23 0 003.405.357z" fill="#000"/><path d="M35.056 18.993v.11a8.262 8.262 0 01-3.437-.35l-.112-.037a8.224 8.224 0 00-5.064 0c-.33.11-.667.197-1.008.262v-.111c.326-.063.648-.147.964-.25a8.315 8.315 0 015.142-.015l.11.036a8.164 8.164 0 003.405.355z" fill="#000"/><path d="M35.056 19.342v.11a8.268 8.268 0 01-3.437-.35l-.112-.038a8.224 8.224 0 00-5.064.011c-.33.11-.667.197-1.008.263v-.112c.326-.063.648-.146.964-.25a8.345 8.345 0 015.142-.014l.11.035a8.164 8.164 0 003.405.345z" fill="#000"/><path d="M35.055 19.693v.107a8.265 8.265 0 01-3.437-.35l-.103-.037a8.223 8.223 0 00-5.063.013c-.33.109-.667.196-1.009.26v-.11c.323-.063.643-.145.956-.247a8.346 8.346 0 015.141-.014l.112.035a8.23 8.23 0 003.403.343z" fill="#000"/><path d="M35.056 20.041v.11a8.3 8.3 0 01-3.438-.351l-.111-.036a8.223 8.223 0 00-5.064.01c-.33.11-.667.196-1.008.261v-.109c.327-.063.649-.147.964-.252a8.346 8.346 0 015.142-.015l.11.036a8.23 8.23 0 003.405.346z" fill="#000"/><path d="M35.056 20.39v.11a8.262 8.262 0 01-3.437-.35l-.112-.037a8.223 8.223 0 00-5.064 0c-.33.11-.667.197-1.008.262v-.109c.327-.063.649-.147.964-.252a8.317 8.317 0 015.142-.015l.11.036a8.161 8.161 0 003.405.355z" fill="#000"/><path d="M35.056 20.739v.11a8.268 8.268 0 01-3.437-.35l-.112-.037a8.207 8.207 0 00-5.064.012c-.33.109-.667.196-1.008.26v-.109c.327-.063.649-.147.964-.252a8.345 8.345 0 015.142-.014l.11.035a8.164 8.164 0 003.405.345z" fill="#000"/><path d="M35.056 21.09v.107a8.325 8.325 0 01-3.437-.349l-.112-.037a8.238 8.238 0 00-5.064.012c-.33.109-.667.196-1.008.26v-.108c.327-.064.649-.148.964-.253a8.346 8.346 0 015.142-.014l.11.035a8.228 8.228 0 003.405.347z" fill="#000"/><path d="M35.056 21.43v.11a8.329 8.329 0 01-3.437-.35l-.112-.037a8.223 8.223 0 00-5.064 0c-.33.109-.667.196-1.008.26v-.109c.326-.063.648-.146.964-.25a8.33 8.33 0 015.142-.016l.11.037a8.228 8.228 0 003.405.355z" fill="#000"/><path d="M35.056 21.787v.063h-2.083a8.07 8.07 0 01-1.355-.313l-.111-.035a8.223 8.223 0 00-5.064.01c-.33.11-.667.197-1.008.263v-.112c.326-.063.648-.146.964-.25a8.331 8.331 0 015.142-.014l.11.035a8.16 8.16 0 003.405.353z" fill="#000"/><path d="M31.875 21.85h-.36a8.213 8.213 0 00-5.021 0h-.376c.099-.027.193-.056.29-.088a8.345 8.345 0 015.14-.014l.112.035.215.067z" fill="#000"/><path d="M30.578 21.85h-.744a8.057 8.057 0 00-1.68 0h-.75a8.318 8.318 0 013.174 0zM25.922 34.917h-.5v-.114c.17.032.337.074.5.114zM30.826 34.914l.21-.052c.155-.038.31-.084.462-.132l.111-.038a8.034 8.034 0 011.154-.282 4.32 4.32 0 01-.42.198c-.236.05-.467.115-.696.189l-.111.036-.076.023h-.42l-3.9.048h-.42a7.571 7.571 0 01-.313-.097 7.822 7.822 0 00-.974-.254v-.096c.338.064.672.151 1 .26.233.078.47.143.71.195h.023l3.66.002z" fill="#000"/><path d="M33.419 33.977a1.83 1.83 0 01-.164.127 7.95 7.95 0 00-1.612.342l-.111.036a8.34 8.34 0 01-5.13-.01 7.806 7.806 0 00-.976-.255v-.111c.339.065.673.151 1 .258a8.22 8.22 0 005.072.015l.112-.036a8.062 8.062 0 011.809-.366z" fill="#000"/><path d="M33.826 33.602c-.035.04-.073.077-.113.113a8.025 8.025 0 00-2.076.382l-.111.036a8.339 8.339 0 01-5.13-.01 7.81 7.81 0 00-.974-.255v-.111c.339.065.673.151 1 .258a8.218 8.218 0 005.072.015l.112-.036a8.266 8.266 0 012.22-.392z" fill="#000"/><path d="M34.144 33.244c-.028.038-.06.076-.089.111-.819.009-1.632.141-2.412.393l-.111.036a8.317 8.317 0 01-5.13-.013 7.815 7.815 0 00-.976-.252v-.113c.339.065.673.151 1 .258a8.22 8.22 0 005.072.015l.112-.036a8.297 8.297 0 012.534-.399z" fill="#000"/><path d="M34.385 32.9l-.071.107a8.173 8.173 0 00-2.67.4l-.112.035a8.318 8.318 0 01-5.13-.013 7.806 7.806 0 00-.976-.254v-.111c.339.065.673.151 1 .258a8.218 8.218 0 005.072.015l.112-.036a8.295 8.295 0 012.775-.401z" fill="#000"/><path d="M34.578 32.566c-.016.035-.035.069-.054.104a8.212 8.212 0 00-2.88.385l-.112.036a8.339 8.339 0 01-5.13-.01 7.823 7.823 0 00-.976-.255v-.113c.34.064.673.151 1 .26a8.22 8.22 0 005.072.015l.112-.036a8.27 8.27 0 012.968-.386z" fill="#000"/><path d="M34.734 32.219l-.044.105a8.177 8.177 0 00-3.047.376l-.111.036a8.339 8.339 0 01-5.13-.01 7.823 7.823 0 00-.976-.255v-.115c.34.064.673.151 1 .26a8.22 8.22 0 005.072.015l.112-.036a8.284 8.284 0 013.124-.376z" fill="#000"/><path d="M34.856 31.876c-.01.036-.023.072-.036.107a8.22 8.22 0 00-3.177.372l-.111.036a8.317 8.317 0 01-5.13-.012 7.815 7.815 0 00-.976-.253v-.113c.34.065.673.152 1 .26a8.234 8.234 0 005.072.015l.112-.035a8.328 8.328 0 013.246-.377z" fill="#000"/><path d="M34.944 31.536a1.022 1.022 0 01-.025.11 8.195 8.195 0 00-3.276.354l-.111.038a8.318 8.318 0 01-5.13-.012 7.823 7.823 0 00-.976-.255v-.111c.339.065.673.151 1 .258a8.22 8.22 0 005.072.015l.112-.036a8.34 8.34 0 013.334-.361z" fill="#000"/><path d="M35.005 31.194a.92.92 0 01-.015.107 8.172 8.172 0 00-3.347.35l-.111.037a8.339 8.339 0 01-5.13 0 7.823 7.823 0 00-.976-.255v-.128c.339.065.673.151 1 .259a8.218 8.218 0 005.072.014l.112-.035a8.333 8.333 0 013.395-.35z" fill="#000"/><path d="M35.039 30.849a.6.6 0 010 .107 8.195 8.195 0 00-3.396.349l-.11.036a8.339 8.339 0 01-5.132 0c-.32-.11-.647-.2-.979-.267v-.112c.339.066.673.152 1 .259a8.22 8.22 0 005.072.014l.112-.035a8.276 8.276 0 013.433-.351z" fill="#000"/><path d="M35.047 30.498v.11a8.229 8.229 0 00-3.404.346l-.111.036a8.318 8.318 0 01-5.13-.013 7.806 7.806 0 00-.976-.254v-.11c.339.066.673.152 1 .26a8.234 8.234 0 005.072.014l.112-.038a8.32 8.32 0 013.437-.35z" fill="#000"/><path d="M35.047 30.15v.104a8.194 8.194 0 00-3.404.343l-.111.038a8.318 8.318 0 01-5.13-.013 7.823 7.823 0 00-.976-.254v-.114c.339.066.673.152 1 .259a8.22 8.22 0 005.072.015l.112-.036a8.32 8.32 0 013.437-.343z" fill="#000"/><path d="M35.047 29.8v.11a8.163 8.163 0 00-3.404.344l-.111.036a8.339 8.339 0 01-5.13 0 7.823 7.823 0 00-.976-.254v-.114c.34.065.673.152 1 .26a8.22 8.22 0 005.072.016l.112-.036a8.318 8.318 0 013.437-.361z" fill="#000"/><path d="M35.047 29.452v.11a8.163 8.163 0 00-3.404.344l-.111.036a8.339 8.339 0 01-5.13 0 7.824 7.824 0 00-.976-.255v-.113c.34.065.673.152 1 .26a8.234 8.234 0 005.072.015l.112-.036a8.321 8.321 0 013.437-.361z" fill="#000"/><path d="M35.047 29.101v.103a8.23 8.23 0 00-3.404.347l-.111.035a8.318 8.318 0 01-5.13-.012 7.823 7.823 0 00-.976-.254v-.112c.34.065.673.152 1 .26a8.233 8.233 0 005.072.013l.112-.035a8.319 8.319 0 013.437-.345z" fill="#000"/><path d="M35.047 28.752v.11a8.228 8.228 0 00-3.404.344l-.111.036a8.34 8.34 0 01-5.13-.01 7.806 7.806 0 00-.976-.255v-.111c.339.065.673.151 1 .258a8.22 8.22 0 005.072.015l.112-.036a8.32 8.32 0 013.437-.35z" fill="#000"/><path d="M35.047 28.404v.109a8.163 8.163 0 00-3.404.344l-.111.036a8.34 8.34 0 01-5.13-.01 7.806 7.806 0 00-.976-.255v-.11c.339.064.673.15 1 .258a8.22 8.22 0 005.072.014l.112-.035a8.32 8.32 0 013.437-.351z" fill="#000"/><path d="M35.047 28.052v.101a8.229 8.229 0 00-3.404.347l-.111.036a8.318 8.318 0 01-5.13-.013 7.798 7.798 0 00-.976-.252v-.111c.339.065.673.151 1 .258a8.234 8.234 0 005.072.015l.112-.036a8.285 8.285 0 013.437-.345z" fill="#000"/><path d="M35.047 27.704v.109a8.227 8.227 0 00-3.404.347l-.111.035a8.318 8.318 0 01-5.13-.012 7.824 7.824 0 00-.976-.255v-.11c.339.064.673.15 1 .258a8.218 8.218 0 005.072.014l.112-.035a8.32 8.32 0 013.437-.351z" fill="#000"/><path d="M35.047 27.355v.11a8.163 8.163 0 00-3.404.344l-.111.036a8.339 8.339 0 01-5.13-.01 7.823 7.823 0 00-.976-.255v-.113c.34.064.673.151 1 .26a8.218 8.218 0 005.072.015l.112-.036a8.319 8.319 0 013.437-.35z" fill="#000"/><path d="M35.047 27.006v.11a8.163 8.163 0 00-3.404.344l-.111.036a8.34 8.34 0 01-5.13-.01 7.806 7.806 0 00-.976-.255v-.113c.34.064.673.151 1 .26a8.22 8.22 0 005.072.015l.112-.036a8.32 8.32 0 013.437-.35z" fill="#000"/><path d="M35.047 26.655v.11a8.231 8.231 0 00-3.404.346l-.11.036a8.318 8.318 0 01-5.132-.013 7.786 7.786 0 00-.979-.241v-.114c.339.065.673.152 1 .26a8.248 8.248 0 005.072.015l.112-.037a8.32 8.32 0 013.441-.362z" fill="#000"/><path d="M35.047 26.307v.111a8.193 8.193 0 00-3.404.343l-.111.037a8.36 8.36 0 01-5.13-.012 7.824 7.824 0 00-.976-.255v-.11c.339.064.673.15 1 .258a8.218 8.218 0 005.072.014l.112-.036a8.32 8.32 0 013.437-.35z" fill="#000"/><path d="M35.047 25.958v.11a8.162 8.162 0 00-3.404.344l-.111.035a8.339 8.339 0 01-5.13 0 7.823 7.823 0 00-.976-.254v-.111c.339.065.673.151 1 .258a8.218 8.218 0 005.072.015l.112-.036a8.321 8.321 0 013.437-.361z" fill="#000"/><path d="M35.047 25.61v.108a8.164 8.164 0 00-3.404.345l-.11.036a8.318 8.318 0 01-5.132-.013 7.829 7.829 0 00-.979-.244v-.111c.339.065.673.151 1 .258a8.22 8.22 0 005.072.015l.112-.036a8.318 8.318 0 013.441-.359z" fill="#000"/><path d="M35.047 25.298v.07a8.23 8.23 0 00-3.404.346l-.111.036a8.318 8.318 0 01-5.13-.013 7.823 7.823 0 00-.976-.254v-.11c.339.066.673.152 1 .26a8.249 8.249 0 005.072.014l.112-.038a8.134 8.134 0 011.338-.31h2.099z" fill="#000"/><path d="M31.86 25.298a2.47 2.47 0 00-.21.065l-.112.036a8.339 8.339 0 01-5.13 0l-.293-.09h.358a8.211 8.211 0 005.01 0l.377-.01z" fill="#000"/><path d="M30.57 25.298a8.37 8.37 0 01-3.169 0h.765a7.936 7.936 0 001.641 0h.763z" fill="#000"/><path d="M20.071 13.236v7.597h-9.618v-5.286a4.311 4.311 0 014.286-4.336h2.91M10.453 24.273h9.618v9.618h-5.307a4.311 4.311 0 01-4.311-4.311v-5.307zM33.005 20.834h-9.619v-9.62h5.308a4.31 4.31 0 014.31 4.31v5.31zM33.005 26.838v2.717a4.337 4.337 0 01-1.173 2.966" fill="#4F4F4F"/><path d="M16.831 27.513h-3.139v3.139h3.139v-3.14zM16.831 14.354h-3.139v3.14h3.139v-3.14zM29.765 14.354h-3.139v3.14h3.139v-3.14z" fill="#BDBDBD"/><path d="M29.765 27.513h-3.139v3.139h3.139v-3.14zM33.005 23.798h-3.839v.948h3.839v-.948zM23.86 26.838h-.948v-3.04h3.14v.948H23.86v2.092zM26.053 34.364h-3.141v-3.712h.947v2.767h2.194v.945zM32.18 32.845l-.692-.647a3.844 3.844 0 001.05-2.643v-2.717h.948v2.717c0 1.223-.468 2.4-1.307 3.29z" fill="#4F4F4F"/></g><defs><clipPath id="clip0"><path fill="#fff" d="M0 0h46.13v46.13H0z"/></clipPath></defs></svg>