<svg width="12" height="22" viewBox="0 0 12 22" fill="none" xmlns="http://www.w3.org/2000/svg">
    <path d="M11.333 1.973v18.054a1.586 1.586 0 0 1-1.52 1.64H2.186a1.587 1.587 0 0 1-1.52-1.64V1.973a1.587 1.587 0 0 1 1.52-1.64h7.627a1.586 1.586 0 0 1 1.52 1.64Z" fill="#EE7330" />
    <path d="M3.72 1.973v8.414a2.973 2.973 0 0 1-2.853 3.08h-.2V1.973H3.72Z" fill="#2D375E" />
    <path d="M11.333 18.387v1.64a1.586 1.586 0 0 1-1.52 1.64H2.186a1.587 1.587 0 0 1-1.52-1.64v-1.64h10.667ZM11.333 1.973H.666a1.587 1.587 0 0 1 1.52-1.64h7.627a1.586 1.586 0 0 1 1.52 1.64Z" fill="#F4BACC" />
    <path d="M6.76 20.44H5.24a.413.413 0 1 1 0-.827h1.52a.413.413 0 0 1 0 .827Z" fill="#EE7330" />
</svg>