<svg width="14" height="16" viewBox="0 0 14 16" fill="none" xmlns="http://www.w3.org/2000/svg">
    <path d="M13.1 10.63a7.849 7.849 0 0 1-12.2 0 4.57 4.57 0 0 1 3.77-2h4.66a4.55 4.55 0 0 1 3.77 2Z" fill="#2D375E" />
    <path d="M14 13.54v1.23A1.201 1.201 0 0 1 12.83 16H1.17A1.2 1.2 0 0 1 0 14.77v-1.23a5.17 5.17 0 0 1 .9-2.91 7.85 7.85 0 0 0 12.2 0c.585.858.9 1.872.9 2.91Z" fill="#EE7330" />
    <path d="M7 7.38c1.933 0 3.5-1.652 3.5-3.69C10.5 1.652 8.933 0 7 0S3.5 1.652 3.5 3.69c0 2.038 1.567 3.69 3.5 3.69Z" fill="#F4BACC" />
</svg>