<svg width="47" height="47" fill="none" xmlns="http://www.w3.org/2000/svg"><g clip-path="url(#clip0)"><path d="M23.065 46.13c12.738 0 23.065-10.327 23.065-23.065C46.13 10.326 35.803 0 23.065 0 10.326 0 0 10.326 0 23.065 0 35.803 10.326 46.13 23.065 46.13z" fill="#E0E0E0"/><path d="M23.519 12.562l-.021.107a8.076 8.076 0 01-1.66-.277h.443c.407.09.821.147 1.238.17zM21.495 12.524a8.106 8.106 0 001.959.385l-.021.107a8.209 8.209 0 01-1.973-.39 7.45 7.45 0 00-.271-.081c.05-.027.103-.05.157-.067l.15.046zM27.523 12.396c-.298.061-.593.14-.882.235l-.13.04.023-.122.063-.019c.151-.05.304-.094.46-.134h.466zM21.495 12.873c.613.2 1.248.328 1.891.38l-.019.107a8.22 8.22 0 01-1.91-.384c-.21-.07-.42-.13-.646-.18a.728.728 0 01.096-.085c.204.042.397.105.588.162zM28.866 12.575a8.141 8.141 0 00-2.23.399l-.21.06.024-.121c.044-.01.088-.026.132-.04a8.28 8.28 0 012.078-.397.852.852 0 01.206.098zM21.496 13.222c.592.194 1.205.32 1.826.373l-.021.108a8.15 8.15 0 01-1.845-.376 7.63 7.63 0 00-.893-.238 1.6 1.6 0 01.067-.099c.293.062.582.139.866.232zM29.204 12.917a8.237 8.237 0 00-2.563.405c-.091.03-.181.057-.271.082l.023-.121c.067-.017.136-.038.21-.061a8.252 8.252 0 012.534-.42.736.736 0 01.067.115zM21.496 13.572a8.17 8.17 0 001.764.368l-.019.107a8.19 8.19 0 01-1.781-.372 7.979 7.979 0 00-1.036-.264 1.54 1.54 0 01.036-.105c.35.065.697.154 1.036.266zM29.32 13.268a8.196 8.196 0 00-2.683.403 6.99 6.99 0 01-.34.103l.023-.118.273-.084a8.243 8.243 0 012.706-.42.567.567 0 01.02.116zM21.496 13.921a8.132 8.132 0 001.701.362l-.02.107a8.274 8.274 0 01-1.717-.366 7.883 7.883 0 00-1.116-.28l.02-.106c.383.067.761.162 1.132.283zM29.33 13.51a.71.71 0 010 .109 8.076 8.076 0 00-2.683.403 5.857 5.857 0 01-.42.122l.02-.12c.116-.031.232-.065.346-.103a8.373 8.373 0 012.737-.412zM21.496 14.27c.532.175 1.08.294 1.636.357l-.019.105a8.266 8.266 0 01-1.653-.359 8.136 8.136 0 00-1.18-.296l.018-.105c.406.068.807.167 1.198.298zM29.276 13.867l-.021.109a8.145 8.145 0 00-2.618.403c-.16.053-.32.099-.481.139l.023-.118c.138-.036.277-.078.42-.122a8.277 8.277 0 012.677-.412zM21.495 14.62a8.23 8.23 0 001.574.35l-.02.105a8.215 8.215 0 01-1.59-.351 7.993 7.993 0 00-1.245-.303l.019-.107c.428.069.85.171 1.262.307zM29.204 14.207l-.021.107c-.866 0-1.727.137-2.55.406a7.432 7.432 0 01-.551.157l.023-.115c.162-.04.324-.088.483-.141a8.276 8.276 0 012.616-.414zM21.495 14.97c.491.161.996.275 1.509.338l-.019.107a8.08 8.08 0 01-1.525-.342 7.772 7.772 0 00-1.311-.311l.019-.107c.45.067.895.172 1.328.315zM29.14 14.556l-.02.109a8.106 8.106 0 00-2.483.403c-.21.068-.42.126-.63.179l.022-.118c.187-.046.37-.098.553-.16a8.298 8.298 0 012.559-.413zM21.495 15.318c.47.155.955.266 1.446.33l-.021.107a8.079 8.079 0 01-1.47-.334 7.952 7.952 0 00-1.379-.32l.021-.108c.477.066.946.175 1.404.325zM29.072 14.917l-.021.11a8.13 8.13 0 00-2.414.403 8.534 8.534 0 01-.69.193l.022-.115c.21-.053.42-.112.63-.179a8.307 8.307 0 012.473-.412zM21.496 15.667c.45.15.912.257 1.382.322l-.021.107a7.987 7.987 0 01-1.397-.324 7.933 7.933 0 00-1.444-.332l.022-.105a8.05 8.05 0 011.458.332zM29.005 15.258l-.021.109a8.19 8.19 0 00-2.347.401c-.25.082-.502.151-.759.21l.021-.115a7.39 7.39 0 00.694-.194 8.202 8.202 0 012.412-.411zM21.496 16.018c.429.141.87.245 1.317.31l-.019.108a8.088 8.088 0 01-1.334-.315 7.88 7.88 0 00-1.5-.338l.02-.11a8.07 8.07 0 011.516.345zM28.937 15.608l-.02.107a8.17 8.17 0 00-2.28.402 8.155 8.155 0 01-.828.222l.023-.115c.257-.057.51-.127.76-.21a8.268 8.268 0 012.345-.406zM21.495 16.367c.412.134.833.235 1.261.302l-.019.11a8.243 8.243 0 01-1.26-.31 8.228 8.228 0 00-1.574-.348l.02-.107c.535.066 1.061.184 1.572.353zM28.87 15.968l-.021.107a8.167 8.167 0 00-2.212.401 8.32 8.32 0 01-.898.24l.024-.118c.28-.06.557-.134.83-.223a8.349 8.349 0 012.277-.407zM21.495 16.715c.39.129.79.226 1.196.29l-.019.11a7.988 7.988 0 01-1.208-.296 8.126 8.126 0 00-1.641-.356l.021-.107a8.261 8.261 0 011.651.36zM28.8 16.312l-.02.11a8.088 8.088 0 00-2.143.386c-.317.104-.64.19-.967.254l.023-.117c.305-.061.605-.14.9-.238a8.256 8.256 0 012.208-.395zM21.496 17.064c.368.122.745.216 1.128.282l-.021.107a7.966 7.966 0 01-1.143-.283 8.04 8.04 0 00-1.71-.362l.02-.107c.587.06 1.165.182 1.726.363zM28.734 16.663l-.021.112c-.706.04-1.404.17-2.076.39a8.025 8.025 0 01-1.034.274l.021-.112c.328-.065.651-.15.969-.254a8.377 8.377 0 012.14-.41zM21.495 17.415c.349.116.705.206 1.066.271l-.021.105a7.967 7.967 0 01-1.08-.273 7.949 7.949 0 00-1.771-.368l.019-.109a8.253 8.253 0 011.788.374zM28.664 17.018l-.021.11a8.172 8.172 0 00-2.006.386c-.36.12-.73.212-1.104.277l.021-.11a7.75 7.75 0 001.038-.266 8.143 8.143 0 012.072-.397zM21.496 17.764c.327.109.662.195 1.002.259l-.021.107a8.028 8.028 0 01-1.017-.271 7.983 7.983 0 00-1.838-.374l.02-.11c.631.058 1.253.188 1.854.39zM28.597 17.371l-.021.11c-.66.045-1.311.173-1.94.378a8.399 8.399 0 01-1.172.292l.021-.116a7.756 7.756 0 001.108-.277 8.262 8.262 0 012.004-.387z" fill="#000"/><path d="M28.528 17.724l-.021.111a8.118 8.118 0 00-1.87.378 8.336 8.336 0 01-5.177 0 8.196 8.196 0 00-1.904-.38l.021-.107a8.302 8.302 0 011.918.385 8.195 8.195 0 005.098 0 8.359 8.359 0 011.935-.387z" fill="#000"/><path d="M28.458 18.081l-.02.111a8.114 8.114 0 00-1.801.37 8.352 8.352 0 01-5.177 0 8.11 8.11 0 00-1.97-.386l.02-.107c.675.047 1.342.179 1.986.39a8.22 8.22 0 005.097 0 8.25 8.25 0 011.865-.378zM31.385 18.346l-.019.107a5.11 5.11 0 00-.437-.107h.456z" fill="#000"/><path d="M31.324 18.678l-.02.107a8.207 8.207 0 00-4.667.126 8.319 8.319 0 01-5.177 0 8.22 8.22 0 00-5.024-.023.875.875 0 01.112-.147 8.299 8.299 0 014.948.067 8.22 8.22 0 005.097 0 8.34 8.34 0 014.731-.13z" fill="#000"/><path d="M31.261 19.012l-.019.105a8.22 8.22 0 00-4.605.145 8.336 8.336 0 01-5.177 0 8.216 8.216 0 00-5.08 0l-.065.021-.05.015c.01-.044.024-.086.04-.128l.041-.013a8.326 8.326 0 015.15 0 8.22 8.22 0 005.097 0 8.33 8.33 0 014.668-.145z" fill="#000"/><path d="M31.2 19.344l-.019.11a8.215 8.215 0 00-4.544.157 8.338 8.338 0 01-5.177 0 8.215 8.215 0 00-5.08 0l-.066.02c-.041.013-.084.028-.126.039l.024-.12.069-.021.065-.021a8.342 8.342 0 015.15 0 8.193 8.193 0 005.097 0 8.345 8.345 0 014.607-.164z" fill="#000"/><path d="M31.14 19.678l-.022.107a8.228 8.228 0 00-4.481.174 8.336 8.336 0 01-5.177 0 8.194 8.194 0 00-5.072 0l-.065.021a2.937 2.937 0 01-.194.06l.021-.12.14-.043.064-.02a8.325 8.325 0 015.15 0c1.656.54 3.44.54 5.097 0a8.328 8.328 0 014.538-.18z" fill="#000"/><path d="M31.07 20.012a.842.842 0 01-.032.103 8.226 8.226 0 00-4.401.193 8.32 8.32 0 01-5.177 0 8.23 8.23 0 00-5.08 0l-.066.021c-.086.03-.174.055-.262.08l.023-.12c.07-.019.138-.04.21-.063l.065-.02a8.326 8.326 0 015.15 0 8.22 8.22 0 005.097 0 8.341 8.341 0 014.473-.194z" fill="#000"/><path d="M30.944 20.334a.734.734 0 01-.06.096 8.216 8.216 0 00-4.247.23 8.079 8.079 0 01-1.587.35 8.242 8.242 0 01-2.395-.055 8.08 8.08 0 01-1.195-.294 8.214 8.214 0 00-5.08 0l-.066.021c-.109.036-.22.07-.33.099l.022-.12c.092-.025.182-.052.275-.082l.065-.023a8.327 8.327 0 015.15 0 8.096 8.096 0 002.907.397 8.096 8.096 0 002.19-.397 8.345 8.345 0 014.35-.223z" fill="#000"/><path d="M30.704 20.634a.435.435 0 01-.059.05.382.382 0 01-.06.04 8.22 8.22 0 00-3.948.286 8.36 8.36 0 01-5.177.004 8.193 8.193 0 00-4.916-.056h-.366c.036 0 .07-.021.105-.032l.065-.02a8.341 8.341 0 015.15 0 8.156 8.156 0 003.51.349c.54-.064 1.071-.18 1.587-.35a8.33 8.33 0 014.11-.27z" fill="#000"/><path d="M30.13 20.899c-.207.04-.418.06-.63.056h-.529c-.316.008-.63.034-.943.078a8.275 8.275 0 00-1.389.324 8.032 8.032 0 01-1.716.365 8.284 8.284 0 01-3.46-.357 8.043 8.043 0 00-2.369-.401h-1.53a8.319 8.319 0 013.932.303c.162.052.325.1.49.14a8.228 8.228 0 004.607-.14 8.29 8.29 0 013.538-.368z" fill="#000"/><path d="M27.98 21.281l-.022.114c-.448.065-.89.17-1.321.313a8.324 8.324 0 01-5.177.002 8.118 8.118 0 00-2.433-.404l.019-.109c.833.015 1.659.157 2.45.42a8.18 8.18 0 003.362.361 7.996 7.996 0 001.718-.36 8.103 8.103 0 011.403-.337z" fill="#000"/><path d="M27.914 21.64l-.021.114c-.428.067-.85.17-1.26.304a8.322 8.322 0 01-5.177.003 8.152 8.152 0 00-2.5-.406l.02-.107a8.132 8.132 0 012.521.42 8.206 8.206 0 005.097 0c.43-.144.872-.254 1.32-.328z" fill="#000"/><path d="M27.847 22l-.021.115a7.727 7.727 0 00-1.19.29 8.352 8.352 0 01-4.859.103l-.317-.099a8.117 8.117 0 00-2.565-.405l.02-.11a8.227 8.227 0 012.58.42c.101.034.21.064.303.093a8.194 8.194 0 004.793-.092c.41-.138.83-.243 1.256-.316z" fill="#000"/><path d="M27.78 22.361l-.021.113c-.38.066-.756.16-1.122.28a8.33 8.33 0 01-5.177.004 8.104 8.104 0 00-2.63-.403l.018-.11c.9-.005 1.794.137 2.648.42l.24.074a8.194 8.194 0 004.857-.073 8.037 8.037 0 011.187-.305z" fill="#000"/><path d="M27.715 22.722l-.021.114a8.037 8.037 0 00-1.051.269 8.326 8.326 0 01-4.984.06c-.065-.016-.128-.037-.193-.058a8.174 8.174 0 00-2.698-.404l.021-.109a8.262 8.262 0 012.713.41l.178.054c.952.29 1.95.401 2.942.33a7.97 7.97 0 001.981-.384c.364-.12.735-.214 1.111-.282z" fill="#000"/><path d="M27.647 23.084l-.02.115a7.684 7.684 0 00-.99.255 8.344 8.344 0 01-5.043.044l-.13-.04a8.11 8.11 0 00-2.765-.403l.021-.108a8.26 8.26 0 012.778.406l.115.035a8.231 8.231 0 004.982-.035 8.001 8.001 0 011.052-.27z" fill="#000"/><path d="M27.58 23.445l-.02.116a7.83 7.83 0 00-.923.241 8.293 8.293 0 01-2.177.401 8.196 8.196 0 01-2.941-.376l-.07-.02a8.179 8.179 0 00-2.83-.4l.021-.111a8.33 8.33 0 012.845.407l.053.017a8.23 8.23 0 005.042-.017 8.03 8.03 0 011-.258z" fill="#000"/><path d="M27.523 23.809l-.02.115c-.29.06-.575.135-.856.227-1.68.55-3.49.55-5.17 0a8.156 8.156 0 00-2.896-.397l.021-.111a8.294 8.294 0 012.902.403 8.21 8.21 0 005.097 0c.303-.097.61-.176.922-.237z" fill="#000"/><path d="M27.446 24.172l-.021.116c-.267.055-.53.125-.788.21a8.35 8.35 0 01-5.177 0l-.055-.017a8.168 8.168 0 00-2.916-.37l.021-.11a8.212 8.212 0 012.92.37l.072.022c1.656.54 3.44.54 5.097 0 .278-.09.56-.163.847-.221zM15.547 25.002h.303c-.103.03-.21.055-.315.076l.012-.076z" fill="#000"/><path d="M27.378 24.536l-.02.117c-.1783.054-.485.12-.721.198a8.347 8.347 0 01-5.177.004l-.118-.036a8.127 8.127 0 00-2.91-.357l.019-.107a8.278 8.278 0 012.912.353l.132.042c.323.106.652.19.986.252a8.194 8.194 0 004.11-.256c.258-.084.521-.154.787-.21z" fill="#000"/><path d="M27.336 25.002a7.34 7.34 0 00-.7.193 8.336 8.336 0 01-5.176 0 8.176 8.176 0 00-3.095-.387c-.435.028-.867.09-1.292.19a7.376 7.376 0 00-.694.19l-.065.022c-.276.09-.556.166-.84.227l.019-.118c.267-.056.532-.127.792-.21l.065-.021a7.968 7.968 0 012.04-.387 8.262 8.262 0 013.11.393 8.22 8.22 0 005.097 0c.235-.078.476-.145.718-.21l-.019.105.04.013z" fill="#000"/><path d="M30.032 25.19a8.158 8.158 0 00-3.395.36 8.338 8.338 0 01-5.177 0 8.229 8.229 0 00-5.08 0l-.066.024a7.86 7.86 0 01-.905.237l.019-.118a7.49 7.49 0 00.853-.225l.065-.02a8.327 8.327 0 015.15 0c1.655.54 3.44.54 5.096 0a8.34 8.34 0 013.173-.393.775.775 0 01.267.134z" fill="#000"/><path d="M30.273 25.567a8.24 8.24 0 00-3.636.332 8.336 8.336 0 01-5.177 0 8.216 8.216 0 00-5.08 0l-.066.021a8.578 8.578 0 01-.964.252l.019-.113c.308-.061.613-.14.912-.238l.065-.023a8.358 8.358 0 015.15 0c1.656.54 3.44.54 5.097 0a8.377 8.377 0 013.643-.347.625.625 0 01.037.116z" fill="#000"/><path d="M30.326 25.924a8.194 8.194 0 00-3.69.324 8.35 8.35 0 01-5.176 0 8.194 8.194 0 00-5.08 0l-.066.02c-.329.109-.665.195-1.006.26v-.112c.326-.063.649-.147.965-.25l.065-.021a8.326 8.326 0 015.15 0 8.22 8.22 0 005.096 0 8.332 8.332 0 013.725-.338.65.65 0 01.017.117z" fill="#000"/><path d="M30.322 26.162v.11a8.219 8.219 0 00-3.675.325 8.336 8.336 0 01-5.177 0 8.23 8.23 0 00-5.08 0l-.065.02a7.754 7.754 0 01-.994.257v-.11c.329-.063.653-.146.971-.25l.065-.02a8.326 8.326 0 015.15 0 8.22 8.22 0 005.097 0 8.29 8.29 0 013.708-.332z" fill="#000"/><path d="M30.28 26.506l-.017.107a8.193 8.193 0 00-3.626.335 8.338 8.338 0 01-5.177 0 8.23 8.23 0 00-5.08 0l-.066.023a7.82 7.82 0 01-.897.235.754.754 0 01-.044-.103 8 8 0 00.908-.238l.065-.02a8.327 8.327 0 015.15 0 8.22 8.22 0 005.097 0 8.32 8.32 0 013.687-.339z" fill="#000"/><path d="M22.806 27.618a8.038 8.038 0 01-1.346-.317 8.194 8.194 0 00-5.08 0l-.066.02c-.21.068-.42.124-.617.177a.633.633 0 01-.122-.086c.237-.053.473-.118.706-.193l.065-.021a8.34 8.34 0 015.15 0 8.195 8.195 0 005.097 0 8.338 8.338 0 013.634-.347l-.017.105a8.242 8.242 0 00-3.571.342 8.296 8.296 0 01-2.706.42l-1.127-.1z" fill="#000"/><path d="M21.496 27.546c.077.026.155.05.235.072h-.374a8.176 8.176 0 00-4.895 0h-.187a1.19 1.19 0 01-.154 0l.16-.049.065-.02a8.326 8.326 0 015.15-.003zM30.175 27.191l-.017.108a8.194 8.194 0 00-3.521.346 8.313 8.313 0 01-2.774.41l.021-.105a8.23 8.23 0 002.709-.404 8.294 8.294 0 013.582-.355z" fill="#000"/><path d="M20.918 27.733l-.02.107a8.216 8.216 0 00-2.94-.187v-.031h-.534a8.339 8.339 0 013.494.111zM30.122 27.534l-.012.084h-.1783a8.289 8.289 0 00-1.37 0 8.079 8.079 0 00-1.626.304c-.078.021-.156.046-.233.072a8.332 8.332 0 01-2.841.42l.021-.11a8.13 8.13 0 002.775-.4c.1-.032.198-.064.299-.091a8.361 8.361 0 013.231-.28zM20.857 28.06l-.019.11a8.194 8.194 0 00-2.941-.164l.02-.113a8.373 8.373 0 012.94.168zM26.822 28.174l-.024.122c-.054.013-.109.032-.161.049a8.338 8.338 0 01-2.908.407l.02-.109c.965.036 1.927-.1 2.844-.4.075-.024.153-.048.229-.069zM20.8 28.4l-.019.106a8.17 8.17 0 00-2.958-.143l.02-.111a8.354 8.354 0 012.957.147zM26.752 28.544l-.023.122-.092.027c-.96.314-1.967.45-2.975.406l.02-.11a8.144 8.144 0 002.91-.396l.16-.049zM20.735 28.733l-.019.108a8.195 8.195 0 00-2.96-.118l.02-.113a8.387 8.387 0 012.959.123zM26.683 28.916l-.021.12h-.023a8.278 8.278 0 01-3.043.401l.021-.107a8.183 8.183 0 002.978-.393l.088-.021zM20.674 29.07l-.019.107a8.287 8.287 0 00-2.966-.097l.02-.111a8.324 8.324 0 012.965.1zM26.611 29.286l-.023.122a8.31 8.31 0 01-3.057.382l.021-.109a8.168 8.168 0 003.043-.389l.016-.006zM20.613 29.414l-.02.11a8.164 8.164 0 00-2.972-.074l.021-.116a8.355 8.355 0 012.971.08zM26.542 29.656l-.023.122a8.286 8.286 0 01-3.057.357l.021-.107a8.118 8.118 0 003.06-.372zM20.552 29.742l-.02.107a8.1783 8.1783 0 00-2.978-.048l.021-.114a8.388 8.388 0 012.977.055zM26.473 30.03l-.021.117c-.989.3-2.025.412-3.055.332l.02-.105a8.217 8.217 0 003.056-.344zM20.49 30.08l-.02.107a8.277 8.277 0 00-2.983-.025l.021-.113a8.36 8.36 0 012.981.031zM26.401 30.4l-.023.117a8.274 8.274 0 01-3.057.307l.021-.107a8.195 8.195 0 003.06-.318zM20.428 30.418l-.018.107a8.262 8.262 0 00-2.99 0l.02-.115a8.35 8.35 0 012.988.008zM26.332 30.77l-.023.12c-.99.28-2.023.374-3.047.276l.021-.107a8.216 8.216 0 003.05-.29zM20.365 30.756l-.019.108a8.195 8.195 0 00-2.994.023l.021-.116a8.326 8.326 0 012.992-.015zM26.263 31.14l-.023.117a8.308 8.308 0 01-3.043.252l.021-.107a8.14 8.14 0 003.045-.263zM20.304 31.095l-.019.107a8.193 8.193 0 00-3 .046l.021-.116a8.36 8.36 0 012.998-.037zM26.191 31.515l-.02.118a8.34 8.34 0 01-3.04.227l.02-.105c1.02.11 2.05.03 3.04-.24zM20.243 31.433l-.02.107a8.257 8.257 0 00-3.005.072l.02-.118c.99-.2 2.008-.221 3.005-.061zM26.122 31.875l-.021.117a8.302 8.302 0 01-3.034.21c0-.027 0-.056.015-.088v-.019a8.172 8.172 0 003.04-.22zM20.18 31.771l-.019.108a8.258 8.258 0 00-3.012.098l.023-.117a8.327 8.327 0 013.008-.088zM26.053 32.24l-.021.12c-.972.239-1.978.3-2.971.182a.949.949 0 010-.109c1 .12 2.015.055 2.992-.193zM20.12 32.114l-.021.107a8.194 8.194 0 00-3.018.12l.021-.116a8.327 8.327 0 013.017-.111zM25.983 32.61l-.02.115c-.921.218-1.872.278-2.812.177a.7.7 0 01-.04-.112c.96.108 1.933.047 2.872-.18zM20.05 32.454c-.01.036-.02.072-.033.105a8.206 8.206 0 00-3.003.145l.021-.115a8.318 8.318 0 013.015-.135zM25.914 32.986l-.021.113a8.366 8.366 0 01-2.494.185.828.828 0 01-.103-.12c.877.08 1.76.02 2.618-.178zM19.926 32.776a1.6 1.6 0 01-.055.104 8.223 8.223 0 00-2.926.183l.023-.12a8.404 8.404 0 012.958-.167zM25.843 33.34l-.023.116c-.303.067-.61.116-.919.147h-.767a.984.984 0 01-.36-.067 8.35 8.35 0 002.069-.195zM19.705 33.11c-.033.035-.07.07-.107.1-.917-.077-1.84 0-2.731.23l.02-.12a8.36 8.36 0 012.818-.21zM19.245 33.43a1.8 1.8 0 01-.275.102 7.987 7.987 0 00-1.143.072h-.63a8.378 8.378 0 012.049-.175z" fill="#000"/><path d="M14.44 25.712c.001-.158.015-.315.042-.47l.192-1.16h2.788l.762-4.049h-3.139l.278-1.51c.04-.328.203-.629.456-.841.235-.18.616-.271 1.143-.271h1.628l.912-4.723c.058-.361.252-.686.542-.91.287-.216.638-.33.998-.323h1.649l-1.116 5.956h2.994l1.129-5.956h1.615c.308-.013.608.092.84.294a.968.968 0 01.322.748c.002.07-.003.14-.015.21l-.91 4.693h2.98l-.28 1.511c-.039.33-.205.63-.462.84-.24.181-.618.271-1.137.271h-1.47l-.748 4.05h2.084c.258-.018.512.063.712.226a1.036 1.036 0 01.242.771 2.879 2.879 0 01-.044.47l-.177 1.144h-3.197l-1.13 5.985h-1.658a.996.996 0 01-.763-.35 1.238 1.238 0 01-.322-.866 1.034 1.034 0 010-.14c0-.045.013-.091.021-.14l.868-4.49h-2.996l-.85 4.667a1.47 1.47 0 01-.604 1.013 1.86 1.86 0 01-1.05.306H15.98l1.114-5.985h-1.68a1.032 1.032 0 01-.726-.21.984.984 0 01-.248-.761zm9.755-5.673h-2.992l-.762 4.049h3.006l.748-4.049z" fill="#4F4F4F"/></g><defs><clipPath id="clip0"><path fill="#fff" d="M0 0h46.13v46.13H0z"/></clipPath></defs></svg>